SplineFontDB: 3.0
FontName: IndictionUnicode
FullName: Indiction Unicode
FamilyName: Indiction Unicode
Weight: Normal
Copyright: Copyright (c) Vladislav V. Dorosh, Calmius Software, 1996-98, 2002\nDistributed as Indyction UCS as part of CSLTeX, licensed under the LaTeX Project Public License.\nReencoded for Unicode and edited by Aleksandr Andreev, Slavonic Computing Initiative, 2016.\nDistributed as Indiction Unicode under the SIL Open Font License.\n
Version: 001.003
ItalicAngle: 0
UnderlinePosition: -70
UnderlineWidth: 16
Ascent: 800
Descent: 200
LayerCount: 3
Layer: 0 0 "Back"  1
Layer: 1 0 "Fore"  0
Layer: 2 1 "TTF"  0
UniqueID: 4777009
FSType: 0
OS2Version: 0
OS2_WeightWidthSlopeOnly: 0
OS2_UseTypoMetrics: 0
CreationTime: 1291760394
ModificationTime: 1463910675
PfmFamily: 17
TTFWeight: 400
TTFWidth: 5
LineGap: 90
VLineGap: 0
OS2TypoAscent: 0
OS2TypoAOffset: 1
OS2TypoDescent: 0
OS2TypoDOffset: 1
OS2TypoLinegap: 90
OS2WinAscent: 0
OS2WinAOffset: 1
OS2WinDescent: 0
OS2WinDOffset: 1
HheadAscent: 0
HheadAOffset: 1
HheadDescent: 0
HheadDOffset: 1
OS2Vendor: 'PfEd'
MarkAttachClasses: 1
DEI: 91125
LangName: 1033 
Encoding: UnicodeFull
Compacted: 1
UnicodeInterp: none
NameList: Adobe Glyph List
DisplaySize: -72
AntiAlias: 1
FitToEm: 1
WinInfo: 126 18 7
BeginPrivate: 9
BlueValues 36 [ -7 0 299 303 4000 4000 4000 4000 ]
BlueScale 7 0.04545
BlueShift 1 7
BlueFuzz 1 1
StdHW 6 [ 24 ]
StdVW 6 [ 29 ]
ForceBold 5 false
StemSnapH 9 [ 24 35 ]
StemSnapV 9 [ 29 35 ]
EndPrivate
TeXData: 1 0 0 644874 322437 214958 1048576 1048576 214958 783286 444596 497025 792723 393216 433062 380633 303038 157286 324010 404750 52429 2506097 1059062 262144
BeginChars: 1114125 308

StartChar: .notdef
Encoding: 1114112 -1 0
Width: 1229
Flags: HW
HStem: 60 62<472.499 751.489> 1107 59<481.133 754.205>
VStem: 61 62<472.569 750.52> 1109 59<477.701 753.53>
DStem2: 245 291 288 247 0.706598 0.707616<0 982.128>
LayerCount: 3
Fore
SplineSet
1168 613 m 0
 1168 309 920 60 614 60 c 0
 310 60 61 308 61 614 c 0
 61 918 310 1166 613 1166 c 1
 617 1166 l 2
 920 1166 1168 917 1168 613 c 0
939 986 m 1
 853 1061 739 1107 616 1107 c 0
 344 1107 123 886 123 615 c 0
 123 490 168 377 245 291 c 1
 939 986 l 1
1109 615 m 0
 1109 741 1061 855 982 943 c 1
 964 924 618 587 288 247 c 1
 374 168 490 122 616 122 c 0
 887 122 1109 343 1109 615 c 0
EndSplineSet
Validated: 1
EndChar

StartChar: C
Encoding: 67 67 3
Width: 636
Flags: W
HStem: -10 41<277.745 462.261> 451 21G<575 580.5> 621 37<273.726 445.041>
VStem: 37 91<208.164 438.034> 566 33<453.119 496.422>
LayerCount: 3
Fore
SplineSet
37 310 m 0
 37 500 168 658 358 658 c 0
 481 658 526 613 577 613 c 1
 587 558 594 510 599 458 c 1
 591 454 584 451 577 451 c 0
 573 451 570 452 566 453 c 1
 540 539 485 621 347 621 c 0
 295 621 237 593 187 532 c 0
 151 487 128 415 128 329 c 0
 128 183 221 31 356 31 c 0
 449 31 517 62 588 140 c 1
 599 140 606 134 611 125 c 1
 543 36 454 -10 357 -10 c 0
 142 -10 37 136 37 310 c 0
EndSplineSet
Validated: 1
EndChar

StartChar: D
Encoding: 68 68 4
Width: 676
Flags: W
HStem: 0 32<14.0705 89.9433 206.079 413.536> 613 34<14.0015 91.0861 206.921 373.9>
VStem: 106 85<44.3649 600.097> 562 96<179.356 422.825>
LayerCount: 3
Fore
SplineSet
191 84 m 2
 191 52 202 32 300 32 c 0
 441 32 562 82 562 284 c 0
 562 438 491 613 275 613 c 0
 226 613 191 599 191 564 c 2
 191 84 l 2
148 645 m 0
 187 645 242 647 313 647 c 0
 505 647 658 494 658 308 c 0
 658 62 472 0 331 0 c 0
 228 0 186 0 149 0 c 0
 111 0 58 -1 19 -2 c 1
 16 1 14 8 14 14 c 0
 14 21 16 28 19 31 c 1
 89 34 106 39 106 122 c 2
 106 523 l 2
 106 606 89 611 19 614 c 1
 16 617 14 624 14 630 c 0
 14 637 16 644 19 647 c 1
 59 646 112 645 148 645 c 0
EndSplineSet
Validated: 1
EndChar

StartChar: E
Encoding: 69 69 5
Width: 542
Flags: W
HStem: 0 39<198.526 426.897> 0 31<14.0188 87.75> 323 38<190 358.322> 605 40<199.403 397.552> 614 33<14.003 87.75>
VStem: 105 85<45.8954 323 361 596.13> 372 33<250.006 306.925 372.97 417.999 418.002 433.994> 444 33<496 539.828> 493 35<122.114 170.67>
LayerCount: 3
Fore
SplineSet
312 361 m 2x3780
 365 361 370 391 370 408 c 0
 370 411 369 414 369 415 c 0
 369 417 369 418 370 418 c 0
 371 418 372 421 372 429 c 1
 375 432 382 434 388 434 c 0
 395 434 402 432 405 429 c 1
 404 405 403 371 403 343 c 0
 403 309 404 281 405 255 c 1
 402 252 395 250 388 250 c 0
 382 250 375 252 372 255 c 1
 369 300 366 323 281 323 c 2
 190 323 l 1
 190 102 l 2
 190 55 204 39 246 39 c 2
 362 39 l 2xb780
 438 39 473 98 493 170 c 1
 497 171 501 171 505 171 c 0
 513 171 521 169 528 165 c 1
 520 114 505 50 491 0 c 1
 18 0 l 1
 15 3 14 8 14 14 c 0
 14 21 15 28 18 31 c 1
 88 34 105 39 105 122 c 2
 105 523 l 2
 105 606 88 611 18 614 c 1
 15 617 14 624 14 630 c 0
 14 637 15 644 18 647 c 1x6f80
 58 646 116 645 147 645 c 2
 402 645 l 2
 426 645 434 646 451 649 c 0
 454 649 455 648 455 646 c 0
 457 638 472 542 477 501 c 1
 470 497 462 495 453 495 c 0
 450 495 447 496 444 496 c 1
 422 565 406 605 331 605 c 2
 256 605 l 2
 202 605 190 585 190 541 c 2
 190 361 l 1
 312 361 l 2x3780
EndSplineSet
Validated: 1
EndChar

StartChar: G
Encoding: 71 71 6
Width: 690
Flags: W
HStem: -10 36<292.901 496.895> 265 36<444.001 519.492 622.484 665.999> 453 21G<562 584> 622 36<289.601 462.494>
VStem: 37 96<207.975 431.481> 530 85<73.4212 254.935> 575 33<454.148 496.672>
LayerCount: 3
Fore
SplineSet
377 658 m 0xfc
 488 658 525 623 585 613 c 1
 601 541 608 501 608 459 c 1
 598 455 589 453 579 453 c 0
 578 453 576 453 575 453 c 1xfa
 549 539 508 622 363 622 c 0
 246 622 133 502 133 327 c 0
 133 195 217 26 375 26 c 0
 429 26 496 32 530 64 c 1
 530 217 l 2
 530 257 503 261 448 265 c 1
 445 268 444 276 444 283 c 0
 444 290 445 298 448 301 c 1
 492 300 538 299 572 299 c 0
 612 299 637 300 661 301 c 1
 664 298 666 290 666 283 c 0
 666 276 664 268 661 265 c 1
 632 262 615 252 615 217 c 2
 615 101 l 2
 615 90 620 82 631 73 c 1
 563 15 470 -10 352 -10 c 0
 161 -10 37 127 37 307 c 0
 37 527 210 658 377 658 c 0xfc
EndSplineSet
Validated: 1
EndChar

StartChar: H
Encoding: 72 72 7
Width: 728
Flags: W
HStem: -2 33<14.0058 88.75 208.25 281.997 442.003 515.75 635.25 709.994> 321 42<191 533> 614 33<14.0058 88.75 208.25 281.997 442.003 515.75 635.25 709.994>
VStem: 106 85<43.3808 321 363 601.619> 533 85<43.3808 321 363 601.619>
LayerCount: 3
Fore
SplineSet
618 122 m 2
 618 39 635 34 705 31 c 1
 708 28 710 21 710 14 c 0
 710 8 708 1 705 -2 c 1
 661 -1 613 0 576 0 c 0
 539 0 491 -1 446 -2 c 1
 443 1 442 8 442 14 c 0
 442 21 443 28 446 31 c 1
 516 34 533 39 533 122 c 6
 533 321 l 5
 191 321 l 1
 191 122 l 2
 191 39 208 34 278 31 c 1
 281 28 282 21 282 14 c 0
 282 8 281 1 278 -2 c 1
 234 -1 185 0 149 0 c 0
 111 0 63 -1 19 -2 c 1
 16 1 14 8 14 14 c 0
 14 21 16 28 19 31 c 1
 89 34 106 39 106 122 c 2
 106 523 l 2
 106 606 89 611 19 614 c 1
 16 617 14 624 14 630 c 0
 14 637 16 644 19 647 c 1
 57 646 98 645 148 645 c 0
 199 645 240 646 278 647 c 1
 281 644 282 637 282 630 c 0
 282 624 281 617 278 614 c 1
 208 611 191 606 191 523 c 2
 191 363 l 1
 533 363 l 1
 533 523 l 2
 533 606 516 611 446 614 c 1
 443 617 442 624 442 630 c 0
 442 637 443 644 446 647 c 1
 490 646 538 645 575 645 c 0
 613 645 664 646 705 647 c 1
 708 644 710 637 710 630 c 0
 710 624 708 617 705 614 c 1
 635 611 618 606 618 523 c 2
 618 122 l 2
EndSplineSet
Validated: 1
EndChar

StartChar: I
Encoding: 73 73 8
Width: 296
Flags: W
HStem: -2 33<14.0058 88.75 208.25 281.997> 614 33<14.0058 88.75 208.25 281.997>
VStem: 106 85<43.3808 601.619>
LayerCount: 3
Fore
SplineSet
191 122 m 2
 191 39 208 34 278 31 c 1
 281 28 282 21 282 14 c 0
 282 8 281 1 278 -2 c 1
 233 -1 185 0 149 0 c 0
 113 0 64 -1 19 -2 c 1
 16 1 14 8 14 14 c 0
 14 21 16 28 19 31 c 1
 89 34 106 39 106 122 c 2
 106 523 l 2
 106 606 89 611 19 614 c 1
 16 617 14 624 14 630 c 0
 14 637 16 644 19 647 c 1
 66 646 114 645 148 645 c 0
 186 645 234 646 278 647 c 1
 281 644 282 637 282 630 c 0
 282 624 281 617 278 614 c 1
 208 611 191 606 191 523 c 2
 191 122 l 2
EndSplineSet
Validated: 1
EndChar

StartChar: J
Encoding: 74 74 9
Width: 332
Flags: W
HStem: -172 45<-4 94.3163> 614 33<40.003 122.5 242 307.994>
VStem: 141 85<-22.1101 600.635>
LayerCount: 3
Fore
SplineSet
226 523 m 2
 226 103 l 2
 226 -40 168 -92 124 -129 c 0
 83 -164 52 -172 7 -172 c 0
 -15 -172 -68 -154 -68 -118 c 0
 -68 -96 -38 -75 -24 -75 c 0
 1 -75 10 -88 16 -100 c 0
 23 -115 37 -127 56 -127 c 0
 89 -127 141 -99 141 81 c 2
 141 523 l 2
 141 606 124 611 44 614 c 1
 41 617 40 624 40 630 c 0
 40 637 41 644 44 647 c 1
 94 646 147 645 183 645 c 0
 222 645 265 646 303 647 c 1
 306 644 308 637 308 630 c 0
 308 624 306 617 303 614 c 1
 243 611 226 606 226 523 c 2
EndSplineSet
Validated: 1
EndChar

StartChar: K
Encoding: 75 75 10
Width: 646
Flags: W
HStem: 0 31<14.0361 88.75 208.25 281.981 570.068 631.964> 309 38<191 246.681> 614 33<14.0058 88.75 208.25 281.997 402.006 453.412 542.494 619.994>
VStem: 106 85<43.3808 309 347 601.619>
DStem2: 270 386 342 407 0.683941 0.729537<5.11883 277.345> 320 333 274 271 0.644226 -0.764835<-27.2066 342.113>
LayerCount: 3
Fore
SplineSet
191 122 m 2
 191 39 208 34 278 31 c 1
 281 28 282 21 282 14 c 0
 282 8 281 3 278 0 c 1
 263 0 248 0 233 0 c 0
 203 0 174 0 149 0 c 0
 110 0 64 -1 19 -2 c 1
 16 1 14 8 14 14 c 0
 14 21 16 28 19 31 c 1
 89 34 106 39 106 122 c 2
 106 523 l 2
 106 606 89 611 19 614 c 1
 16 617 14 624 14 630 c 0
 14 637 16 644 19 647 c 1
 64 646 110 645 148 645 c 0
 184 645 232 646 278 647 c 1
 281 644 282 637 282 630 c 0
 282 624 281 617 278 614 c 1
 208 611 191 606 191 523 c 2
 191 347 l 1
 226 350 249 363 270 386 c 2
 435 562 l 2
 449 577 454 587 454 594 c 0
 454 609 431 612 407 614 c 1
 404 617 402 624 402 630 c 0
 402 637 404 644 407 647 c 1
 444 646 483 645 520 645 c 0
 552 645 584 646 615 647 c 1
 618 644 620 637 620 630 c 0
 620 624 618 617 615 614 c 1
 575 611 535 607 489 558 c 1
 342 407 l 2
 308 372 307 365 307 358 c 0
 307 350 312 342 320 333 c 2
 539 73 l 2
 570 37 598 34 627 31 c 1
 630 28 632 21 632 14 c 0
 632 8 630 1 627 -2 c 1
 594 -1 560 0 526 0 c 0
 505 0 492 -1 472 -2 c 0
 468 -2 467 1 467 4 c 0
 465 20 451 47 431 73 c 2
 274 271 l 2
 254 297 225 308 191 309 c 1
 191 122 l 2
EndSplineSet
Validated: 1
EndChar

StartChar: L
Encoding: 76 76 11
Width: 521
Flags: W
HStem: -2 33<14.0058 88.75> 0 39<202.367 397.965> 614 33<14.0058 88.75 208.25 281.997>
VStem: 106 85<47.7012 601.619> 474 33<126.656 170>
LayerCount: 3
Fore
SplineSet
149 0 m 2x78
 115 0 58 -1 19 -2 c 1
 16 1 14 8 14 14 c 0
 14 21 16 28 19 31 c 1xb8
 89 34 106 39 106 122 c 2
 106 523 l 2
 106 606 89 611 19 614 c 1
 16 617 14 624 14 630 c 0
 14 637 16 644 19 647 c 1
 65 646 112 645 148 645 c 0
 186 645 233 646 278 647 c 1
 281 644 282 637 282 630 c 0
 282 624 281 617 278 614 c 1
 208 611 191 606 191 523 c 2
 191 109 l 2
 191 58 209 39 248 39 c 2
 311 39 l 2x78
 417 39 454 98 474 170 c 1
 477 170 480 171 483 171 c 0
 492 171 500 169 507 165 c 1
 501 113 491 48 481 -2 c 1xb8
 481 -2 389 0 362 0 c 2
 149 0 l 2x78
EndSplineSet
Validated: 1
EndChar

StartChar: N
Encoding: 78 78 12
Width: 708
Flags: W
HStem: -10 21G<574 589> 0 31<10.0361 77.9982 173.544 241.981> 614 33<18.0058 66.784 464.006 535.302 627.544 695.997>
VStem: 102 49<48.1359 487.989> 556 49<155.008 597.028>
DStem2: 158 645 193 455 0.620566 -0.784154<123.916 626.745>
LayerCount: 3
Fore
SplineSet
554 514 m 2x78
 554 606 539 607 469 614 c 1
 466 617 464 624 464 630 c 0
 464 637 466 644 469 647 c 1
 513 646 559 645 580 645 c 0
 604 645 651 646 692 647 c 1
 695 644 696 637 696 630 c 0
 696 624 695 617 692 614 c 1
 622 607 605 601 605 512 c 2
 605 21 l 2
 605 2 596 -10 582 -10 c 0xb8
 566 -10 553 -1 542 14 c 2
 193 455 l 2
 176 477 165 488 159 488 c 0
 151 488 151 473 151 439 c 2
 151 133 l 2
 151 42 168 38 238 31 c 1
 241 28 242 21 242 14 c 0
 242 8 241 3 238 0 c 1
 224 0 210 0 196 0 c 0
 168 0 142 0 127 0 c 0
 111 0 86 0 58 0 c 0
 44 0 29 0 15 0 c 1
 12 3 10 8 10 14 c 0
 10 21 12 28 15 31 c 1
 85 38 102 44 102 133 c 2
 102 550 l 1
 96 576 66 611 23 614 c 1
 20 617 18 624 18 630 c 0
 18 637 20 644 23 647 c 1
 158 645 l 1
 501 210 l 2
 530 173 545 155 549 155 c 0
 556 155 556 166 556 185 c 2
 554 514 l 2x78
EndSplineSet
Validated: 1
EndChar

StartChar: R
Encoding: 82 82 13
Width: 607
Flags: W
HStem: -10 31<539.651 586.526> -2 33<12.0058 86.75 206.25 279.997> 291 34<189 284.483> 618 34<12.3594 82.8593 178.224 346.32>
VStem: 104 85<43.3809 291 325 601.336> 405 92<398.367 563.649>
DStem2: 364 308 306 253 0.514496 -0.857493<0.00683212 312.16>
LayerCount: 3
Fore
SplineSet
272 618 m 0x3c
 201 618 189 583 189 554 c 2
 189 325 l 1
 237 325 l 2
 334 325 405 353 405 478 c 0
 405 596 333 618 272 618 c 0x3c
189 122 m 2
 189 39 206 34 276 31 c 1
 279 28 280 21 280 14 c 0
 280 8 279 1 276 -2 c 1
 232 -1 185 0 147 0 c 0
 108 0 62 -1 17 -2 c 1
 14 1 12 8 12 14 c 0
 12 21 14 28 17 31 c 1x7c
 87 34 104 39 104 122 c 2
 104 523 l 2
 104 606 87 611 17 614 c 1
 14 617 12 624 12 630 c 0
 12 637 14 644 17 647 c 1
 64 646 111 645 146 645 c 0
 182 645 224 652 271 652 c 0
 334 652 396 649 444 604 c 0
 480 570 497 529 497 479 c 0
 497 374 407 322 364 308 c 1
 490 98 l 2
 516 55 541 21 586 21 c 1
 588 17 589 12 589 7 c 0
 589 4 589 0 587 -3 c 1
 577 -8 560 -10 545 -10 c 0xbc
 485 -10 442 32 413 79 c 2
 306 253 l 2
 292 276 273 291 189 291 c 1
 189 122 l 2
EndSplineSet
Validated: 1
EndChar

StartChar: S
Encoding: 83 83 14
Width: 471
Flags: W
HStem: -10 36<147.65 309.576> 624 34<177.636 305.336>
VStem: 27 33<118.311 169.901> 51 71<451.955 567.919> 360 84<101.184 225.247> 380 32<495.442 538.131>
LayerCount: 3
Fore
SplineSet
392 633 m 1xd8
 402 580 409 550 412 502 c 1
 406 497 398 495 390 495 c 0
 386 495 383 495 380 496 c 1
 360 562 329 624 232 624 c 0
 173 624 122 568 122 512 c 0xd4
 122 428 222 390 282 368 c 0
 364 337 444 290 444 184 c 0
 444 120 408 59 350 23 c 0
 315 1 272 -10 227 -10 c 0
 138 -10 110 13 47 13 c 1
 35 62 31 88 27 165 c 1
 33 168 39 170 46 170 c 0
 51 170 55 169 60 168 c 1xe8
 82 68 142 26 235 26 c 0
 315 26 360 68 360 149 c 0
 360 247 286 275 226 298 c 0
 138 332 51 380 51 485 c 0
 51 591 140 658 241 658 c 0
 339 658 334 641 392 633 c 1xd8
EndSplineSet
Validated: 1
EndChar

StartChar: uniA64A
Encoding: 42570 42570 15
Width: 754
GlyphClass: 2
Flags: HMW
LayerCount: 3
Fore
SplineSet
199 986 m 1
 201 989 202 992 202 996 c 0
 202 1004 195 1011 186 1011 c 0
 176 1011 170 1003 170 995 c 0
 170 989 173 984 177 981 c 1
 181 980 184 979 187 978 c 1
 190 981 194 983 199 986 c 1
693 911 m 1
 704 926 709 945 709 964 c 0
 709 1003 686 1042 647 1042 c 0
 644 1042 640 1042 637 1041 c 1
 623 991 566 1011 520 982 c 0
 476 955 461 835 459 826 c 2
 416 600 l 1
 380 600 353 646 335 710 c 0
 335 713 335 714 336 715 c 0
 349 724 355 740 355 755 c 0
 355 772 348 788 335 794 c 0
 332 795 332 796 332 799 c 0
 332 801 332 804 332 806 c 0
 332 831 313 853 289 853 c 0
 288 853 288 853 287 853 c 0
 283 866 282 878 282 889 c 0
 282 931 305 962 343 975 c 1
 334 993 311 1000 286 1000 c 0
 250 1000 207 985 188 970 c 1
 168 976 139 981 111 981 c 0
 72 981 35 971 33 938 c 1
 102 925 131 865 153 812 c 0
 154 810 154 809 151 807 c 0
 138 800 132 785 132 771 c 0
 132 755 139 740 154 737 c 0
 158 737 158 735 156 731 c 0
 154 727 153 722 153 717 c 0
 153 695 177 671 200 671 c 0
 202 671 204 672 206 672 c 0
 208 672 209 672 210 670 c 0
 224 622 232 580 232 548 c 0
 232 527 229 510 221 500 c 1
 237 487 258 481 280 481 c 0
 308 481 336 491 356 508 c 0
 357 509 359 509 360 508 c 0
 368 503 387 498 395 498 c 0
 398 498 398 496 398 493 c 2
 368 321 l 2
 367 317 364 316 362 318 c 0
 337 337 305 345 272 345 c 0
 194 345 109 294 95 202 c 1
 84 195 77 179 77 162 c 0
 77 147 83 132 95 125 c 1
 115 43 177 3 249 3 c 0
 287 3 327 14 365 36 c 0
 367 37 369 37 370 36 c 0
 417 13 462 3 503 3 c 0
 588 3 656 47 685 120 c 1
 704 128 715 149 715 168 c 0
 715 180 710 191 701 197 c 1
 701 200 702 203 702 206 c 0
 702 272 625 335 539 335 c 0
 513 335 486 329 460 316 c 0
 456 313 453 316 454 321 c 2
 486 492 l 1
 518 497 535 529 535 559 c 0
 535 580 527 601 508 611 c 0
 507 612 507 613 507 616 c 2
 535 771 l 2
 540 803 554 817 567 817 c 0
 581 817 595 800 595 769 c 0
 595 692 620 643 659 635 c 1
 659 640 658 645 658 650 c 0
 658 723 706 750 706 821 c 0
 706 851 695 881 680 891 c 0
 672 897 685 903 688 906 c 0
 689 908 691 910 693 911 c 1
648 650 m 1
 623 661 605 720 605 769 c 0
 605 815 587 835 570 835 c 0
 551 835 531 811 524 771 c 2
 496 611 l 1
 489 602 464 596 445 596 c 0
 438 596 432 597 428 599 c 1
 470 825 l 2
 481 885 494 944 526 974 c 0
 550 996 620 980 646 1031 c 0
 647 1031 648 1031 649 1031 c 0
 679 1031 698 1002 698 969 c 0
 698 940 683 909 648 895 c 1
 680 884 695 857 695 824 c 0
 695 753 648 720 648 650 c 1
325 978 m 1
 285 960 269 921 269 884 c 0
 269 873 270 863 273 853 c 1
 246 829 217 816 182 816 c 0
 175 816 168 816 161 817 c 1
 147 864 105 937 46 945 c 1
 46 964 67 972 95 972 c 0
 129 972 171 960 196 941 c 1
 207 972 257 991 292 991 c 0
 308 991 321 987 325 978 c 1
284 843 m 0
 302 843 322 829 322 811 c 0
 322 784 282 756 256 746 c 0
 235 738 214 733 195 733 c 0
 172 733 144 744 144 772 c 0
 144 788 154 802 165 806 c 1
 171 804 178 803 186 803 c 0
 219 803 264 821 281 843 c 0
 282 843 283 843 284 843 c 0
326 787 m 1
 339 780 344 770 344 760 c 0
 344 744 334 727 322 715 c 1
 322 673 300 653 273 653 c 0
 255 653 236 662 220 680 c 1
 217 680 214 679 211 679 c 0
 187 679 164 695 164 715 c 0
 164 719 165 724 167 728 c 1
 178 726 188 725 199 725 c 0
 254 725 303 752 326 787 c 1
523 558 m 0
 523 513 487 498 446 498 c 0
 413 498 377 508 356 521 c 1
 336 502 309 490 282 490 c 0
 266 490 250 494 235 503 c 1
 241 517 243 535 243 553 c 0
 243 588 234 628 221 662 c 1
 223 662 224 664 225 664 c 0
 235 651 254 643 272 643 c 0
 298 643 324 659 328 698 c 1
 330 698 330 698 331 698 c 0
 355 608 391 587 436 587 c 0
 461 587 484 592 501 601 c 1
 518 596 523 577 523 558 c 0
690 202 m 0
 681 196 661 193 642 193 c 0
 620 193 597 197 587 204 c 1
 583 243 552 284 497 284 c 0
 483 284 467 281 449 275 c 1
 449 284 450 292 450 296 c 1
 477 316 509 325 540 325 c 0
 616 325 690 274 690 205 c 0
 690 204 690 203 690 202 c 0
628 113 m 0
 600 113 561 131 561 159 c 0
 561 176 573 188 585 194 c 1
 600 188 621 184 642 184 c 0
 660 184 678 187 691 192 c 1
 701 184 706 178 706 168 c 0
 706 132 664 113 628 113 c 0
494 175 m 1
 484 155 469 146 452 146 c 0
 430 146 406 162 389 188 c 1
 368 166 340 151 317 151 c 0
 296 151 279 162 272 188 c 1
 276 187 279 187 283 187 c 0
 348 187 371 281 381 337 c 2
 410 492 l 1
 417 490 430 489 443 489 c 0
 453 489 464 490 473 492 c 1
 446 338 l 2
 443 320 439 293 439 267 c 0
 439 224 450 182 494 175 c 1
577 199 m 1
 561 192 553 176 553 161 c 0
 553 149 558 137 567 130 c 1
 552 97 520 83 485 83 c 0
 451 83 414 96 386 120 c 0
 385 122 380 123 378 120 c 0
 362 96 320 73 281 73 c 0
 253 73 227 85 214 119 c 0
 213 122 217 124 219 125 c 0
 228 133 233 147 233 161 c 0
 233 176 227 190 214 199 c 0
 214 200 214 201 214 202 c 0
 214 246 268 284 315 284 c 0
 323 284 352 281 352 272 c 0
 352 226 299 199 266 199 c 0
 263 199 259 200 255 200 c 1
 256 168 282 139 319 139 c 0
 335 139 352 144 370 155 c 1
 374 161 385 170 391 164 c 1
 394 163 396 160 398 158 c 0
 418 142 440 134 459 134 c 0
 487 134 509 151 509 183 c 0
 509 184 509 186 509 187 c 0
 469 192 451 218 451 258 c 0
 451 260 451 262 451 264 c 1
 466 270 481 272 494 272 c 0
 540 272 574 243 577 199 c 1
363 304 m 1
 363 299 359 288 357 284 c 1
 343 290 328 293 313 293 c 0
 262 293 211 259 204 208 c 1
 195 202 177 198 158 198 c 0
 138 198 117 202 106 210 c 1
 127 294 194 334 263 334 c 0
 297 334 333 324 363 304 c 1
668 109 m 1
 628 42 569 11 503 11 c 0
 460 11 414 25 369 50 c 1
 334 25 291 12 250 12 c 0
 185 12 125 45 110 113 c 1
 126 103 142 99 158 99 c 0
 175 99 192 104 206 112 c 1
 222 76 251 62 282 62 c 0
 318 62 357 82 381 107 c 1
 414 85 452 73 486 73 c 0
 524 73 557 87 574 120 c 1
 592 109 609 102 630 102 c 0
 641 102 654 104 668 109 c 1
225 162 m 0
 225 124 184 109 158 109 c 0
 134 109 86 128 86 162 c 0
 86 178 95 193 106 198 c 1
 120 192 138 189 157 189 c 0
 174 189 191 192 203 197 c 1
 215 191 225 177 225 162 c 0
638 729 m 0
 642 762 650 783 650 815 c 0
 650 855 610 886 572 886 c 0
 553 886 531 880 516 862 c 1
 524 895 535 929 560 944 c 0
 588 960 613 950 644 966 c 0
 649 969 649 970 644 969 c 0
 615 957 584 967 556 951 c 1
 521 933 510 874 504 836 c 0
 503 831 510 828 512 833 c 0
 523 869 552 878 574 878 c 0
 606 878 642 856 643 810 c 0
 643 784 636 763 636 734 c 0
 636 733 636 731 636 729 c 0
 636 724 638 724 638 729 c 0
268 960 m 0
 273 962 272 965 267 962 c 0
 236 949 213 913 212 869 c 1
 192 903 156 933 112 945 c 0
 107 946 106 944 111 943 c 0
 158 927 193 889 209 851 c 0
 212 846 219 847 219 852 c 0
 219 853 219 854 219 856 c 0
 219 903 238 944 268 960 c 0
389 554 m 0
 358 560 321 580 299 624 c 0
 296 629 288 624 290 619 c 0
 296 602 300 585 300 569 c 0
 300 549 295 531 283 521 c 0
 278 517 278 515 283 519 c 0
 300 530 308 552 308 577 c 0
 308 583 307 589 306 596 c 1
 330 567 358 554 387 552 c 0
 392 552 393 553 389 554 c 0
459 165 m 0
 464 165 465 166 460 167 c 0
 426 173 406 221 403 259 c 0
 403 264 397 265 396 261 c 0
 385 226 351 177 321 175 c 0
 316 175 316 172 321 172 c 0
 322 172 322 172 323 172 c 0
 351 172 382 209 397 242 c 1
 403 203 424 168 459 165 c 0
571 203 m 1
 567 241 536 266 495 266 c 0
 483 266 470 264 457 259 c 0
 457 258 457 257 457 256 c 0
 457 220 476 198 513 194 c 0
 515 194 516 193 516 190 c 0
 516 188 516 186 516 184 c 0
 516 146 491 126 460 126 c 0
 442 126 421 133 402 146 c 1
 402 138 393 131 385 131 c 0
 377 131 370 138 368 146 c 1
 351 136 334 131 319 131 c 0
 277 131 247 166 247 202 c 0
 247 205 247 208 251 208 c 0
 256 207 261 207 266 207 c 0
 305 207 331 230 343 269 c 1
 334 274 323 276 312 276 c 0
 271 276 221 243 221 204 c 2
 221 204 221 203 221 202 c 0
 234 192 241 176 241 160 c 0
 241 145 235 130 223 122 c 1
 232 92 255 80 281 80 c 0
 316 80 357 102 373 125 c 1
 375 130 387 129 391 125 c 0
 418 103 455 89 488 89 c 0
 519 89 546 100 560 128 c 1
 551 136 546 149 546 161 c 0
 546 177 554 194 571 203 c 1
351 10 m 0
 351 0 358 -4 365 -4 c 0
 373 -4 382 1 382 12 c 0
 382 15 381 18 380 20 c 1
 375 22 370 25 365 27 c 1
 362 25 359 23 355 22 c 1
 353 18 351 14 351 10 c 0
701 880 m 1
 703 879 705 878 707 878 c 0
 716 878 723 888 723 896 c 0
 723 905 716 912 707 912 c 0
 706 912 705 912 703 911 c 1
 700 906 696 900 691 896 c 0
 691 895 691 895 691 894 c 0
 695 890 698 885 701 880 c 1
729 895 m 0
 729 884 719 874 706 874 c 0
 705 874 705 874 704 874 c 1
 710 859 714 840 714 821 c 0
 714 749 665 723 665 649 c 0
 665 643 665 638 666 632 c 0
 666 629 665 628 663 628 c 0
 616 632 590 685 588 769 c 0
 587 791 578 803 567 803 c 0
 557 803 546 793 542 768 c 2
 515 617 l 1
 535 606 543 584 543 561 c 0
 543 527 525 492 492 485 c 1
 462 327 l 1
 487 338 513 343 538 343 c 0
 629 343 709 278 709 210 c 0
 709 206 708 203 708 200 c 1
 718 193 723 181 723 168 c 0
 723 147 710 123 690 114 c 1
 661 40 590 -6 501 -6 c 0
 466 -6 428 1 388 17 c 1
 389 15 389 13 389 11 c 0
 389 -1 380 -10 368 -10 c 0
 356 -10 344 -1 344 11 c 0
 344 13 344 15 345 16 c 1
 312 1 278 -7 247 -7 c 0
 173 -7 110 35 89 119 c 1
 75 128 68 145 68 163 c 0
 68 181 76 200 89 208 c 1
 104 302 191 354 273 354 c 0
 305 354 336 346 362 329 c 1
 390 489 l 1
 387 489 383 490 379 491 c 1
 380 488 381 485 381 482 c 0
 381 469 370 462 359 462 c 0
 348 462 337 468 337 482 c 0
 337 483 337 484 337 485 c 1
 320 476 300 471 280 471 c 0
 255 471 231 479 213 495 c 0
 210 498 210 499 213 501 c 0
 221 509 225 525 225 545 c 0
 225 576 217 618 204 664 c 1
 202 664 201 664 199 664 c 0
 173 664 145 690 145 718 c 0
 145 722 145 727 147 731 c 1
 133 736 125 754 125 772 c 0
 125 789 131 805 144 814 c 1
 122 864 95 921 30 930 c 0
 26 930 26 933 26 936 c 0
 26 975 69 988 114 988 c 0
 133 988 151 986 168 983 c 1
 165 986 164 990 164 994 c 0
 164 1007 173 1016 186 1016 c 0
 198 1016 208 1007 208 994 c 0
 208 993 208 991 208 990 c 1
 229 1000 259 1007 285 1007 c 0
 316 1007 343 998 352 974 c 0
 353 971 352 970 349 969 c 0
 313 957 289 927 289 886 c 0
 289 878 290 869 292 859 c 0
 293 859 293 859 294 859 c 0
 320 859 340 836 340 807 c 0
 340 805 340 803 340 800 c 1
 355 791 363 772 363 753 c 0
 363 736 357 720 343 709 c 1
 362 655 380 610 411 606 c 1
 451 828 l 1
 454 837 471 962 515 989 c 0
 560 1016 618 997 631 1047 c 1
 636 1048 641 1049 646 1049 c 0
 689 1049 717 1007 717 962 c 0
 717 947 714 931 706 917 c 1
 707 917 l 2
 719 917 729 907 729 895 c 0
345 489 m 1
 343 486 343 484 343 481 c 0
 343 473 352 467 360 467 c 0
 368 467 375 471 375 483 c 0
 375 487 374 491 371 494 c 1
 367 495 363 497 359 499 c 1
 355 495 350 492 345 489 c 1
385 136 m 0
 391 136 397 141 397 149 c 0
 397 151 388 157 386 159 c 1
 382 155 378 152 373 149 c 1
 373 141 379 136 385 136 c 0
EndSplineSet
Validated: 1
EndChar

StartChar: Y
Encoding: 89 89 16
Width: 577
Flags: W
HStem: -2 33<150.006 233.5 355.5 437.997> 614 33<0.0535011 59.5087 171.4 225.994 390.006 441.509 512.407 573.994>
VStem: 252 85<44.3649 325.991>
DStem2: 301 354 100 547 0.509909 -0.860228<-272.417 17.2266> 323 352 354 334 0.485643 0.874157<-13.9503 265.997>
LayerCount: 3
Fore
SplineSet
337 122 m 2
 337 39 354 34 434 31 c 1
 437 28 438 21 438 14 c 0
 438 8 437 1 434 -2 c 1
 384 -1 334 0 295 0 c 0
 256 0 204 -1 155 -2 c 1
 152 1 150 8 150 14 c 0
 150 21 152 28 155 31 c 1
 235 34 252 39 252 122 c 2
 252 249 l 2
 252 286 248 296 231 326 c 2
 100 547 l 2
 65 605 48 611 6 614 c 1
 3 617 0 625 0 632 c 0
 0 638 2 644 5 647 c 1
 35 646 68 645 107 645 c 0
 147 645 185 646 221 647 c 1
 224 644 226 637 226 630 c 0
 226 624 224 617 221 614 c 1
 186 612 171 608 171 594 c 0
 171 586 176 575 185 559 c 2
 301 354 l 2
 306 346 310 341 313 341 c 0
 316 341 319 345 323 352 c 2
 434 561 l 2
 440 573 443 582 443 590 c 0
 443 607 426 612 395 614 c 1
 392 617 390 624 390 630 c 0
 390 637 392 644 395 647 c 1
 427 646 463 645 486 645 c 0
 509 645 541 646 569 647 c 1
 572 644 574 637 574 630 c 0
 574 624 572 617 569 614 c 1
 524 610 502 601 474 550 c 2
 354 334 l 2
 338 304 337 288 337 258 c 2
 337 122 l 2
EndSplineSet
Validated: 1
EndChar

StartChar: bracketleft
Encoding: 91 91 17
Width: 297
Flags: W
HStem: -200 19<120 261> 903 19<120 261>
VStem: 63 57<-181 903>
LayerCount: 3
Fore
SplineSet
63 -200 m 1
 63 922 l 1
 261 922 l 1
 261 903 l 1
 120 903 l 1
 120 -181 l 1
 261 -181 l 1
 261 -200 l 1
 63 -200 l 1
EndSplineSet
Validated: 1
EndChar

StartChar: backslash
Encoding: 92 92 18
Width: 555
Flags: W
VStem: 6 55<958 1013> 396 55<-202 -147>
DStem2: 61 1013 6 1013 0.305629 -0.952151<0 1259.25>
LayerCount: 3
Fore
SplineSet
451 -202 m 1
 396 -202 l 1
 6 1013 l 1
 61 1013 l 1
 451 -202 l 1
EndSplineSet
Validated: 1
EndChar

StartChar: bracketright
Encoding: 93 93 19
Width: 297
Flags: W
HStem: -200 19<18 159> 903 19<18 159>
VStem: 159 57<-181 903>
LayerCount: 3
Fore
SplineSet
18 -200 m 1
 18 -181 l 1
 159 -181 l 1
 159 903 l 1
 18 903 l 1
 18 922 l 1
 216 922 l 1
 216 -200 l 1
 18 -200 l 1
EndSplineSet
Validated: 1
EndChar

StartChar: asciicircum
Encoding: 94 94 20
Width: 450
VWidth: 999
Flags: W
HStem: 346 304
VStem: 78 294
DStem2: 78 346 122 346 0.382889 0.923795<16.8471 284.079> 246 650 224 593 0.382889 -0.923795<44.2327 312.23>
LayerCount: 3
Fore
SplineSet
224 593 m 1
 122 346 l 1
 78 346 l 1
 204 650 l 1
 246 650 l 1
 372 346 l 1
 328 346 l 1
 224 593 l 1
EndSplineSet
Validated: 1
EndChar

StartChar: underscore
Encoding: 95 95 21
Width: 375
Flags: W
HStem: 0 96<17.0059 357.994>
VStem: 14 347<1.15037 94.7421>
LayerCount: 3
Fore
SplineSet
329 96 m 2
 356 96 361 74 361 47 c 0
 361 20 356 0 329 0 c 2
 46 0 l 2
 19 0 14 20 14 47 c 0
 14 74 19 96 46 96 c 2
 329 96 l 2
EndSplineSet
Validated: 1
EndChar

StartChar: grave
Encoding: 96 96 22
Width: 196
Flags: W
HStem: 506 211
VStem: 1 182
LayerCount: 3
Fore
SplineSet
147 506 m 1
 1 715 l 2
 0 716 1 716 1 717 c 0
 1 719 2 719 4 719 c 0
 5 719 6 719 7 719 c 2
 72 719 l 1
 183 514 l 2
 184 513 184 512 184 511 c 0
 184 508 183 506 180 506 c 2
 147 506 l 1
EndSplineSet
Validated: 1
EndChar

StartChar: a
Encoding: 97 97 23
Width: 464
Flags: W
HStem: 1 48<323 424.249> 1 41<129.718 227.488> 417 33<132.597 246.783>
VStem: 24 84<61.889 170.445> 44 74<321.838 389.807> 282 78<80.3242 244 275.049 383.119>
DStem2: 190 254 202 223 0.971457 0.237216<-61.8174 87.0019>
LayerCount: 3
Fore
SplineSet
282 244 m 1x74
 202 223 l 2
 128 204 108 158 108 113 c 0
 108 82 130 42 180 42 c 0
 208 42 242 65 268 86 c 0
 276 92 282 99 282 112 c 2
 282 244 l 1x74
118 375 m 0x6c
 118 353 126 355 126 337 c 0
 126 324 108 303 78 303 c 0
 56 303 44 315 44 339 c 0
 44 396 126 450 208 450 c 0
 282 450 360 423 360 281 c 2
 360 134 l 2
 360 88 360 49 390 49 c 0
 402 49 419 59 426 65 c 1
 438 58 442 50 444 38 c 1
 423 18 387 1 348 1 c 0xac
 298 1 288 28 282 59 c 1
 280 59 l 1
 260 43 l 2
 216 9 185 1 150 1 c 0
 80 1 24 27 24 109 c 0x74
 24 177 94 230 190 254 c 2
 276 275 l 2
 278 276 282 280 282 287 c 0
 282 400 234 417 200 417 c 0
 162 417 118 407 118 375 c 0x6c
EndSplineSet
Validated: 1
EndChar

StartChar: b
Encoding: 98 98 24
Width: 471
Flags: W
HStem: 0 34<185.883 292.19> 405 44<199.55 311.679> 651 30<7.63467 68.3801>
VStem: 78 79<57.054 377.15 409 645.885> 370 86<143.468 334.177>
LayerCount: 3
Fore
SplineSet
174 373 m 0
 161 362 157 352 157 331 c 2
 157 81 l 1
 177 56 198 34 229 34 c 0
 324 34 370 120 370 234 c 0
 370 331 320 405 259 405 c 0
 230 405 200 396 174 373 c 0
167 404 m 0
 198 432 236 449 279 449 c 0
 366 449 456 374 456 252 c 0
 456 93 337 0 235 0 c 0
 199 0 170 5 147 25 c 0
 141 29 137 31 134 31 c 0
 129 31 125 28 119 22 c 0
 112 13 102 4 96 -2 c 1
 84 -2 79 2 74 10 c 1
 77 24 78 42 78 81 c 2
 78 569 l 2
 78 653 66 648 14 651 c 1
 9 655 7 666 7 674 c 0
 7 677 7 679 8 681 c 1
 48 684 123 698 148 708 c 1
 157 708 161 705 161 698 c 2
 161 698 157 658 157 593 c 2
 157 409 l 2
 157 400 160 398 167 404 c 0
EndSplineSet
Validated: 1
EndChar

StartChar: c
Encoding: 99 99 25
Width: 407
Flags: W
HStem: -0 49<189.817 318.917> 416 33<181.553 284.443>
VStem: 32 86<133.239 320.572> 304 86<317.317 402.064>
LayerCount: 3
Fore
SplineSet
394 101 m 1
 344 19 290 -0 230 -0 c 0
 104 -0 32 89 32 218 c 0
 32 360 138 449 238 449 c 0
 334 449 390 409 390 354 c 0
 390 323 362 310 342 310 c 0
 320 310 304 319 304 346 c 0
 304 381 292 416 232 416 c 0
 166 416 118 350 118 240 c 0
 118 123 180 49 252 49 c 0
 296 49 338 71 372 115 c 1
 382 115 390 110 394 101 c 1
EndSplineSet
Validated: 1
EndChar

StartChar: d
Encoding: 100 100 26
Width: 507
Flags: W
HStem: 0 47<174.748 270.469> 40 27<434.783 493.987> 414 35<179.076 299.036> 651 30<267 327.38>
VStem: 31 86<118.084 320.695> 337 79<90.6055 383.206 432.001 647.204>
LayerCount: 3
Fore
SplineSet
337 134 m 2xbc
 337 324 l 2
 337 355 334 362 320 378 c 0
 300 401 275 414 239 414 c 0
 219 414 177 411 146 364 c 0
 131 343 117 303 117 231 c 0
 117 106 173 47 227 47 c 0
 252 47 284 63 321 95 c 0
 335 107 337 115 337 134 c 2xbc
327 62 m 0
 278 22 240 0 201 0 c 0xbc
 93 0 31 90 31 213 c 0
 31 287 57 346 100 389 c 1
 140 427 184 449 250 449 c 0
 283 449 324 432 328 432 c 0
 335 432 337 434 337 441 c 2
 337 569 l 2
 337 649 326 651 280 651 c 0
 273 651 l 1
 269 655 266 665 266 673 c 0
 266 676 267 679 267 681 c 1
 307 681 382 698 407 708 c 1
 416 708 420 705 420 698 c 2
 420 698 416 658 416 593 c 2
 416 140 l 2
 416 91 425 67 489 67 c 1
 492 64 494 58 494 53 c 0
 494 48 492 43 489 40 c 1x7c
 428 33 393 18 371 0 c 1
 368 -2 365 -2 362 -2 c 0
 359 -2 356 -2 352 0 c 1
 352 0 344 34 341 59 c 0
 341 66 332 66 327 62 c 0
EndSplineSet
Validated: 1
EndChar

StartChar: e
Encoding: 101 101 27
Width: 438
Flags: W
HStem: 0 49<198.304 328.136> 258 34<122 317.997> 414 33<180.425 283.355>
VStem: 35 84<140.942 258 292 316.625> 318 86<267.5 375.153>
LayerCount: 3
Fore
SplineSet
122 292 m 1
 303 295 l 2
 314 295 318 300 318 309 c 0
 318 393 273 414 235 414 c 0
 211 414 141 405 122 292 c 1
235 0 m 0
 105 0 35 87 35 212 c 0
 35 364 148 447 235 447 c 0
 374 447 404 357 404 273 c 0
 404 262 397 256 385 256 c 2
 119 258 l 1
 119 200 131 154 151 121 c 0
 182 70 224 49 260 49 c 0
 318 49 347 65 384 103 c 1
 396 102 402 97 405 87 c 1
 365 35 311 0 235 0 c 0
EndSplineSet
Validated: 1
EndChar

StartChar: g
Encoding: 103 103 28
Width: 503
Flags: W
HStem: -226 37<158.668 315.924> 0 61<132.565 372.635> 148 31<181.2 282.855> 420 31<173.909 275.228> 429 45<368.916 457.014>
VStem: 32 70<-144.932 -47.0721> 60 82<222.83 374.537> 68 54<67.7785 160.273> 320 80<222.951 378.205> 418 54<-119.4 -36.9344>
LayerCount: 3
Fore
SplineSet
320 291 m 0xf2c0
 320 374 286 420 222 420 c 0
 168 420 142 384 142 314 c 0
 142 250 152 179 236 179 c 0
 272 179 320 198 320 291 c 0xf2c0
132 2 m 1
 104 -33 102 -58 102 -92 c 0xe4c0
 102 -160 186 -189 222 -189 c 0
 312 -189 418 -151 418 -79 c 0
 418 -53 406 -39 366 -17 c 0
 338 -1 296 0 246 0 c 0
 232 0 204 -3 172 -3 c 0
 160 -3 144 -1 132 2 c 1
188 56 m 0
 212 56 260 61 282 61 c 0
 320 61 390 60 428 28 c 0
 458 4 472 -21 472 -53 c 0
 472 -161 326 -226 192 -226 c 0
 114 -226 32 -199 32 -112 c 0xecc0
 32 -69 60 -23 114 9 c 1
 88 22 68 50 68 86 c 0xe9c0
 68 120 84 163 112 187 c 1
 84 214 60 245 60 299 c 0
 60 391 142 451 232 451 c 0xf2c0
 290 451 324 431 336 423 c 1
 362 457 410 474 436 474 c 0
 462 474 482 458 482 437 c 0
 482 417 464 399 444 399 c 0
 434 399 420 409 416 417 c 1
 410 426 404 429 396 429 c 0
 384 429 364 415 356 405 c 1
 386 375 400 348 400 301 c 0
 400 203 318 148 230 148 c 0
 192 148 164 155 140 169 c 1
 128 152 122 131 122 111 c 0xe9c0
 122 68 158 56 188 56 c 0
EndSplineSet
Validated: 1
EndChar

StartChar: h
Encoding: 104 104 29
Width: 532
Flags: W
HStem: -2 33<15.003 75.75 178.875 232.994 312.006 365.637 470.435 527.997> 385 54<252.87 358.235> 641 30<19 79.3801>
VStem: 89 79<40.3962 331.419 358 635.885> 378 79<40.3691 365.456>
LayerCount: 3
Fore
SplineSet
168 286 m 2
 168 122 l 2
 168 39 177 35 228 31 c 1
 231 28 233 21 233 14 c 0
 233 7 231 1 228 -2 c 1
 200 -1 167 -0 129 -0 c 0
 89 -0 52 -1 19 -2 c 1
 16 1 15 7 15 14 c 0
 15 21 16 28 19 31 c 1
 77 35 89 39 89 122 c 2
 89 559 l 2
 89 643 77 638 25 641 c 1
 21 645 18 655 18 663 c 0
 18 666 19 669 19 671 c 1
 59 674 134 688 159 698 c 1
 168 698 172 695 172 688 c 2
 172 688 168 648 168 583 c 2
 168 358 l 2
 168 344 174 354 177 358 c 0
 238 426 298 439 347 439 c 0
 382 439 413 427 430 405 c 0
 454 374 457 326 457 271 c 2
 457 122 l 2
 457 40 468 36 524 31 c 1
 527 28 528 21 528 14 c 0
 528 7 527 1 524 -2 c 1
 491 -1 458 -0 418 -0 c 0
 378 -0 344 -1 316 -2 c 1
 314 1 312 7 312 14 c 0
 312 21 314 28 316 31 c 1
 368 36 378 40 378 122 c 2
 378 274 l 2
 378 304 376 331 366 351 c 0
 355 374 334 385 313 385 c 0
 274 385 223 365 185 328 c 0
 177 319 168 307 168 286 c 2
EndSplineSet
Validated: 1
EndChar

StartChar: i
Encoding: 105 105 30
Width: 283
Flags: W
HStem: -2 33<26.0058 89.25 194.75 257.994> 386 27<36.4015 87.0864> 547 100<101.012 179.458>
VStem: 90 100<558.156 635.282> 102 80<40.3963 377.607>
LayerCount: 3
Fore
SplineSet
90 599 m 0xf0
 90 623 118 647 142 647 c 0
 170 647 190 619 190 595 c 0
 190 574 166 547 138 547 c 0
 114 547 90 573 90 599 c 0xf0
182 122 m 2xe8
 182 39 192 35 254 31 c 1
 256 28 258 21 258 14 c 0
 258 7 256 1 254 -2 c 1
 220 -1 182 0 142 0 c 0
 102 0 64 -1 30 -2 c 1
 28 1 26 7 26 14 c 0
 26 21 28 28 30 31 c 1
 92 36 102 39 102 122 c 2
 102 317 l 2
 102 374 92 381 38 386 c 1
 36 392 34 407 36 413 c 1
 104 422 144 431 172 442 c 1
 180 442 186 439 186 435 c 2
 186 435 182 371 182 321 c 2
 182 122 l 2xe8
EndSplineSet
Validated: 1
EndChar

StartChar: j
Encoding: 106 106 31
Width: 247
Flags: W
HStem: -199 44<-7.5 81.3639> 409 28<38.9751 90.7351> 446 20G<155 182.5> 571 100<103.223 181.84>
VStem: 92 100<581.287 658.75> 106 79<-77.9958 392.587>
LayerCount: 3
Fore
SplineSet
92 623 m 0xf0
 92 647 120 671 144 671 c 0
 171 671 192 643 192 619 c 0
 192 598 168 571 140 571 c 0
 116 571 92 597 92 623 c 0xf0
106 340 m 2xe8
 106 397 95 404 41 409 c 1
 39 415 37 431 39 437 c 1
 108 446 148 455 176 466 c 1
 184 466 189 463 189 459 c 2
 189 459 185 395 185 345 c 2
 185 134 l 2
 185 -55 157 -127 110 -165 c 0
 73 -196 21 -199 0 -199 c 0
 -19 -199 -55 -185 -55 -156 c 0
 -55 -138 -34 -118 -23 -118 c 0
 -1 -118 11 -134 21 -144 c 0
 28 -151 41 -155 52 -155 c 0
 102 -155 106 -32 106 100 c 2
 106 340 l 2xe8
EndSplineSet
Validated: 1
EndChar

StartChar: k
Encoding: 107 107 32
Width: 526
Flags: W
HStem: -2 33<16.0058 75.5 177.625 223.994 446.582 509.994> 398 33<288.003 326.909 407.859 481.994> 641 30<18 78.3801>
VStem: 88 79<39.666 209 234 637.204>
DStem2: 287 239 242 171 0.622392 -0.782705<-15.1298 234.601>
LayerCount: 3
Fore
SplineSet
88 122 m 2
 88 559 l 2
 88 639 77 641 31 641 c 2
 24 641 l 1
 20 645 17 655 17 663 c 0
 17 666 18 669 18 671 c 1
 58 671 133 688 158 698 c 1
 167 698 171 695 171 688 c 2
 171 688 167 648 167 583 c 2
 167 234 l 1
 186 236 213 248 235 265 c 0
 261 284 292 318 315 347 c 0
 320 353 328 364 328 375 c 0
 328 386 320 398 292 398 c 1
 289 401 288 407 288 414 c 0
 288 421 289 428 292 431 c 1
 315 431 352 429 390 429 c 0
 426 429 454 431 477 431 c 1
 480 428 482 421 482 414 c 0
 482 407 480 401 477 398 c 1
 437 398 402 386 372 354 c 2
 284 263 l 2
 280 259 280 257 280 253 c 0
 280 248 283 243 287 239 c 2
 419 73 l 2
 446 39 471 35 505 31 c 1
 508 28 510 21 510 14 c 0
 510 7 508 1 505 -2 c 1
 485 -2 454 -0 423 -0 c 0
 403 -0 381 -2 361 -2 c 0
 358 -2 357 -0 357 3 c 0
 357 14 344 33 315 73 c 2
 242 171 l 2
 230 187 221 196 210 203 c 1
 200 207 186 209 167 209 c 1
 167 122 l 2
 167 39 178 35 219 31 c 1
 222 28 224 21 224 14 c 0
 224 7 222 1 219 -2 c 1
 196 -1 163 -0 128 -0 c 0
 88 -0 54 -1 21 -2 c 1
 18 1 16 7 16 14 c 0
 16 21 18 28 21 31 c 1
 77 35 88 39 88 122 c 2
EndSplineSet
Validated: 1
EndChar

StartChar: l
Encoding: 108 108 33
Width: 266
Flags: W
HStem: -2 33<17.003 80.5 185.5 248.997> 641 30<23.506 83.75>
VStem: 94 78<39.9611 634.264>
LayerCount: 3
Fore
SplineSet
94 122 m 2
 94 559 l 2
 94 634 88 637 30 641 c 1
 25 645 23 655 23 663 c 0
 23 666 23 669 24 671 c 1
 64 674 138 688 164 698 c 1
 172 698 176 695 176 688 c 2
 176 688 172 648 172 583 c 2
 172 122 l 2
 172 39 184 34 244 31 c 1
 248 28 249 21 249 14 c 0
 249 7 248 1 244 -2 c 1
 212 -1 174 -0 134 -0 c 0
 94 -0 56 -1 22 -2 c 1
 18 1 17 7 17 14 c 0
 17 21 18 28 22 31 c 1
 82 34 94 39 94 122 c 2
EndSplineSet
Validated: 1
EndChar

StartChar: n
Encoding: 110 110 34
Width: 566
Flags: W
HStem: -2 33<30.003 90.5404 195.226 247.997 321.003 374.637 479.435 536.997> 385 54<264.655 366.194> 385 28<37.4015 90.4631>
VStem: 104 79<40.3691 331.419 370.116 376.9> 387 79<40.3691 363.48>
LayerCount: 3
Fore
SplineSet
192 358 m 0xb8
 251 426 307 439 356 439 c 0
 391 439 422 427 439 405 c 0
 462 374 466 326 466 271 c 2
 466 122 l 2
 466 40 477 36 533 31 c 1
 536 28 537 21 537 14 c 0
 537 7 536 1 533 -2 c 1
 503 -1 467 0 427 0 c 0
 387 0 355 -1 325 -2 c 1
 322 1 321 7 321 14 c 0
 321 21 322 28 325 31 c 1
 377 36 387 40 387 122 c 2
 387 274 l 2
 387 304 385 331 375 351 c 0
 363 374 342 385 322 385 c 0xd8
 283 385 238 365 200 328 c 0
 192 319 183 307 183 286 c 2
 183 122 l 2
 183 40 193 36 244 31 c 1
 247 28 248 21 248 14 c 0
 248 7 247 1 244 -2 c 1
 214 -1 184 0 144 0 c 0
 104 0 64 -1 34 -2 c 1
 31 1 30 7 30 14 c 0
 30 21 31 28 34 31 c 1
 94 36 104 40 104 122 c 2
 104 317 l 2
 104 375 93 380 39 385 c 1
 37 391 35 407 37 413 c 1
 106 422 132 431 160 442 c 1
 168 442 170 438 172 434 c 0
 177 423 179 385 180 358 c 0
 180 348 186 351 192 358 c 0xb8
EndSplineSet
Validated: 1
EndChar

StartChar: r
Encoding: 114 114 35
Width: 375
Flags: W
HStem: -2 33<22.0058 88.2353 193.674 265.997> 377 62<241.275 323.969> 385 28<34.4015 89.621>
VStem: 101 79<40.3022 324.567 355.498 378.925>
LayerCount: 3
Fore
SplineSet
177 358 m 0xb0
 177 353 182 345 188 356 c 0
 211 395 252 439 299 439 c 0
 341 439 359 410 359 391 c 0
 359 366 336 341 312 341 c 0
 294 341 283 354 276 364 c 0
 268 374 259 377 250 377 c 0xd0
 238 377 215 344 204 328 c 0
 192 310 180 287 180 261 c 2
 180 122 l 2
 180 39 192 31 262 31 c 1
 265 28 266 21 266 14 c 0
 266 7 265 1 262 -2 c 1
 227 -2 181 0 141 0 c 0
 101 0 62 -2 27 -2 c 1
 24 1 22 7 22 14 c 0
 22 21 24 28 27 31 c 1
 89 31 101 39 101 122 c 2
 101 317 l 2
 101 375 90 385 36 385 c 1
 34 391 32 407 34 413 c 1
 103 422 129 431 157 442 c 1
 165 442 167 438 169 434 c 0
 173 423 177 398 177 358 c 0xb0
EndSplineSet
Validated: 1
EndChar

StartChar: s
Encoding: 115 115 36
Width: 368
Flags: W
HStem: 0 33<119.567 234.283> 416 33<147.287 245.66>
VStem: 39 31<94.844 152.964> 53 71<299.261 396.105> 265 76<58.2659 156.32> 287 32<319.039 370.965>
LayerCount: 3
Fore
SplineSet
39 148 m 1xe8
 42 151 49 153 56 153 c 0
 62 153 67 151 70 149 c 1
 83 93 96 33 180 33 c 0
 217 33 265 54 265 103 c 0xe8
 265 146 246 167 163 201 c 0
 86 233 53 264 53 337 c 0
 53 401 120 449 194 449 c 0
 246 449 294 435 325 430 c 1
 325 397 319 360 319 324 c 1
 316 320 308 319 301 319 c 0
 295 319 290 320 287 323 c 1
 274 408 216 416 194 416 c 0
 160 416 124 393 124 352 c 0xd4
 124 297 164 281 224 259 c 0
 292 234 341 194 341 126 c 0
 341 27 238 0 182 0 c 0
 145 0 118 4 91 11 c 0
 84 13 78 13 71 13 c 0
 66 13 56 12 46 10 c 1
 46 52 39 99 39 148 c 1xe8
EndSplineSet
Validated: 1
EndChar

StartChar: uniA64C
Encoding: 42572 42572 38
Width: 1037
GlyphClass: 2
Flags: W
LayerCount: 3
Fore
SplineSet
990 532 m 1
 1015 489 1013 442 981 409 c 1
 981 224 872 4 734 -4 c 1
 717 -37 657 -34 638 -4 c 1
 587 -4 548 5 518 33 c 1
 487 5 449 -4 397 -4 c 1
 379 -34 319 -37 301 -4 c 1
 164 4 54 224 54 409 c 1
 22 442 20 489 46 532 c 1
 19 569 20 629 54 657 c 1
 54 826 103 1011 269 1023 c 0
 334 1027 387 999 438 1018 c 1
 464 993 469 951 448 918 c 1
 505 772 427 758 433 674 c 0
 433 671 432 670 429 670 c 0
 368 675 327 719 316 776 c 1
 272 771 233 832 260 860 c 1
 285 846 306 866 306 880 c 0
 306 901 294 916 272 912 c 1
 217 906 225 780 225 657 c 1
 261 627 269 564 239 529 c 1
 257 484 262 442 225 409 c 1
 225 294 236 141 303 122 c 1
 325 155 376 151 396 120 c 1
 451 131 427 280 358 299 c 1
 353 374 484 354 519 337 c 1
 553 354 685 374 677 299 c 1
 609 280 583 131 639 120 c 1
 659 151 711 155 733 122 c 1
 799 141 810 294 810 409 c 1
 773 442 778 484 797 529 c 1
 766 564 775 627 810 657 c 1
 810 780 819 906 763 912 c 1
 741 916 729 901 729 880 c 0
 729 866 749 846 775 860 c 1
 800 833 763 771 719 776 c 1
 708 719 668 675 606 670 c 0
 604 670 603 671 603 674 c 0
 609 758 530 772 588 918 c 1
 567 951 570 993 596 1018 c 1
 647 999 701 1027 766 1023 c 0
 932 1011 981 826 981 657 c 1
 1015 629 1017 569 990 532 c 1
982 535 m 0
 1009 568 1008 628 974 655 c 1
 974 819 927 1004 766 1015 c 0
 700 1020 648 993 598 1009 c 1
 575 986 574 946 594 919 c 1
 537 774 614 756 610 677 c 1
 665 685 702 726 712 782 c 0
 712 784 714 785 717 784 c 0
 755 774 787 825 773 852 c 1
 744 837 722 862 722 880 c 0
 722 906 737 923 763 919 c 0
 826 910 816 783 816 655 c 1
 781 627 773 563 804 530 c 1
 784 488 781 442 816 412 c 1
 816 292 808 136 733 113 c 0
 730 112 729 113 728 116 c 0
 711 146 658 144 643 114 c 1
 570 120 599 279 671 302 c 1
 673 366 550 345 521 328 c 0
 520 327 518 327 517 328 c 0
 488 345 363 366 364 302 c 1
 437 279 464 116 391 114 c 1
 376 144 325 146 308 116 c 0
 306 113 305 112 303 113 c 0
 228 133 218 292 218 412 c 1
 253 442 250 488 230 530 c 1
 261 563 253 627 218 655 c 1
 218 783 210 913 272 919 c 0
 299 922 314 906 314 880 c 0
 314 862 292 837 262 852 c 1
 248 825 280 774 319 784 c 0
 321 785 323 784 323 782 c 0
 333 726 370 685 425 677 c 1
 422 756 497 774 440 919 c 1
 460 946 460 986 438 1009 c 1
 387 993 336 1020 269 1015 c 0
 108 1004 60 819 60 655 c 1
 26 628 26 568 53 535 c 0
 54 533 56 531 54 530 c 1
 27 490 30 442 60 412 c 1
 60 230 169 7 305 2 c 1
 320 -27 379 -27 392 2 c 1
 444 2 484 12 515 41 c 0
 517 42 519 42 520 41 c 0
 551 12 590 2 642 2 c 1
 655 -27 715 -30 729 2 c 1
 865 7 974 230 974 412 c 1
 1004 442 1008 490 981 530 c 0
 980 531 981 533 982 535 c 0
965 656 m 1
 916 633 861 637 825 656 c 1
 823 734 846 922 762 928 c 0
 735 930 709 917 709 880 c 0
 709 857 730 831 766 838 c 1
 768 806 734 788 697 795 c 1
 693 751 674 698 617 686 c 1
 615 766 545 793 607 921 c 1
 585 941 583 977 599 997 c 1
 657 982 696 1008 765 1005 c 0
 895 1000 965 851 965 656 c 1
991 595 m 0
 993 545 950 511 891 510 c 0
 835 509 793 535 794 585 c 0
 795 613 803 631 824 645 c 1
 857 626 932 623 965 645 c 1
 982 633 990 618 991 595 c 0
970 522 m 1
 996 492 995 441 961 409 c 1
 940 336 852 331 827 412 c 1
 792 445 793 487 813 520 c 1
 845 490 927 485 970 522 c 1
435 998 m 1
 451 978 449 943 427 922 c 1
 489 794 419 767 417 687 c 1
 360 699 341 752 337 796 c 1
 300 789 266 807 268 839 c 1
 304 832 325 858 325 881 c 0
 325 918 299 932 272 929 c 1
 188 923 212 735 209 657 c 1
 174 638 118 634 69 657 c 1
 69 852 139 1002 269 1007 c 0
 338 1009 378 983 435 998 c 1
965 392 m 1
 964 237 859 17 734 10 c 1
 749 27 752 76 735 103 c 1
 810 120 825 280 825 393 c 1
 856 328 931 322 965 392 c 1
727 102 m 0
 741 79 738 34 725 11 c 0
 708 -21 660 -18 649 10 c 1
 666 32 669 79 649 106 c 1
 663 136 707 134 727 102 c 0
240 586 m 0
 241 536 199 510 143 511 c 0
 84 512 41 546 43 596 c 0
 44 619 52 634 69 646 c 1
 102 624 177 627 210 646 c 1
 231 632 239 615 240 586 c 0
660 307 m 1
 626 291 593 236 593 181 c 0
 593 139 610 113 638 103 c 1
 654 86 662 41 638 12 c 1
 593 6 548 21 518 59 c 1
 487 21 444 6 396 12 c 1
 371 36 381 90 394 106 c 1
 429 113 442 140 442 178 c 0
 442 232 417 288 373 307 c 1
 378 356 478 340 519 310 c 1
 559 340 655 359 660 307 c 1
222 521 m 1
 241 488 242 446 207 413 c 1
 182 332 94 337 73 411 c 1
 40 442 38 493 64 524 c 1
 107 487 189 492 222 521 c 1
385 11 m 1
 374 -17 326 -20 309 12 c 0
 297 36 293 80 308 103 c 1
 327 135 371 138 385 107 c 1
 365 80 368 33 385 11 c 1
300 11 m 1
 175 18 70 239 69 393 c 1
 103 323 178 329 209 395 c 1
 209 281 224 122 299 104 c 1
 282 77 285 28 300 11 c 1
902 674 m 0
 905 783 896 959 767 970 c 0
 748 972 729 969 713 962 c 1
 677 956 637 951 627 965 c 0
 623 970 621 970 625 965 c 0
 634 951 665 949 696 954 c 1
 675 941 659 924 652 907 c 0
 622 841 654 791 648 750 c 0
 647 745 649 745 650 750 c 0
 657 791 629 838 659 905 c 0
 663 913 670 923 679 930 c 1
 659 892 676 836 711 828 c 0
 715 827 715 831 711 832 c 0
 677 841 670 912 697 944 c 1
 717 956 740 964 767 962 c 0
 891 951 895 780 895 674 c 0
 895 669 902 669 902 674 c 0
964 467 m 0
 969 472 966 474 961 471 c 0
 934 454 872 452 840 471 c 0
 835 473 834 470 836 467 c 1
 851 455 873 447 895 446 c 1
 895 425 897 398 896 386 c 0
 896 380 902 380 902 386 c 0
 904 398 907 425 909 446 c 1
 931 447 950 455 964 467 c 0
899 313 m 0
 899 320 889 320 889 313 c 0
 878 195 812 79 772 72 c 0
 766 71 768 61 775 63 c 0
 814 69 888 190 899 313 c 0
413 965 m 0
 417 970 414 970 411 965 c 0
 401 951 360 956 325 962 c 1
 309 969 290 972 271 970 c 0
 142 959 133 783 135 674 c 0
 135 669 143 669 143 674 c 0
 143 780 147 951 271 962 c 0
 298 964 321 956 341 944 c 1
 368 912 360 841 327 832 c 0
 322 831 322 827 327 828 c 0
 362 836 379 892 359 930 c 1
 368 923 375 913 379 905 c 0
 408 838 381 791 387 750 c 1
 389 745 391 745 390 750 c 0
 384 791 416 841 386 907 c 0
 379 924 363 941 342 954 c 1
 373 949 403 951 413 965 c 0
202 467 m 1
 204 470 203 473 198 471 c 0
 166 452 103 454 76 471 c 0
 72 474 69 472 74 467 c 0
 88 455 107 447 129 446 c 1
 130 425 134 398 135 386 c 0
 135 380 142 380 142 386 c 0
 140 398 143 425 143 446 c 1
 165 447 187 455 202 467 c 1
266 72 m 0
 226 79 160 195 149 313 c 0
 149 320 139 320 139 313 c 0
 150 190 224 69 263 63 c 1
 269 61 272 71 266 72 c 0
519 146 m 1
 530 102 567 64 631 58 c 0
 637 58 637 67 631 67 c 0
 503 79 493 250 585 289 c 1
 593 291 589 294 583 291 c 0
 550 274 528 243 519 209 c 1
 510 243 488 274 455 291 c 0
 449 294 446 292 453 289 c 0
 543 247 537 80 407 67 c 0
 401 66 401 58 407 58 c 0
 471 64 508 101 519 146 c 1
519 332 m 0
 504 332 493 343 493 358 c 0
 493 372 504 384 519 384 c 0
 534 384 545 372 545 358 c 0
 545 343 534 332 519 332 c 0
519 379 m 0
 508 379 498 369 498 358 c 0
 498 347 508 337 519 337 c 0
 530 337 540 347 540 358 c 0
 540 369 530 379 519 379 c 0
734 731 m 0
 720 731 708 744 708 757 c 0
 708 771 720 783 734 783 c 0
 748 783 760 771 760 757 c 0
 760 744 748 731 734 731 c 0
734 778 m 0
 723 778 713 768 713 757 c 0
 713 746 723 736 734 736 c 0
 745 736 755 746 755 757 c 0
 755 768 745 778 734 778 c 0
301 731 m 0
 288 731 275 744 275 757 c 0
 275 771 288 783 301 783 c 0
 315 783 327 771 327 757 c 0
 327 744 315 731 301 731 c 0
301 778 m 0
 290 778 280 768 280 757 c 0
 280 746 290 736 301 736 c 0
 312 736 322 746 322 757 c 0
 322 768 312 778 301 778 c 0
EndSplineSet
Validated: 37
EndChar

StartChar: y
Encoding: 121 121 39
Width: 533
Flags: W
HStem: -220 80<63.0992 158.973> 410 33<7.00299 55.875 161.827 209.994 332.006 385.417 451.307 502.997>
DStem2: 173 345 90 335 0.397705 -0.917513<-41.4371 243.779> 218 -22 240 -62 0.39682 0.917897<-98.691 21.0397 155.395 438.471>
LayerCount: 3
Fore
SplineSet
200 -148 m 0
 164 -212 124 -220 102 -220 c 0
 76 -220 56 -204 56 -183 c 0
 56 -170 70 -140 100 -140 c 0
 110 -140 114 -143 128 -143 c 0
 154 -143 168 -134 178 -114 c 1
 194 -83 206 -55 218 -22 c 0
 220 -16 221 -8 221 0 c 0
 221 26 210 57 204 72 c 2
 90 335 l 2
 64 396 51 405 12 410 c 1
 8 413 7 420 7 427 c 0
 7 433 8 440 12 443 c 1
 32 443 58 441 92 441 c 0
 128 441 168 443 206 443 c 1
 208 440 210 433 210 427 c 0
 210 420 208 413 206 410 c 1
 172 410 160 400 160 385 c 0
 160 375 165 362 173 345 c 2
 261 137 l 2
 266 127 270 123 274 123 c 0
 278 123 282 128 285 136 c 2
 384 365 l 2
 387 372 389 377 389 382 c 0
 389 403 362 410 336 410 c 1
 334 413 332 420 332 427 c 0
 332 433 334 440 336 443 c 1
 366 443 398 441 428 441 c 0
 456 441 478 443 498 443 c 1
 502 440 503 433 503 427 c 0
 503 420 502 413 498 410 c 1
 452 404 437 388 418 346 c 0
 365 234 320 131 240 -62 c 0
 228 -92 215 -120 200 -148 c 0
EndSplineSet
Validated: 1
EndChar

StartChar: braceleft
Encoding: 123 123 40
Width: 320
Flags: W
HStem: -242 20<258.485 296> 343 20<15 50.6535> 932 20<258.485 296>
VStem: 115 65<-113.81 252.053 449.296 820.952>
LayerCount: 3
Fore
SplineSet
115 56 m 0
 115 247 84 343 21 343 c 0
 19 343 17 343 15 343 c 1
 15 363 l 1
 17 363 19 363 21 363 c 0
 84 363 115 459 115 652 c 0
 115 852 175 952 296 952 c 1
 296 932 l 1
 219 932 180 850 180 686 c 2
 180 646 l 2
 180 484 153 387 99 353 c 1
 153 312 180 213 180 56 c 2
 180 17 l 2
 180 -142 219 -222 296 -222 c 1
 296 -242 l 1
 175 -242 115 -143 115 56 c 0
EndSplineSet
Validated: 1
EndChar

StartChar: bar
Encoding: 124 124 41
Width: 161
Flags: W
VStem: 54 56<-306 1032>
LayerCount: 3
Fore
SplineSet
110 -306 m 1
 54 -324 l 1
 54 1032 l 1
 110 1051 l 1
 110 -306 l 1
EndSplineSet
Validated: 1
EndChar

StartChar: braceright
Encoding: 125 125 42
Width: 302
Flags: W
HStem: -242 20<6 43.5152> 343 20<251.346 287> 932 20<6 43.5152>
VStem: 122 65<-113.81 252.053 449.296 820.952>
LayerCount: 3
Fore
SplineSet
6 -242 m 1
 6 -222 l 1
 83 -222 122 -142 122 17 c 2
 122 56 l 2
 122 213 149 312 203 353 c 1
 149 387 122 484 122 646 c 2
 122 686 l 2
 122 850 83 932 6 932 c 1
 6 952 l 1
 127 952 187 852 187 652 c 0
 187 459 218 363 281 363 c 0
 283 363 285 363 287 363 c 1
 287 343 l 1
 285 343 283 343 281 343 c 0
 218 343 187 247 187 56 c 0
 187 -143 127 -242 6 -242 c 1
EndSplineSet
Validated: 1
EndChar

StartChar: asciitilde
Encoding: 126 126 43
Width: 1229
Flags: W
HStem: 60 62<472.499 751.489> 1107 59<481.133 754.205>
VStem: 61 62<472.569 750.52> 1109 59<477.701 753.53>
DStem2: 245 291 288 247 0.706598 0.707616<0 982.128>
LayerCount: 3
Fore
SplineSet
1168 613 m 0
 1168 309 920 60 614 60 c 0
 310 60 61 308 61 614 c 0
 61 918 310 1166 613 1166 c 1
 617 1166 l 2
 920 1166 1168 917 1168 613 c 0
939 986 m 1
 853 1061 739 1107 616 1107 c 0
 344 1107 123 886 123 615 c 0
 123 490 168 377 245 291 c 1
 939 986 l 1
1109 615 m 0
 1109 741 1061 855 982 943 c 1
 964 924 618 587 288 247 c 1
 374 168 490 122 616 122 c 0
 887 122 1109 343 1109 615 c 0
EndSplineSet
Validated: 1
EndChar

StartChar: afii10017
Encoding: 1040 1040 44
Width: 677
Flags: HW
HStem: -11.9783 5.78026<371.811 430.147 490.979 507.076 571.877 606.271> -9 5<170.293 183.707 265.833 290.963> 259 82.725<466.284 536.585> 300.312 21.6875<224.473 278.275> 332.449 91.3553<202.894 314.506> 351 37<435.873 552.106> 398 58<418.891 567.615> 468 312<421.441 552.928> 727.265 5.98578<279.684 324.458> 790.084 60.9963<423.548 566.325> 837.062 4.99121<344.044 371.074> 852.042 27.086<319.363 377.495> 858 1<289 290.954> 860.178 40.822<442.537 567.622> 868.015 36.7819<236.949 337.258> 889.18 33.854<303.683 376.912> 913 4.94208<272.038 307.761> 931.662 6.69<350.735 389.908> 949 3.62048<435 444.439> 984.767 3.48511<572.327 587.047> 989.505 3.48834<429.023 444.054> 995.882 5.87976<491.868 524.855>
VStem: 112.371 7.73006<309.592 360.07> 128.089 6.89313<400.193 434.627> 161 5<0.28125 10.0343> 166 4<204.585 215> 173 5<472.78 488.403> 178.519 6.79257<858.314 898.98> 188 5<0.260887 9.80357> 199 41.7874<95.6945 142.322> 207 31<215.677 248.414> 217.768 5.08179<783.068 809.234> 236.282 30.1758<784.67 824.352> 248 6<191.572 234.503> 273.825 25.6029<784.182 830.441> 310.337 6.69888<777.428 811.743> 318.165 6.04044<292.998 324.751> 381 28<650.132 650.184 651.013 674.271> 388.75 6.66766<343.415 390.051> 397.189 6.97855<403.984 408.186 768.4 810.775> 404 5<597.165 601 638 652.311> 405.808 80.1918<317.485 346.233> 409.803 5.62494<194.694 313> 414.775 4.34085<963.094 979.901> 420 134<474.883 509 740 770.673> 425 4<279.625 283> 483 5<-2.84025 6.57167> 510 5<-2.84025 6.85793> 553 3<287.334 290> 565 7<196.989 314.744 487.392 764.728> 598.082 2.85779<958.848 972.243> 598.938 6.38196<358.773 401.791 431.974 450.903 808.843 813.278> 607.601 5.84827<876.172 911.589>
LayerCount: 3
Fore
SplineSet
499 14 m 1x00007f38380348
 495 12 488 11 488 4 c 0
 488 -2 493 -7 499 -7 c 0
 505 -7 510 -2 510 4 c 0
 510 6 509 8 509 9 c 1
 505 11 502 12 499 14 c 1x00007f38380348
177 18 m 1
 172 15 166 14 166 7 c 0
 166 1 171 -4 177 -4 c 0x40007fb8380048
 183 -4 188 1 188 7 c 0
 188 9 188 11 187 13 c 1
 183 14 180 16 177 18 c 1
580 985 m 0
 569 985 562 975 562 967 c 0
 562 960 565 954 571 950 c 1
 576 948 580 946 588 949 c 1
 595 953 598 959 598 965 c 0x00007f38380068
 598 975 590 985 580 985 c 0
579 988 m 0
 589 988 601 982 601 968 c 0x40a0ffb9391368
 601 957 596 946 584 944 c 1
 603 933 613 915 613 894 c 0
 613 877 607 859 591 842 c 1
 599 832 603 821 603 811 c 0
 603 793 592 775 572 763 c 1
 572 489 l 1
 589 481 603 462 603 442 c 0
 603 434 601 426 596 418 c 1
 602 405 605 392 605 379 c 0
 605 351 591 326 570 311 c 1
 570 192 577 76 647 10 c 0
 648 10 648 9 648 8 c 0
 648 7 647 6 645 5 c 0
 630 -5 611 -10 590 -10 c 0
 567 -10 541 -5 514 7 c 1
 515 5 515 4 515 2 c 0
 515 -6 508 -12 499 -12 c 0
 491 -12 483 -6 483 2 c 0
 483 4 483 5 484 7 c 1
 456 -5 426 -12 398 -12 c 0x80a0ff38380358
 373 -12 351 -6 337 7 c 0
 337 7 337 8 336 8 c 1
 336 7 l 0
 323 -3 302 -8 278 -8 c 0
 250 -8 218 -2 193 10 c 1
 193 9 193 7 193 6 c 0
 193 -2 186 -9 177 -9 c 0
 168 -9 161 -2 161 6 c 0
 161 7 161 9 162 10 c 1
 138 -1 111 -7 87 -7 c 0
 65 -7 45 -2 31 10 c 0
 30 10 29 12 29 12 c 0
 29 14 30 14 31 15 c 0
 109 77 150 162 155 252 c 1
 128 271 112 305 112 336 c 0
 112 357 120 378 135 391 c 1
 130 399 128 408 128 417 c 0
 128 442 144 469 173 473 c 1
 171 541 251 626 316 676 c 0
 357 709 397 737 397 793 c 0
 397 814 383 837 358 837 c 0
 337 837 317 822 317 794 c 0
 317 773 331 755 350 745 c 0
 353 744 353 741 350 740 c 0
 334 731 316 727 300 727 c 0
 256 727 218 756 218 795 c 0
 218 799 218 803 219 807 c 1
 190 831 179 857 179 880 c 0
 179 917 208 948 240 950 c 1
 245 930 267 918 288 918 c 0
 322 918 342 938 370 938 c 0
 380 938 392 936 407 928 c 1
 411 938 419 946 430 950 c 1
 421 954 415 963 415 973 c 0x40a0ffb9391358
 415 985 427 993 438 993 c 0
 448 993 457 987 458 975 c 1
 469 992 488 1002 508 1002 c 0
 527 1002 546 992 558 972 c 1
 559 983 569 988 579 988 c 0
109 22 m 0
 112 25 113 28 113 31 c 0
 113 36 109 42 104 42 c 0
 102 42 99 41 97 39 c 0
 86 32 101 16 109 22 c 0
259 25 m 1
 266 18 277 21 277 30 c 0
 277 36 273 41 267 41 c 0
 259 41 254 33 259 25 c 1
243 48 m 0
 220 68 201 103 199 141 c 0x00007f3c380048
 199 147 192 149 189 142 c 0
 177 106 155 65 127 47 c 0
 119 42 123 41 129 44 c 0
 150 55 166 69 181 96 c 0
 186 104 189 111 192 118 c 1
 199 82 218 61 241 44 c 0
 248 39 249 42 243 48 c 0
404 25 m 1x00007f38388048
 411 18 422 20 422 30 c 0
 422 35 417 42 412 42 c 0
 405 42 399 33 404 25 c 1x00007f38388048
278 296 m 0
 284 297 282 304 275 302 c 0
 267 301 259 300 252 300 c 0
 208 300 184 318 160 339 c 0
 155 344 150 340 155 336 c 0
 170 320 186 305 207 296 c 1
 201 273 200 258 200 235 c 0
 200 229 200 223 200 216 c 0
 200 209 207 209 207 216 c 0x10007f3a380048
 209 251 210 265 216 294 c 1
 224 291 232 290 241 290 c 0
 253 290 265 293 278 296 c 0
565 25 m 1
 572 18 583 21 583 30 c 0
 583 36 579 41 573 41 c 0
 565 41 560 33 565 25 c 1
552 52 m 0
 519 89 505 162 498 226 c 0
 497 232 486 231 486 225 c 0x00007f38384048
 481 162 469 90 438 55 c 0
 433 50 433 45 438 50 c 0
 465 77 486 131 493 184 c 1
 503 131 521 80 549 48 c 0
 554 43 557 47 552 52 c 0
557 366 m 0
 562 371 558 374 553 370 c 0
 537 356 514 351 492 351 c 1
 471 353 451 356 436 369 c 0
 431 374 428 371 433 366 c 0
 446 351 465 344 486 342 c 1
 486 290 l 2
 486 283 497 283 497 290 c 2
 497 342 l 1
 499 342 501 342 503 342 c 0x24007f383840c8
 524 342 542 351 557 366 c 0
404 601 m 1x00007f38388048
 404 638 l 1
 370 578 293 527 279 440 c 1
 328 472 383 542 404 601 c 1x00007f38388048
381 666 m 0x00007f383c0048
 386 672 377 680 372 674 c 0
 315 599 266 586 227 479 c 0
 225 472 235 467 237 474 c 0
 275 581 323 594 381 666 c 0x00007f383c0048
495 509 m 2
 495 740 l 2
 495 747 484 747 484 740 c 2
 484 509 l 2
 484 501 495 501 495 509 c 2
274 797 m 0
 274 845 316 879 361 879 c 0
 367 879 372 878 376 877 c 0
 382 875 380 885 374 887 c 0
 370 889 365 889 359 889 c 0x01117f38b80048
 323 889 315 868 276 868 c 0
 259 868 243 873 231 890 c 0
 226 896 225 894 229 886 c 0
 237 866 260 859 284 859 c 0
 286 859 287 859 289 859 c 0
 290 859 290 859 291 859 c 1
 290 859 290 858 289 858 c 0
 274 847 266 827 266 808 c 0
 266 795 270 783 278 776 c 0
 284 769 283 773 278 780 c 0x010a7f38b80048
 275 784 274 790 274 797 c 0
568 889 m 0
 557 900 533 911 513 912 c 1
 511 950 l 2
 511 956 505 956 505 950 c 2
 503 912 l 1
 478 911 457 903 443 889 c 0
 438 884 438 879 444 882 c 0
 466 896 483 901 508 901 c 0x00047f38380048
 527 901 551 892 565 882 c 1
 572 879 573 884 568 889 c 0
312 12 m 1
 300 9 287 7 275 7 c 0
 237 7 201 21 177 38 c 1
 152 22 117 8 85 8 c 0
 74 8 64 10 54 14 c 1
 107 54 155 128 166 217 c 0
 167 217 168 215 170 215 c 1
 171 193 183 173 196 164 c 1
 219 175 232 190 240 215 c 0
 241 215 240 219 241 219 c 1
 241 215 241 211 241 208 c 0x00007f7c380048
 241 132 269 59 312 12 c 1
305 297 m 0
 296 268 272 256 238 243 c 1
 237 222 220 186 197 175 c 1
 179 192 173 227 171 259 c 1x20007f3a380048
 149 279 132 304 132 338 c 0
 132 340 132 342 132 344 c 0
 132 358 143 375 154 375 c 0
 157 375 159 374 162 371 c 0
 177 356 193 344 220 334 c 0
 252 323 280 322 302 322 c 1x10007f3a380048
 308 312 308 309 305 297 c 0
621 10 m 1
 609 6 597 4 585 4 c 0
 554 4 523 17 499 32 c 1
 469 17 438 3 404 3 c 0
 390 3 375 5 360 11 c 1
 422 91 425 181 425 262 c 0
 425 269 425 276 425 283 c 1
 427 283 428 284 429 284 c 0
 436 265 462 250 489 250 c 0
 519 250 541 261 553 290 c 0
 554 290 554 290 556 290 c 1x00007f383804c8
 556 194 558 98 621 10 c 1
408 479 m 2
 408 459 407 444 397 425 c 0
 379 390 357 365 328 345 c 0
 315 336 299 332 282 332 c 0
 225 332 172 367 151 401 c 0
 147 407 145 413 145 419 c 0
 145 441 166 459 182 459 c 0
 183 459 183 459 184 459 c 0
 199 447 232 424 265 424 c 0x08007f38380048
 275 424 285 425 291 429 c 0
 341 457 382 521 408 571 c 1
 408 479 l 2
588 380 m 0
 586 354 577 333 553 317 c 1
 546 281 522 259 489 259 c 0
 456 259 434 283 427 317 c 1
 416 327 406 350 406 375 c 0
 406 387 408 399 414 411 c 1
 428 398 463 388 497 388 c 0x24007f383840c8
 530 388 559 395 580 409 c 1
 586 399 588 391 588 380 c 0
411 649 m 2
 409 600 l 1
 387 540 323 449 274 434 c 1
 283 533 374 584 404 650 c 0x00007f38388048
 406 654 411 653 411 649 c 2
409 667 m 1x01007f383c0048
 359 578 283 552 264 433 c 1
 237 437 207 452 188 468 c 1
 188 543 267 616 326 662 c 0
 363 692 392 717 409 763 c 1x01007f38388048
 409 667 l 1x01007f383c0048
586 445 m 1
 585 425 579 419 568 414 c 0
 547 404 521 398 497 398 c 0
 461 398 431 411 409 426 c 1
 414 437 419 456 418 471 c 1
 440 460 462 456 492 456 c 0x02007f38388048
 519 456 538 461 559 476 c 1
 575 473 588 459 586 445 c 1
554 484 m 1x01007f38380848
 531 472 516 468 491 468 c 0
 462 468 446 471 420 484 c 1
 420 757 l 1
 435 772 462 780 491 780 c 0
 516 780 533 773 554 758 c 1
 554 484 l 1x01007f38380848
285 905 m 0x00027f38b80048
 319 905 346 923 374 923 c 0
 385 923 396 920 407 912 c 1
 404 904 403 895 403 886 c 0
 403 871 407 855 417 842 c 1
 413 838 408 832 406 826 c 1
 398 838 380 852 359 852 c 0x00117f38b80048
 328 852 299 831 299 795 c 0
 299 775 310 757 323 746 c 1
 315 743 307 741 300 741 c 0
 266 741 236 769 236 799 c 0
 236 806 238 813 241 820 c 1
 209 830 196 854 196 878 c 0
 196 902 209 925 230 933 c 1
 237 917 259 905 285 905 c 0x00027f38b80048
494 851 m 0x00407f38380848
 531 851 585 845 585 812 c 0
 585 791 572 778 554 771 c 1
 540 780 516 790 489 790 c 0
 462 790 438 782 420 772 c 1
 414 780 410 792 410 802 c 0
 410 805 411 808 412 811 c 0
 423 842 459 851 494 851 c 0x00407f38380848
573 847 m 1
 551 855 523 860 495 860 c 0
 470 860 445 856 425 848 c 1x00047f38380448
 417 858 413 873 413 888 c 0
 413 914 426 941 459 941 c 0
 459 941 460 941 461 941 c 0
 470 973 489 987 507 987 c 0
 527 987 547 970 552 943 c 1
 585 934 597 914 597 894 c 0
 597 876 587 857 573 847 c 1
358 842 m 0x84a0ffb97aa058
 388 842 404 821 404 795 c 0x84a0ff39390048
 404 740 365 706 321 671 c 0
 256 621 178 543 178 467 c 1
 151 464 135 439 135 417 c 0
 135 408 138 399 143 393 c 0
 144 392 144 390 143 388 c 0
 127 376 120 356 120 336 c 0
 120 305 135 272 161 254 c 1
 156 164 116 77 38 12 c 1
 51 3 67 -1 86 -1 c 0
 115 -1 150 9 177 25 c 1
 204 8 245 -2 279 -2 c 0
 299 -2 317 2 328 10 c 1
 268 71 249 157 248 237 c 1
 283 247 318 276 318 310 c 0
 318 315 317 320 316 325 c 1
 344 340 387 382 397 411 c 0
 398 414 403 412 402 408 c 0
 398 392 395 379 395 367 c 0
 395 347 401 331 414 313 c 1
 415 295 415 276 415 259 c 0
 415 158 399 66 344 10 c 1
 357 -1 376 -6 398 -6 c 0
 427 -6 459 2 488 13 c 1
 491 16 495 18 499 18 c 0
 504 18 508 16 511 13 c 1
 539 2 566 -5 591 -5 c 0
 609 -5 625 -1 639 7 c 1
 572 76 564 192 564 313 c 1
 584 326 599 352 599 381 c 0
 599 393 596 406 590 418 c 1
 595 425 597 433 597 441 c 0
 597 460 582 480 565 487 c 1
 565 766 l 1
 585 777 596 794 596 811 c 0
 596 821 592 831 584 839 c 0
 583 841 583 843 584 844 c 0
 600 860 608 878 608 894 c 0
 608 920 590 942 561 949 c 1
 554 981 531 996 508 996 c 0
 485 996 462 980 454 949 c 1
 435 949 414 939 409 921 c 1
 394 929 382 932 371 932 c 0
 343 932 323 913 291 913 c 0
 268 913 242 923 236 945 c 1
 210 939 185 912 185 879 c 0
 185 857 196 833 224 811 c 1
 223 807 223 803 223 799 c 0
 223 761 260 733 302 733 c 0
 316 733 330 736 343 742 c 1
 325 754 310 772 310 794 c 0
 310 824 333 842 358 842 c 0x84a0ffb97aa058
437 990 m 0
 425 990 419 980 419 971 c 0x00007f38381048
 419 962 426 953 437 953 c 1
 443 954 447 955 451 958 c 1
 452 963 454 967 456 971 c 1
 456 980 447 990 437 990 c 0
336 11 m 1
 337 12 337 12 337 12 c 0
 396 68 410 162 410 266 c 0
 410 281 410 296 409 311 c 1
 396 330 389 345 389 365 c 0
 389 371 390 378 391 386 c 1
 375 361 345 336 322 322 c 1
 324 316 324 311 324 306 c 0
 324 270 290 244 254 234 c 1x10007f387aa048
 256 156 273 71 336 12 c 0
 336 12 336 12 336 11 c 1
EndSplineSet
EndChar

StartChar: afii10018
Encoding: 1041 1041 45
Width: 758
Flags: W
LayerCount: 3
Fore
SplineSet
652 831 m 0
 648 821 637 807 622 803 c 1
 619 801 616 806 620 807 c 0
 632 812 643 824 647 833 c 1
 649 843 638 865 626 871 c 0
 624 873 626 877 629 876 c 0
 643 870 657 843 652 831 c 0
411 864 m 1
 397 848 374 847 367 860 c 0
 366 863 366 866 367 869 c 1
 385 891 385 934 359 971 c 1
 369 985 396 983 409 971 c 0
 420 960 439 900 411 864 c 1
605 857 m 0
 601 847 595 842 594 835 c 1
 600 830 611 822 604 801 c 0
 579 731 559 696 559 610 c 0
 559 602 551 600 547 602 c 0
 507 626 485 677 474 731 c 1
 460 736 412 785 426 795 c 1
 449 790 465 795 470 807 c 0
 480 831 445 853 426 864 c 1
 443 892 445 932 422 974 c 1
 438 983 455 978 469 966 c 0
 501 937 545 924 593 934 c 1
 615 916 615 886 605 857 c 0
470 677 m 0
 454 677 429 691 423 705 c 0
 421 712 421 734 431 747 c 0
 433 750 437 747 436 745 c 0
 428 731 426 714 428 708 c 0
 434 696 456 683 470 683 c 0
 474 683 474 677 470 677 c 0
353 865 m 1
 334 862 319 837 316 820 c 1
 239 863 171 846 122 817 c 1
 106 821 94 849 95 873 c 0
 96 897 117 921 155 939 c 1
 174 971 198 981 222 981 c 0
 236 981 254 962 265 941 c 0
 266 938 271 937 275 940 c 0
 292 954 321 969 343 967 c 1
 367 935 372 890 353 865 c 1
172 981 m 0
 176 978 172 974 169 976 c 0
 154 986 127 991 116 978 c 1
 104 967 104 940 109 928 c 0
 110 924 105 923 104 925 c 0
 96 940 99 970 111 983 c 1
 125 996 157 993 172 981 c 0
322 783 m 0
 324 767 316 751 306 739 c 0
 303 735 298 735 292 737 c 0
 250 757 206 766 164 730 c 0
 158 725 150 725 144 728 c 0
 122 739 110 783 128 798 c 1
 165 826 189 831 220 831 c 0
 273 831 320 814 322 783 c 0
617 838 m 1
 638 824 612 773 600 736 c 0
 583 682 573 635 576 582 c 0
 576 575 570 575 562 578 c 0
 493 599 466 662 458 720 c 1
 423 745 381 799 412 814 c 1
 477 796 453 832 420 848 c 1
 405 831 373 827 353 846 c 1
 343 838 337 825 336 811 c 1
 347 776 334 742 310 715 c 1
 310 580 l 1
 304 580 l 1
 304 718 l 1
 329 742 340 776 331 810 c 1
 329 827 341 844 353 852 c 1
 373 835 406 837 417 854 c 1
 465 833 484 791 412 809 c 1
 392 795 432 746 463 725 c 1
 474 666 497 602 565 582 c 0
 567 582 571 580 571 582 c 0
 566 635 578 682 595 739 c 0
 606 776 632 824 611 836 c 0
 609 837 609 838 610 841 c 1
 627 862 635 932 597 944 c 1
 587 946 529 927 476 975 c 0
 455 993 436 992 416 982 c 1
 399 996 374 996 347 981 c 1
 318 976 297 972 273 956 c 1
 246 998 197 1011 146 949 c 1
 96 925 53 863 112 804 c 1
 102 782 105 757 115 744 c 1
 96 726 84 697 85 674 c 1
 89 631 112 584 155 549 c 0
 187 524 213 511 245 493 c 0
 281 472 309 459 331 447 c 0
 332 447 495 365 503 329 c 1
 474 316 470 275 480 267 c 0
 481 265 481 263 480 262 c 0
 464 242 466 215 474 204 c 1
 466 178 445 168 421 167 c 1
 402 184 368 195 345 177 c 1
 342 176 341 176 340 178 c 0
 332 203 314 229 306 247 c 1
 345 267 379 328 332 371 c 1
 340 386 343 404 339 424 c 0
 339 426 343 426 345 425 c 1
 351 406 347 388 340 374 c 1
 385 327 353 264 313 245 c 1
 322 227 335 208 343 184 c 1
 370 202 404 192 423 173 c 1
 444 175 459 183 467 204 c 1
 460 215 456 242 474 264 c 1
 465 279 466 316 496 331 c 1
 484 362 330 441 329 442 c 0
 306 454 278 467 243 488 c 1
 211 506 179 524 147 549 c 1
 104 585 83 626 79 676 c 0
 78 699 89 725 107 745 c 1
 99 758 94 780 105 803 c 1
 45 866 90 930 142 954 c 1
 197 1020 245 1005 275 965 c 1
 297 977 315 981 346 986 c 1
 374 1003 399 1003 418 988 c 1
 439 999 459 999 481 980 c 1
 531 932 589 951 599 949 c 1
 638 937 635 864 617 838 c 1
291 591 m 1
 246 619 201 635 168 679 c 1
 168 714 l 1
 198 737 234 749 291 723 c 1
 291 591 l 1
631 317 m 1
 593 305 544 306 519 328 c 1
 500 382 359 445 247 504 c 0
 177 541 99 599 96 675 c 0
 95 698 106 717 115 730 c 1
 120 724 131 714 139 709 c 1
 121 639 225 594 293 562 c 1
 322 547 414 524 439 520 c 0
 493 512 498 509 584 510 c 1
 597 493 617 435 584 397 c 0
 581 393 583 386 588 385 c 0
 616 375 637 347 631 317 c 1
645 297 m 0
 656 283 665 256 632 242 c 0
 594 227 526 227 498 264 c 0
 484 284 482 301 498 310 c 0
 504 313 511 316 518 311 c 0
 541 295 590 290 629 300 c 0
 635 301 642 301 645 297 c 0
668 147 m 0
 662 134 656 134 645 131 c 0
 640 130 626 127 621 123 c 0
 592 98 562 101 536 152 c 1
 534 159 528 162 520 168 c 0
 511 176 504 184 496 189 c 0
 491 193 490 197 487 202 c 0
 482 214 481 225 487 237 c 0
 490 243 500 245 504 241 c 1
 544 217 606 206 653 235 c 0
 656 236 659 237 661 235 c 0
 684 203 679 173 668 147 c 0
716 28 m 0
 718 -25 598 -12 542 42 c 1
 509 16 474 0 420 14 c 1
 401 -6 353 -7 330 20 c 1
 306 16 272 16 234 32 c 1
 196 5 163 -5 112 -6 c 1
 80 -9 24 10 46 42 c 0
 93 109 128 156 131 246 c 1
 78 285 79 343 107 376 c 1
 85 418 109 455 149 474 c 1
 149 535 l 1
 155 535 l 1
 155 471 l 1
 115 452 93 415 115 375 c 1
 88 344 84 286 138 248 c 1
 136 155 99 106 51 39 c 0
 32 14 83 -1 112 -1 c 0
 160 0 195 10 234 38 c 1
 272 22 308 22 334 25 c 1
 355 0 401 1 417 20 c 1
 471 6 509 22 540 49 c 0
 541 50 544 50 545 49 c 0
 597 -5 711 -17 710 27 c 0
 709 53 691 91 674 127 c 1
 701 173 694 224 668 257 c 1
 674 284 662 302 645 317 c 1
 649 348 630 381 601 397 c 1
 629 440 612 482 595 522 c 1
 514 510 364 542 295 571 c 1
 269 584 220 610 200 624 c 0
 171 644 150 666 149 694 c 0
 149 698 154 698 154 694 c 0
 155 669 176 649 202 629 c 1
 223 615 273 587 299 576 c 0
 367 548 519 515 599 530 c 1
 620 488 636 440 608 398 c 1
 636 381 656 351 649 321 c 1
 667 304 680 286 674 258 c 1
 701 222 707 170 681 127 c 1
 699 90 715 54 716 28 c 0
305 441 m 1
 260 419 191 430 168 463 c 1
 168 519 l 1
 203 490 260 460 305 441 c 1
696 37 m 0
 702 12 676 11 667 11 c 0
 611 11 592 30 554 59 c 0
 549 63 544 65 539 61 c 0
 524 52 480 14 429 31 c 0
 428 31 426 32 427 33 c 0
 449 61 449 124 427 154 c 1
 448 155 480 177 481 186 c 1
 487 177 503 162 517 154 c 1
 520 151 520 149 522 146 c 0
 542 111 567 72 622 104 c 0
 637 113 648 118 659 119 c 0
 662 119 665 119 667 117 c 0
 679 96 690 61 696 37 c 0
321 423 m 0
 341 402 320 372 303 360 c 0
 259 328 175 338 139 370 c 0
 117 390 101 423 147 450 c 0
 150 452 154 451 157 449 c 0
 208 407 269 408 305 425 c 0
 311 428 316 428 321 423 c 0
579 21 m 1
 579 21 541 -4 529 4 c 0
 513 14 525 34 525 34 c 1
 535 41 l 1
 535 41 522 16 530 11 c 0
 544 4 573 25 573 25 c 1
 579 21 l 1
332 354 m 0
 350 327 343 302 327 285 c 1
 310 265 298 258 275 243 c 0
 271 241 270 239 269 235 c 0
 254 206 194 205 174 241 c 0
 174 242 170 246 169 246 c 0
 158 250 148 256 138 263 c 0
 105 285 94 329 121 355 c 0
 125 359 131 356 134 354 c 0
 202 309 276 323 319 355 c 1
 321 358 330 358 332 354 c 0
418 145 m 1
 438 91 429 58 411 33 c 0
 407 28 391 18 385 17 c 0
 374 16 359 18 348 28 c 0
 345 32 343 37 346 41 c 0
 364 65 374 101 358 156 c 0
 356 165 361 171 366 172 c 0
 379 175 385 176 399 167 c 0
 405 164 416 154 418 145 c 1
346 152 m 0
 358 117 350 70 329 43 c 0
 327 41 325 39 322 39 c 0
 298 34 272 38 249 49 c 0
 241 53 235 53 228 48 c 0
 200 27 131 -1 73 17 c 0
 57 22 60 36 67 43 c 0
 111 89 138 155 149 237 c 0
 149 240 153 239 155 239 c 0
 158 239 160 235 160 234 c 0
 180 195 257 182 282 229 c 0
 283 232 289 236 294 236 c 0
 297 236 298 236 299 234 c 0
 318 204 319 186 334 162 c 0
 336 159 337 160 340 157 c 0
 342 155 346 154 346 152 c 0
266 27 m 1
 265 22 264 18 262 15 c 1
 260 7 256 4 250 2 c 1
 243 2 236 2 229 5 c 0
 224 7 218 11 209 18 c 1
 209 18 209 20 209 22 c 0
 209 23 211 23 213 22 c 0
 219 17 225 14 232 10 c 1
 238 9 243 9 249 7 c 0
 251 7 254 10 257 17 c 0
 257 18 259 21 261 27 c 1
 266 27 l 1
581 886 m 1
 590 894 589 897 577 889 c 1
 570 882 559 879 549 877 c 1
 531 877 514 881 500 889 c 1
 490 900 477 907 464 913 c 1
 459 917 456 905 461 902 c 0
 479 892 495 880 504 865 c 1
 506 864 l 1
 514 844 513 821 504 796 c 0
 500 784 479 774 460 779 c 1
 449 783 448 778 459 776 c 1
 485 766 506 780 513 793 c 0
 519 803 523 814 524 824 c 1
 528 810 528 798 528 782 c 1
 524 749 517 728 523 693 c 1
 524 679 528 670 531 661 c 0
 535 648 541 649 536 662 c 0
 533 671 531 681 530 693 c 0
 529 728 539 752 540 783 c 1
 545 817 534 848 514 871 c 1
 526 866 538 865 549 869 c 1
 563 870 573 877 581 886 c 1
324 900 m 0
 327 903 331 907 320 900 c 1
 316 895 308 889 297 885 c 0
 292 884 284 884 273 884 c 0
 269 884 259 887 246 891 c 0
 235 895 225 896 217 897 c 1
 217 914 217 930 220 944 c 0
 220 945 218 948 216 949 c 1
 213 949 213 950 212 946 c 0
 209 934 208 918 207 897 c 1
 194 897 182 895 168 890 c 0
 154 886 141 879 123 865 c 0
 123 864 125 860 128 858 c 1
 142 868 155 875 171 881 c 0
 186 886 198 887 211 887 c 0
 220 887 234 886 249 881 c 0
 261 877 271 876 273 876 c 0
 297 874 314 886 324 900 c 0
236 642 m 1
 236 692 l 2
 236 698 225 698 225 692 c 2
 225 645 l 1
 236 642 l 1
566 345 m 0
 546 409 490 436 449 452 c 1
 471 446 490 446 507 449 c 1
 528 450 547 461 555 470 c 0
 559 474 557 478 554 474 c 0
 544 465 520 459 506 457 c 1
 485 457 423 463 384 482 c 1
 324 509 283 532 232 558 c 0
 165 592 114 644 123 693 c 1
 126 699 121 702 120 696 c 0
 105 644 159 586 228 552 c 0
 281 525 318 505 377 476 c 1
 401 463 422 455 441 445 c 0
 475 429 542 399 562 344 c 0
 565 338 567 339 566 345 c 0
649 202 m 0
 648 203 645 198 642 197 c 1
 632 187 612 187 586 186 c 0
 566 186 544 190 515 211 c 0
 513 213 512 213 509 211 c 0
 509 210 509 209 512 206 c 0
 525 192 538 189 549 182 c 1
 560 177 566 176 578 175 c 1
 581 170 582 160 582 149 c 1
 579 141 582 136 582 134 c 0
 581 131 581 130 583 128 c 1
 586 128 587 129 588 131 c 0
 590 136 592 146 592 161 c 0
 592 166 590 170 589 175 c 1
 600 175 610 176 621 179 c 0
 631 182 640 187 646 194 c 0
 647 195 651 200 649 202 c 0
653 58 m 0
 656 59 653 63 651 61 c 0
 631 49 538 75 493 129 c 0
 491 131 480 124 481 120 c 0
 486 100 487 67 477 59 c 0
 474 56 477 52 480 55 c 0
 489 65 497 86 495 108 c 1
 542 59 635 47 653 58 c 0
311 317 m 0
 314 320 311 322 306 320 c 1
 299 312 287 305 270 295 c 1
 254 288 239 288 224 288 c 0
 197 288 170 295 143 317 c 0
 142 318 133 326 139 313 c 1
 154 301 165 292 177 286 c 1
 190 281 202 275 217 275 c 1
 222 240 l 2
 223 240 224 240 228 241 c 1
 229 275 l 1
 244 275 259 280 275 289 c 0
 293 299 303 307 311 317 c 0
305 91 m 1
 305 93 304 93 303 95 c 1
 283 101 269 111 255 123 c 0
 243 134 238 147 233 159 c 1
 230 170 225 172 222 173 c 0
 219 173 214 168 212 154 c 1
 209 141 205 125 189 104 c 0
 174 85 158 72 142 63 c 0
 141 63 137 60 137 58 c 0
 137 56 138 56 141 56 c 1
 157 64 175 75 194 97 c 0
 211 118 219 131 223 150 c 1
 223 150 223 150 225 147 c 0
 230 134 236 129 249 117 c 0
 261 106 278 97 302 91 c 0
 303 91 304 90 305 91 c 1
EndSplineSet
Validated: 37
EndChar

StartChar: afii10019
Encoding: 1042 1042 46
Width: 766
Flags: W
LayerCount: 3
Fore
SplineSet
721 26 m 0
 721 2 699 -10 672 -10 c 0
 609 -9 586 12 549 39 c 1
 528 33 501 33 487 36 c 1
 472 18 454 -2 420 6 c 1
 391 -21 357 -15 327 15 c 1
 295 15 276 15 241 30 c 1
 219 14 170 -12 115 -10 c 0
 67 -9 34 17 50 37 c 0
 99 98 139 177 136 242 c 1
 88 275 80 332 114 371 c 1
 88 419 119 455 154 470 c 1
 154 701 l 1
 106 729 94 760 111 798 c 1
 95 815 79 837 82 864 c 1
 84 907 112 932 148 950 c 1
 168 974 189 994 224 994 c 0
 247 994 265 982 280 959 c 1
 303 969 331 970 350 972 c 1
 374 1000 414 1002 438 983 c 1
 482 1009 534 985 559 932 c 1
 603 916 643 897 676 851 c 1
 717 807 695 771 685 754 c 1
 713 707 689 635 619 608 c 1
 599 554 540 522 495 520 c 1
 448 516 409 532 357 563 c 1
 415 504 492 465 592 515 c 1
 637 483 632 433 612 393 c 1
 638 377 656 353 653 316 c 1
 668 300 679 289 679 251 c 1
 687 237 700 216 701 192 c 1
 705 166 692 145 685 125 c 1
 694 107 721 52 721 26 c 0
715 26 m 0
 715 52 687 108 680 125 c 1
 687 145 696 166 695 192 c 0
 694 214 681 236 673 250 c 1
 673 285 663 299 648 312 c 1
 649 349 631 376 606 392 c 1
 625 429 632 479 592 509 c 1
 481 452 397 510 335 576 c 0
 332 579 335 584 339 581 c 0
 400 545 442 524 495 525 c 1
 538 527 595 560 614 613 c 1
 681 639 706 709 679 754 c 1
 689 769 711 807 672 847 c 1
 638 891 599 912 554 928 c 1
 529 978 479 1003 436 977 c 1
 415 994 374 994 352 967 c 1
 335 965 300 962 277 951 c 1
 262 974 246 988 224 988 c 0
 191 988 169 969 152 945 c 1
 119 927 90 902 88 862 c 1
 88 836 102 815 119 800 c 1
 102 763 114 731 159 703 c 1
 159 466 l 1
 126 452 94 417 120 370 c 1
 88 333 96 275 142 245 c 1
 141 162 105 100 56 36 c 0
 42 18 72 -4 115 -5 c 1
 169 -5 219 20 241 36 c 1
 277 20 297 21 330 21 c 1
 357 -7 391 -14 417 12 c 1
 448 4 471 23 484 41 c 1
 497 38 529 42 549 45 c 1
 587 18 611 -4 672 -5 c 0
 694 -5 715 5 715 26 c 0
651 837 m 1
 626 803 561 785 524 801 c 1
 524 807 520 811 517 812 c 1
 545 839 557 876 559 911 c 1
 598 902 640 873 651 837 c 1
542 916 m 1
 545 870 520 832 491 811 c 1
 470 805 453 809 442 817 c 0
 439 820 437 822 439 826 c 0
 460 858 472 908 449 960 c 0
 448 964 445 965 449 969 c 0
 479 993 535 957 542 916 c 1
674 822 m 0
 690 801 676 777 664 760 c 1
 621 720 544 705 495 745 c 0
 480 756 484 780 496 795 c 1
 517 782 604 761 658 822 c 0
 662 827 670 827 674 822 c 0
428 967 m 0
 455 921 454 862 425 830 c 0
 410 814 373 814 366 827 c 0
 364 830 364 832 366 835 c 0
 384 857 392 925 367 962 c 1
 368 981 420 982 428 967 c 0
673 732 m 0
 697 681 625 605 575 631 c 1
 531 601 515 602 512 662 c 1
 493 670 475 687 480 707 c 0
 481 713 480 717 485 721 c 0
 489 725 492 728 497 725 c 0
 545 702 604 694 659 737 c 0
 665 742 670 737 673 732 c 0
480 737 m 0
 466 724 459 697 475 674 c 1
 433 639 343 670 315 721 c 1
 342 736 357 778 335 804 c 0
 334 806 334 807 336 809 c 0
 342 812 345 816 350 821 c 0
 351 822 353 822 355 821 c 0
 375 799 407 804 423 814 c 1
 433 803 454 793 475 791 c 1
 470 779 469 757 480 742 c 0
 481 741 481 739 480 737 c 0
353 954 m 1
 377 922 369 864 351 839 c 1
 341 837 327 830 321 816 c 1
 244 859 176 842 127 814 c 1
 111 817 99 846 100 869 c 0
 101 894 122 917 160 935 c 1
 179 967 203 977 227 977 c 0
 241 977 259 959 270 938 c 0
 271 934 275 934 280 937 c 0
 302 948 337 951 353 954 c 1
600 611 m 1
 587 574 533 536 485 537 c 0
 432 538 374 567 309 622 c 1
 309 705 l 1
 331 672 401 619 485 661 c 1
 501 651 l 1
 500 618 515 568 576 616 c 1
 600 611 l 1
334 774 m 1
 332 758 325 745 313 735 c 0
 309 731 305 731 299 734 c 0
 257 754 211 761 169 725 c 0
 163 720 155 721 149 724 c 0
 127 735 115 779 133 794 c 1
 170 822 194 827 225 827 c 0
 278 827 335 805 334 774 c 1
636 313 m 1
 601 306 577 304 550 309 c 0
 540 310 534 317 524 323 c 1
 509 379 390 406 309 485 c 1
 309 590 l 1
 357 524 458 440 582 489 c 0
 584 490 584 490 587 489 c 1
 619 465 612 414 590 395 c 0
 588 393 588 391 588 388 c 0
 588 386 589 384 592 382 c 0
 619 371 636 348 636 313 c 1
649 294 m 0
 661 279 670 252 637 239 c 0
 599 224 531 224 503 261 c 0
 489 280 487 297 503 306 c 0
 509 310 515 312 523 307 c 0
 546 291 595 286 634 296 c 0
 640 297 647 297 649 294 c 0
310 439 m 1
 271 417 191 425 172 462 c 1
 172 709 l 1
 205 737 247 742 294 719 c 1
 294 477 l 1
 300 462 313 457 310 439 c 1
673 144 m 0
 667 130 661 130 649 128 c 0
 645 127 631 123 626 119 c 0
 597 95 567 97 541 149 c 0
 539 155 533 159 525 165 c 0
 515 172 509 181 501 186 c 0
 496 189 495 193 492 198 c 0
 487 210 486 221 492 234 c 0
 495 240 504 241 509 237 c 0
 549 214 611 203 658 231 c 0
 661 232 664 234 665 231 c 1
 689 199 684 170 673 144 c 0
508 325 m 1
 482 312 472 280 486 259 c 1
 476 239 474 205 482 186 c 1
 480 181 480 177 477 173 c 0
 476 171 475 171 472 172 c 1
 458 184 427 181 417 166 c 1
 402 175 373 184 346 172 c 1
 342 184 320 225 309 242 c 1
 370 276 375 333 337 367 c 1
 348 382 350 413 335 439 c 1
 332 442 336 445 340 442 c 0
 394 402 493 365 508 325 c 1
701 33 m 0
 707 9 681 7 672 7 c 0
 616 7 597 26 559 55 c 0
 554 59 550 59 544 58 c 0
 525 53 514 50 496 54 c 0
 495 54 493 55 493 56 c 0
 500 84 507 123 490 152 c 0
 486 159 491 165 492 173 c 1
 501 166 508 159 522 150 c 0
 525 147 525 145 526 142 c 0
 547 107 572 69 627 101 c 0
 642 109 653 114 664 116 c 0
 667 116 670 116 672 113 c 0
 684 92 695 58 701 33 c 0
326 419 m 0
 346 398 325 369 308 356 c 0
 264 325 180 334 144 366 c 0
 122 386 106 419 152 446 c 1
 155 449 159 447 161 445 c 0
 213 403 273 404 310 422 c 0
 316 424 321 424 326 419 c 0
471 45 m 0
 466 36 447 25 437 25 c 0
 433 25 426 26 432 37 c 0
 448 70 453 106 432 150 c 0
 429 155 427 161 434 165 c 0
 449 172 459 167 467 156 c 1
 490 130 490 84 471 45 c 0
337 350 m 0
 355 323 348 299 332 281 c 0
 315 262 303 254 280 240 c 0
 276 237 275 235 273 231 c 0
 259 203 198 202 179 237 c 0
 179 239 175 242 174 242 c 0
 163 246 153 252 143 259 c 0
 110 281 99 326 126 351 c 0
 130 355 136 353 139 350 c 0
 207 305 281 320 324 351 c 1
 326 354 335 354 337 350 c 0
421 139 m 0
 441 85 425 48 406 23 c 0
 402 18 391 10 385 9 c 0
 374 7 359 10 348 20 c 0
 345 23 346 27 348 31 c 0
 367 55 381 100 363 152 c 0
 362 157 363 165 367 165 c 0
 381 166 392 164 405 156 c 0
 412 151 418 147 421 139 c 0
351 149 m 0
 363 113 355 66 334 39 c 0
 332 37 330 36 327 36 c 0
 303 31 277 34 254 45 c 0
 246 49 240 49 233 44 c 0
 205 23 136 -5 78 14 c 1
 62 18 64 32 72 39 c 0
 116 85 143 151 154 234 c 0
 154 236 158 235 160 235 c 0
 163 235 165 231 165 230 c 0
 185 192 262 178 287 225 c 0
 288 229 294 232 299 232 c 0
 302 232 303 232 304 230 c 0
 322 200 324 182 339 159 c 0
 341 155 342 156 345 154 c 1
 347 151 351 150 351 149 c 0
643 687 m 1
 643 687 643 686 642 688 c 0
 642 690 642 690 640 690 c 1
 636 687 622 682 611 680 c 0
 593 676 582 676 563 679 c 0
 551 680 542 683 533 687 c 0
 525 690 514 693 504 701 c 0
 502 702 502 702 500 701 c 1
 500 699 501 699 503 697 c 0
 511 692 518 686 529 681 c 0
 539 677 545 674 555 671 c 1
 552 662 552 659 549 651 c 1
 546 646 541 638 534 631 c 0
 533 629 533 628 534 626 c 0
 535 624 536 624 539 626 c 0
 545 632 552 639 557 646 c 0
 562 654 563 657 567 667 c 1
 579 667 l 2
 589 667 597 667 611 671 c 0
 627 675 637 681 643 687 c 1
472 740 m 1
 463 756 463 774 469 788 c 1
 448 790 433 798 422 807 c 1
 406 796 374 793 352 814 c 1
 350 811 346 807 342 806 c 1
 362 777 350 736 322 719 c 1
 351 676 429 648 469 675 c 1
 453 698 460 724 472 740 c 1
325 889 m 0
 326 890 326 891 325 892 c 0
 324 894 325 891 322 890 c 1
 319 885 311 884 303 880 c 0
 297 877 289 877 278 879 c 0
 273 879 265 882 251 887 c 0
 239 891 230 895 220 896 c 1
 217 913 218 927 222 940 c 0
 222 941 223 943 220 944 c 0
 219 944 219 944 218 941 c 0
 213 934 208 921 208 897 c 1
 197 897 185 894 171 889 c 0
 159 885 139 870 131 858 c 0
 131 857 131 858 133 855 c 1
 147 865 160 873 176 879 c 0
 191 884 205 886 217 886 c 0
 227 886 239 881 254 876 c 1
 267 873 276 871 278 870 c 0
 300 868 315 875 325 889 c 0
497 600 m 0
 497 605 485 594 471 594 c 0
 469 594 458 591 450 594 c 1
 428 599 407 604 390 612 c 1
 374 621 358 631 340 645 c 1
 337 646 336 649 334 648 c 1
 334 646 334 645 336 643 c 0
 351 629 367 619 383 610 c 0
 404 599 428 587 450 585 c 1
 469 582 479 586 491 592 c 1
 492 594 497 597 497 600 c 0
572 340 m 0
 572 350 567 366 552 385 c 0
 539 402 524 411 504 420 c 1
 519 420 528 422 542 426 c 0
 556 431 566 437 572 442 c 0
 573 444 573 444 572 446 c 0
 572 447 571 447 568 446 c 1
 563 441 555 439 542 434 c 0
 531 430 519 431 506 430 c 0
 497 430 490 431 479 434 c 0
 459 439 436 449 407 466 c 0
 380 482 357 494 340 509 c 0
 339 510 337 510 335 509 c 0
 335 508 335 506 336 504 c 0
 351 492 372 478 401 460 c 0
 429 442 447 433 475 423 c 0
 493 417 515 407 538 386 c 0
 559 366 567 351 568 339 c 0
 568 337 568 336 571 336 c 0
 573 336 572 338 572 340 c 0
238 473 m 2
 238 688 l 2
 238 693 228 694 228 690 c 2
 228 474 l 2
 228 470 238 468 238 473 c 2
649 189 m 0
 651 190 654 194 653 195 c 0
 652 197 651 194 648 193 c 1
 638 183 615 179 593 179 c 0
 573 179 547 179 520 205 c 0
 519 206 517 209 514 208 c 1
 514 206 514 205 517 203 c 0
 530 190 538 182 555 176 c 0
 566 172 575 170 587 170 c 1
 588 166 589 161 589 154 c 0
 589 142 588 135 588 131 c 1
 587 129 586 127 588 124 c 1
 590 124 592 129 593 131 c 0
 595 136 597 141 598 156 c 0
 598 161 600 165 599 170 c 1
 610 171 617 172 629 176 c 0
 638 178 643 182 649 189 c 0
501 327 m 1
 486 360 397 395 345 431 c 1
 355 408 352 385 345 370 c 1
 381 333 373 274 316 241 c 1
 326 225 343 193 348 179 c 1
 375 189 401 181 417 172 c 1
 428 184 455 190 474 179 c 1
 475 181 476 183 477 186 c 1
 466 208 469 239 480 259 c 1
 465 281 474 311 501 327 c 1
665 48 m 1
 659 48 651 48 642 49 c 0
 619 53 603 60 587 75 c 0
 581 80 572 80 562 79 c 1
 555 77 542 76 525 84 c 0
 524 84 523 85 522 82 c 0
 522 81 523 81 524 80 c 0
 540 71 552 70 561 71 c 0
 568 72 573 70 581 66 c 1
 598 52 620 45 647 44 c 0
 653 44 658 45 665 48 c 1
315 313 m 0
 316 315 318 317 316 318 c 1
 315 320 315 318 313 317 c 0
 305 310 293 300 275 291 c 0
 259 284 244 281 229 281 c 0
 202 281 175 290 148 312 c 0
 147 313 146 315 143 313 c 0
 143 312 143 311 144 309 c 0
 159 296 169 288 181 281 c 1
 194 276 206 273 220 270 c 1
 227 236 l 2
 228 236 229 236 233 237 c 1
 234 270 l 1
 249 272 262 275 280 285 c 1
 294 294 306 304 315 313 c 0
310 87 m 1
 310 90 309 90 308 91 c 0
 288 97 275 109 261 122 c 0
 249 133 241 145 236 156 c 1
 234 167 230 168 227 170 c 1
 224 170 220 170 218 156 c 0
 216 144 211 120 194 100 c 0
 177 80 163 66 143 58 c 0
 142 58 142 56 142 54 c 0
 142 53 143 54 146 54 c 1
 161 61 182 72 201 95 c 0
 218 116 224 128 228 146 c 1
 228 146 228 146 230 144 c 1
 235 130 240 125 252 113 c 1
 265 102 283 92 306 87 c 0
 308 87 309 86 310 87 c 1
150 946 m 0
 139 938 126 939 117 950 c 0
 109 961 110 976 121 985 c 0
 132 993 146 991 154 980 c 0
 163 969 161 955 150 946 c 0
148 949 m 0
 157 955 158 969 152 977 c 0
 146 986 134 988 125 982 c 0
 115 976 114 961 120 952 c 0
 126 944 139 943 148 949 c 0
437 980 m 0
 422 980 410 989 410 1004 c 0
 410 1019 421 1031 436 1031 c 0
 450 1031 461 1021 461 1007 c 0
 461 992 452 980 437 980 c 0
436 985 m 0
 447 985 455 993 455 1004 c 0
 455 1015 447 1025 436 1025 c 0
 425 1025 416 1015 416 1004 c 0
 416 993 425 985 436 985 c 0
547 44 m 1
 560 42 567 27 565 15 c 0
 562 2 549 -4 536 -1 c 0
 524 1 515 15 518 27 c 0
 520 39 535 47 547 44 c 1
546 39 m 0
 536 42 526 37 524 27 c 0
 522 17 528 7 538 5 c 1
 547 2 556 7 559 17 c 0
 561 27 556 37 546 39 c 0
241 34 m 0
 252 36 261 27 262 16 c 0
 264 5 256 -4 245 -5 c 0
 234 -6 224 2 223 14 c 0
 222 25 230 33 241 34 c 0
241 31 m 0
 233 30 227 23 228 15 c 0
 229 6 235 0 244 1 c 0
 252 2 259 9 257 17 c 1
 256 26 250 32 241 31 c 0
EndSplineSet
Validated: 37
EndChar

StartChar: afii10020
Encoding: 1043 1043 47
Width: 737
Flags: HW
HStem: -15 5<201.319 217.567> -6 11<49.7629 160.597 256.743 367.796> 12.7352 29.2259<82.8643 131.121 287.696 334.538> 321 82<166.811 203 214 251.515> 413 41.5318<140.994 272.362> 437 8<606.28 618.908> 466.877 75.0859<139.936 284.592> 554 204<144.166 273.881> 554 193<144.166 204.995 214.324 273.973> 728.199 4.74884<501.655 516.752> 762 73<300 324.416> 769.904 78.0959<133.701 281.015> 825.428 7.53027<433.903 467.842> 838.218 4.77155<670.744 686.485> 858.258 44.7418<131.475 282.139> 873 34.3146<501 517.95> 873.862 4.42102<676.229 686.058> 912 66<156.792 203 213 264.902> 915.899 74.2201<482.994 548.002> 927.487 43.4398<542.495 654.43> 930 48.7896<366.563 406.555> 973.31 2.4386<295.59 305.954> 974.31 3.76917<111.94 124.435> 986 7<185.51 236.535 571.747 633.503> 1003.06 6.94153<476.514 526.558> 1018.28 3.77301<433.293 445.921>
VStem: 37.1834 8.08152<10.7629 25.1848> 76 7<420.104 457.65> 91.5748 6.07996<511.303 540.112 785.133 810.956> 99.3687 3.90987<953.396 965.671> 126 6<278.333 365.947 572.454 744.796> 142.057 60.9429<159.03 264 573 741> 190 5<-4.6262 6.49434> 214 61<164.839 265 573 741> 222 5<-5.73911 6.36465> 286 7<283.214 365.992 573.374 745.589> 317.866 3.20361<951.092 961.872> 334.53 7.47<415.884 458.992> 347.171 6.36453<927.352 964.364> 371.716 8.21585<10.2248 23.697> 420.695 3.5892<996.301 1009.26> 428 58.2784<844.722 907.752> 455.201 3.09628<998.626 1007.93> 488.218 3.93222<743.102 756.447> 514.512 7.23029<614.794 722.927> 528 42.2177<863.977 914.928> 533.312 46.6165<607.944 725.249> 577.246 35.9533<775.4 874.652> 613.581 7.05713<457.96 529.198> 623.167 36.241<716.536 856.854> 669 8<691.355 805.311> 689.16 7.20203<915.916 969.197> 694.739 3.46997<852.059 864.655>
LayerCount: 3
Fore
SplineSet
424 1003 m 0xf20000fe1fb8e0
 424 993 434 991 440 988 c 1
 446 988 455 995 455 1002 c 0
 455 1010 447 1018 440 1018 c 0
 432 1018 424 1011 424 1003 c 0xf20000fe1fb8e0
440 1022 m 0
 451 1022 458 1012.06 458 1003.06 c 0
 458 1001.06 458 1000 458 998 c 1
 469 1005 481 1010 498 1010 c 0
 539 1010 571 992 601 992 c 0
 623 992 655 999 658 1016 c 0
 659 1018 660 1018.28 661 1018.28 c 0
 662 1018.28 663 1019.28 664 1018.28 c 0
 685 1002.28 696 973 696 938 c 0xf20005febfb8f0
 696 915 688 894 676 878 c 1
 677 878 678 878 679 878 c 0
 688 878 698 870 698 859 c 0
 698 847 690 838 677 838 c 0
 674 838 671 839 668 841 c 1
 674 810 677 764 677 734 c 0
 677 637 621 580 621 495 c 0
 621 481 622 465 626 449 c 1
 626 442 619 437 615 437 c 0
 582 442 516 540 516 631 c 0
 516 646 515 661 515 675 c 0
 515 695 516 714 519 731 c 1
 516 729 512 728 509 728 c 0
 498 728 488 737 488 749 c 0
 488 759 496 769 507 769 c 1
 491 787 482 811 479 835 c 1xf66485fe1f98e8
 476 832 464 825 453 825 c 0
 439 825 427 831 425 836 c 1
 403 805 330 757 293 745 c 1
 293 575 l 1
 309 567 325 548 328 530 c 1
 328 514 324 504 314 493 c 1
 331 481 342 461 342 442 c 0
 342 417 335 386 294 365 c 1
 294 307 l 2
 294 208 345 74 374 26 c 0
 377 23 380 18 380 13 c 0
 380 4 369 -6 330 -6 c 0
 291 -6 253 -2 226 6 c 1
 227 5 227 3 227 1 c 0
 227 -9 219 -15 210 -15 c 0
 200 -15 190 -9 190 1 c 0
 190 3 190 5 191 7 c 1
 165 -2 126 -6 88 -6 c 0
 46 -6 37 4 37 13 c 0
 37 18 39 23 41 26 c 0
 72 74 125 208 125 307 c 2
 125 365 l 1
 89 385 76 418 76 442 c 0
 76 461 89 484 105 493 c 1
 96 503 92 514 92 525 c 0
 92 545 106 563 126 574 c 1
 126 744 l 1
 104 752 91 776 91 799 c 0
 91 816 98 827 111 837 c 1
 95 846 77 860 77 889 c 0
 77 913 95 931 112 941 c 1
 105 944 99 951 99 958 c 0
 99 968 109 978 120 978 c 0xf20802febf98e8
 129 978 137 969 138 961 c 1
 153 980 181 993 210 993 c 0
 240 993 266 982 283 961 c 1
 285 971 294 976 303 976 c 0
 312 976 321 970 321 958 c 0
 321 951 316 943 309 940 c 1
 322 933 336 921 340 913 c 1
 345 916 350 921 351 925 c 1
 349 930 347 938 347 946 c 0
 347 960 352 976 362 986 c 0xf20005febf98e8
 373 995 386 999 400 999 c 0
 407 999 415 997 422 995 c 1
 421 997 421 1000 421 1002 c 0
 421 1013 430 1022 440 1022 c 0
287 959 m 0
 287 947 296 946 305 942 c 1
 312 942 318 949 318 955 c 0
 318 964 309 973 301 973 c 0
 293 973 287 966 287 959 c 0
118 974 m 0xf20002fe1f98e0
 110 974 103 967 103 960 c 0
 103 953 110 946 117 944 c 1
 122 946 127 948 131 949 c 1
 132 951 133 954 135 956 c 1
 135 965 126 974 118 974 c 0xf20002fe1f98e0
131 55 m 1
 127 60 121 60 116 59 c 1
 112 54 113 42 120 42 c 0
 127 42 133 47 131 55 c 1
303 55 m 0
 300 60 293 60 289 58 c 1
 285 54 285 42 293 42 c 0
 301 42 306 47 303 55 c 0
264 70 m 1
 254 84 249 93 241 103 c 1
 230 123 214 160 214 198 c 2
 214 265 l 2
 214 274 203 273 203 264 c 2
 203 198 l 2xf20000ff5f98e0
 203 160 184 123 174 104 c 1
 165 90 160 80 152 70 c 1
 165 84 170 93 179 103 c 1
 185 113 200 134 208 159 c 1
 214 134 229 114 235 103 c 1
 244 93 251 80 264 70 c 1
287 440 m 0
 292 444 289 445 285 441 c 1
 261 426 239 413 210 413 c 0xfa0000ff5f98e0
 176 413 151 428 127 441 c 0
 122 444 125 439 127 437 c 0xf60000ff5f98e0
 144 424 171 403 203 403 c 1
 203 348 l 2
 203 339 214 338 214 347 c 2
 214 403 l 1
 244 403 270 424 287 440 c 0
214 573 m 2
 214 741 l 2
 214 747 205 747 205 741 c 2
 205 573 l 2
 205 567 214 567 214 573 c 2
281 887 m 0
 267 899 238 912 210 912 c 1
 210 949 l 2
 210 955 208 955 207 949 c 2
 203 912 l 1
 173 912 149 901 130 885 c 0
 125 881 125 877 130 881 c 0
 149 895 179 903 208 903 c 0xf20240ff1f98e0
 237 903 260 896 278 885 c 0
 283 882 286 884 281 887 c 0
391 876 m 0
 395 879 390 884 386 881 c 0
 368 864 345 827 326 816 c 0
 324 815 326 810 329 811 c 0
 347 822 373 859 391 876 c 0
353 16 m 1
 344 15 333 14 322 14 c 0
 281 14 233 23 210 44 c 1
 186 25 139 13 97 13 c 0
 85 13 73 14 62 16 c 1
 92 64 142 189 142 301 c 0
 142 303 142 305 142 307 c 2
 142 361 l 1
 155 328 175 309 210 309 c 0
 240 309 260 326 275 360 c 1
 275 307 l 1xf20000ff5f98e0
 275 197 323 67 353 16 c 1
324 436 m 0
 324 402 289 381 265 366 c 1
 256 343 237 321 210 321 c 0
 180 321 160 343 154 367 c 1
 126 381 96 402 96 433 c 0
 96 447 101 462 111 471 c 1
 116 474 121 476 130 474 c 1
 157 462 184 455 213 455 c 0xfa0000fe1f98e0
 238 455 264 460 291 472 c 1
 296 476 303 474 308 471 c 1
 318 461 324 451 324 436 c 0
308 525 m 0
 308 480 260 467 216 467 c 0
 184 467 152 474 135 485 c 0
 122 494 111 505 111 525 c 0
 111 544 133 558 144 558 c 0
 145 558 145 558 146 558 c 0
 172 548 193 542 215 542 c 0
 234 542 253 546 274 556 c 0
 275 556 276 557 277 557 c 0
 288 557 308 543 308 525 c 0
275 569 m 1xf30000fe5f98e0
 253 559 237 554 211 554 c 0xf30000fe5f98e0
 185 554 168 562 143 574 c 1
 143 747 l 1xf28000fe5f98e0
 164 756 185 758 211 758 c 0
 235 758 251 755 275 746 c 1
 275 569 l 1xf30000fe5f98e0
109 791 m 0
 109 838 171 848 207 848 c 0
 243 848 297 842 297 804 c 0
 297 784 283 767 275 760 c 1
 255 767 231 770 208 770 c 0xf31000fe5f98e0
 182 770 158 766 141 758 c 1
 123 764 109 775 109 791 c 0
329 889 m 0
 329 867 308 847 289 839 c 1
 264 852 234 858 206 858 c 0
 178 858 152 853 132 843 c 1
 118 848 93 865 93 888 c 0
 93 915 123 930 144 938 c 1
 151 959 180 978 210 978 c 0xf20640fe1f98e0
 241 978 272 961 278 933 c 1
 298 933 329 911 329 889 c 0
291 762 m 1xf22000fe1f98e0
 299 772 308 786 308 805 c 0
 308 816 304 824 300 835 c 1
 334 855 347 895 371 922 c 1
 394 918 419 885 419 853 c 1
 395 819 314 766 291 762 c 1xf22000fe1f98e0
486 889 m 0xf20008fe1fd8e0
 486 870 476 842 452 842 c 0
 443 842 434 845 428 853 c 1
 428 884 409 922 371 930 c 1
 367 935 365 942 365 949 c 0
 365 968 384 979 403 979 c 0
 443 979 486 933 486 889 c 0xf20008fe1fd8e0
598 476 m 1
 563 524 533 578 533 659 c 0
 533 698 544 728 565 766 c 1
 563 766 560 766 558 766 c 0
 519 766 494 814 494 852 c 1
 491 846 487 841 486 839 c 1
 490 806 502 777 532 760 c 0
 534 758 534 757 533 755 c 0
 525 732 522 703 522 670 c 0
 522 657 523 644 523 631 c 0
 523 545 584 450 615 445 c 0
 616 445 618 446 619 447 c 1
 615 464 614 479 614 494 c 0
 614 580 669 638 669 734 c 0
 669 774 664 843 653 860 c 0
 652 862 653 864 655 865 c 0
 673 883 689 910 689 941 c 0
 689 970 680 993 664 1009 c 1
 657 991 624 985 598 985 c 0
 563 985 536 1003 497 1003 c 0
 475 1003 457 992 443 980 c 0
 442 978 439 978 438 980 c 0
 429 987 415 992 400 992 c 0
 389 992 377 989 367 981 c 0
 357 973 354 958 354 945 c 0
 354 936 355 929 358 925 c 1
 364 921 342 904 340 903 c 0
 336 901 335 901 334 905 c 0
 331 917 302 938 288 940 c 1
 274 970 245 986 210 986 c 0
 176 986 144 966 136 943 c 1
 121 939 87 921 84 896 c 1
 84 863 101 852 120 839 c 0
 122 838 122 836 120 835 c 0xf62211fe1f9af0
 106 825 99 815 99 799 c 0
 99 778 110 756 132 751 c 1
 132 569 l 1
 115 565 98 547 98 527 c 0
 98 513 104 503 111 494 c 0
 115 490 113 489 111 487 c 1
 96 481 87 465 83 446 c 1
 83 422 91 391 131 372 c 1
 131 311 l 2
 131 208 78 74 49 25 c 0
 47 22 45 19 45 17 c 0
 45 10 54 5 88 5 c 0
 136 5 185 10 206 25 c 1
 208 25 210 26 211 25 c 0
 234 10 283 5 330 5 c 0
 363 5 372 10 372 16 c 0
 372 19 370 22 368 25 c 0
 339 74 288 208 288 311 c 2
 288 372 l 1
 323 389 335 415 335 438 c 0
 335 461 323 480 308 487 c 0
 304 489 303 490 305 494 c 1
 312 502 320 512 320 525 c 0
 320 546 303 567 286 570 c 1
 286 751 l 1
 333 768 393 809 423 846 c 1
 430 836 438 833 448 833 c 0xf20800fe1f9af0
 453 833 458 834 463 835 c 0
 488 840 496 876 496 896 c 0
 496 900 495 903 495 905 c 1
 497 907 499 907 501 907 c 0
 509 907 518 899 518 890 c 0
 518 880 509 871 501 873 c 1
 498 863 l 2
 499 863 499 863 500 863 c 0
 518 863 528 876 528 889 c 0
 528 901 516 916 501 916 c 0
 498 916 495 915 492 914 c 1
 492 928 471 961 449 971 c 1
 461 985 478 990 496 990 c 0xf22120fe1f9cf0
 533 990 575 971 601 971 c 2
 608 971 l 2xf20010fe1f9cf0
 632 971 650 972 669 987 c 1
 675 973 678 961 678 949 c 0
 678 915 657 887 636 868 c 1
 653 836 659 799 659 756 c 0
 659 749 659 742 659 735 c 0
 659 634 598 572 598 484 c 0
 598 482 598 479 598 476 c 1
575 919 m 1
 580 918 585 918 590 918 c 0
 619 918 641 929 657 946 c 0
 660 949 661 952 660 952 c 0
 659 952 658 952 656 950 c 0
 639 936 617 927 593 927 c 0
 578 927 562 931 548 939 c 0
 536 945 532 930 543 925 c 0
 559 919 570 893 570 871 c 0
 570 846 556 831 540 817 c 1
 535 814 536 811 541 815 c 0
 562 828 577 841 577 873 c 0
 577 885 575 898 570 908 c 1
 600 881 613 841 613 795 c 0xf20010fe1f9de0
 613 735 592 712 582 661 c 0
 581 653 580 646 580 638 c 0
 580 619 583 602 587 589 c 0
 588 582 591 582 589 589 c 0
 587 600 585 616 585 632 c 0
 585 641 585 649 587 657 c 0
 597 709 623 734 623 794 c 0
 623 842 607 888 575 919 c 1
695 859 m 0xf20480fe1f98e8
 695 866 687 874 679 874 c 0
 672 874 664 867 663 862 c 1
 664 858 665 854 666 849 c 1
 670 845 674 843 678 843 c 0
 687 843 695 850 695 859 c 0xf20480fe1f98e8
511 765 m 0
 510 765 509 765 509 765 c 0
 500 765 492 758 492 750 c 0
 492 742 502 733 509 733 c 0xf24000fe1f98e0
 513 733 517 735 520 738 c 1
 521 743 522 749 524 754 c 1
 519 757 515 761 511 765 c 0
197 9 m 1
 196 6 195 4 195 1 c 0
 195 -5 203 -10 210 -10 c 0
 217 -10 222 -5 222 1 c 0xf20000febf98e0
 222 4 221 6 220 8 c 1
 216 10 212 12 208 14 c 1
 205 12 201 10 197 9 c 1
EndSplineSet
EndChar

StartChar: afii10021
Encoding: 1044 1044 48
Width: 919
Flags: W
LayerCount: 3
Fore
SplineSet
889 -87 m 0
 878 -179 794 -189 809 -304 c 0
 809 -306 808 -307 805 -307 c 0
 743 -297 719 -246 718 -200 c 1
 674 -205 636 -172 631 -124 c 0
 631 -120 632 -119 636 -120 c 0
 711 -140 732 -102 708 -65 c 1
 673 -79 626 -63 626 -21 c 1
 582 -26 567 -58 510 -54 c 1
 490 -75 453 -81 426 -53 c 1
 376 -52 343 -22 296 -10 c 1
 307 -41 253 -71 219 -63 c 1
 209 -79 203 -92 207 -109 c 1
 210 -130 250 -134 288 -125 c 0
 292 -124 293 -125 293 -129 c 0
 289 -175 237 -206 199 -203 c 1
 203 -258 166 -302 103 -312 c 0
 100 -312 98 -311 100 -307 c 0
 127 -219 19 -168 29 -69 c 1
 33 -16 64 26 118 37 c 1
 116 66 131 106 172 103 c 1
 193 133 190 171 204 219 c 1
 158 261 181 329 220 349 c 1
 197 386 228 444 287 447 c 1
 316 517 371 607 433 671 c 0
 454 694 460 717 460 740 c 0
 460 761 445 782 424 782 c 0
 402 782 384 763 385 741 c 0
 387 709 395 697 429 677 c 0
 432 676 432 674 429 671 c 0
 312 591 230 707 263 780 c 1
 199 844 230 934 307 951 c 0
 311 952 312 951 312 948 c 0
 306 910 342 884 374 885 c 0
 423 886 455 894 503 875 c 1
 481 916 496 969 543 988 c 1
 580 1064 660 1068 693 988 c 1
 741 967 755 914 723 871 c 1
 740 848 734 800 691 783 c 1
 691 530 l 1
 721 517 736 474 723 445 c 1
 757 412 736 334 696 307 c 1
 696 188 l 1
 696 188 693 127 712 107 c 1
 754 120 781 76 780 48 c 1
 852 38 897 -23 889 -87 c 0
882 -87 m 0
 890 -25 846 33 776 41 c 0
 773 41 772 42 772 44 c 0
 776 70 749 113 711 101 c 1
 685 118 688 188 688 188 c 1
 688 312 l 1
 729 337 750 415 714 444 c 1
 730 473 714 517 685 526 c 1
 685 788 l 1
 727 801 733 849 716 869 c 0
 714 870 714 873 716 874 c 0
 745 912 734 965 688 983 c 1
 658 1058 580 1053 548 982 c 1
 501 965 488 907 514 869 c 0
 516 865 514 860 510 863 c 0
 457 889 427 879 374 877 c 0
 338 876 301 902 305 943 c 1
 235 924 209 839 271 782 c 1
 237 715 314 606 419 672 c 1
 386 693 380 708 378 741 c 0
 376 768 397 789 424 789 c 0
 450 789 467 766 467 740 c 0
 467 714 461 692 438 666 c 1
 375 601 320 511 290 441 c 1
 235 440 204 381 228 349 c 0
 230 347 230 344 226 343 c 0
 190 329 166 262 212 221 c 1
 196 171 199 127 175 97 c 1
 135 101 121 60 124 32 c 1
 72 22 41 -20 36 -69 c 0
 26 -167 129 -219 108 -304 c 1
 165 -292 198 -252 192 -199 c 0
 192 -197 193 -195 196 -195 c 0
 230 -202 278 -173 284 -134 c 1
 244 -141 203 -135 199 -111 c 0
 196 -90 203 -75 213 -56 c 0
 214 -54 215 -53 218 -54 c 0
 250 -65 300 -33 288 -6 c 0
 287 -2 287 1 292 0 c 0
 340 -11 375 -44 428 -45 c 1
 449 -71 490 -70 508 -47 c 1
 567 -50 583 -16 630 -14 c 0
 632 -14 633 -15 633 -17 c 0
 631 -58 676 -70 710 -56 c 0
 712 -55 713 -56 714 -58 c 0
 743 -102 723 -147 639 -129 c 1
 646 -171 680 -200 722 -193 c 0
 724 -193 725 -194 725 -197 c 0
 725 -239 744 -288 802 -299 c 1
 789 -189 870 -178 882 -87 c 0
701 880 m 1
 649 906 567 902 527 877 c 1
 498 916 516 960 560 978 c 1
 579 1044 659 1045 680 975 c 1
 713 966 739 912 701 880 c 1
711 852 m 0
 718 832 703 803 675 795 c 1
 653 800 636 805 615 805 c 0
 594 805 572 806 547 794 c 1
 536 803 513 837 531 864 c 0
 555 899 692 900 711 852 c 0
674 522 m 1
 652 512 636 508 610 509 c 0
 583 510 562 516 543 527 c 1
 543 779 l 1
 564 788 587 793 612 793 c 0
 637 793 650 787 674 778 c 1
 674 522 l 1
708 479 m 1
 712 462 700 445 690 440 c 0
 637 414 569 419 534 437 c 0
 515 447 499 460 502 479 c 1
 504 499 527 519 545 512 c 0
 598 494 630 489 674 509 c 0
 684 514 705 499 708 479 c 1
532 773 m 1
 539 734 529 690 507 645 c 1
 457 549 410 478 391 397 c 1
 352 395 323 406 299 435 c 1
 321 492 362 562 418 629 c 0
 442 657 465 679 475 718 c 0
 491 780 442 811 398 794 c 0
 356 777 352 705 401 674 c 1
 307 631 257 719 290 788 c 1
 213 833 252 913 295 930 c 1
 294 903 315 879 346 871 c 0
 390 860 412 876 449 871 c 0
 502 864 526 816 532 773 c 1
721 390 m 0
 713 356 698 331 675 315 c 1
 666 291 638 275 611 275 c 0
 582 275 552 292 546 317 c 1
 519 333 490 365 487 393 c 0
 486 408 490 422 501 430 c 0
 509 437 519 428 527 426 c 1
 578 403 632 401 691 426 c 1
 696 430 707 431 712 428 c 1
 722 418 724 404 721 390 c 0
532 200 m 1
 532 200 543 89 497 81 c 1
 480 96 446 95 427 74 c 1
 379 92 369 147 371 192 c 1
 406 210 421 286 380 302 c 0
 375 304 376 309 381 310 c 0
 423 317 432 365 403 398 c 1
 432 514 499 591 525 661 c 0
 526 666 532 665 532 660 c 2
 532 527 l 1
 497 517 478 471 497 446 c 0
 498 444 499 442 497 441 c 0
 455 411 477 345 532 315 c 1
 532 200 l 1
700 85 m 1
 713 43 692 -11 644 -6 c 1
 643 -1 641 2 635 5 c 1
 602 9 563 -41 519 -37 c 1
 540 4 536 47 507 72 c 1
 548 90 545 187 545 187 c 1
 545 291 l 1
 577 252 644 250 676 291 c 1
 676 187 l 1
 676 187 671 97 700 85 c 1
760 56 m 0
 767 39 763 9 750 -14 c 1
 735 -37 719 -48 691 -52 c 0
 673 -54 641 -45 644 -15 c 1
 693 -27 729 34 710 89 c 1
 735 98 750 79 760 56 c 0
400 382 m 0
 412 365 415 339 389 323 c 0
 344 295 255 305 233 364 c 0
 223 392 250 420 276 429 c 0
 290 434 310 403 336 393 c 0
 359 385 392 392 400 382 c 0
872 -75 m 0
 867 -165 780 -181 791 -284 c 1
 757 -273 735 -230 738 -184 c 1
 708 -186 659 -179 654 -142 c 1
 728 -157 760 -102 725 -53 c 1
 759 -41 777 2 773 28 c 1
 827 27 874 -23 872 -75 c 0
367 299 m 1
 413 272 387 213 363 200 c 1
 319 107 234 146 223 227 c 1
 183 256 193 316 237 334 c 1
 272 296 320 291 367 299 c 1
519 14 m 0
 520 -12 513 -34 492 -48 c 0
 473 -60 446 -55 434 -37 c 1
 456 -9 454 34 434 65 c 1
 445 80 465 86 483 76 c 0
 507 64 518 42 519 14 c 0
426 61 m 1
 442 32 445 -1 424 -33 c 1
 384 -39 315 14 285 23 c 0
 279 25 276 25 271 17 c 1
 229 5 191 39 186 92 c 1
 210 120 210 172 218 205 c 1
 242 112 330 120 359 171 c 1
 360 116 375 86 426 61 c 1
277 -20 m 0
 268 -37 253 -44 233 -45 c 0
 208 -47 188 -41 169 -26 c 0
 149 -11 134 16 135 47 c 1
 137 65 144 81 162 87 c 0
 171 90 178 81 180 74 c 1
 185 32 220 -1 267 5 c 0
 277 6 282 -10 277 -20 c 0
270 -146 m 1
 255 -176 215 -190 182 -184 c 1
 182 -234 165 -281 123 -290 c 1
 124 -192 56 -183 46 -85 c 0
 41 -36 83 16 128 21 c 1
 132 -22 177 -50 203 -52 c 1
 161 -113 191 -157 270 -146 c 1
676 832 m 0
 658 844 642 852 616 852 c 0
 590 852 574 846 556 835 c 0
 550 831 548 828 556 832 c 0
 576 841 602 842 616 842 c 0
 632 842 654 839 675 830 c 0
 682 826 682 828 676 832 c 0
617 537 m 2
 617 760 l 2
 617 766 606 766 606 760 c 2
 606 537 l 2
 606 531 617 531 617 537 c 2
509 726 m 0
 523 778 481 844 429 839 c 1
 406 838 393 836 374 836 c 0
 354 836 337 836 322 843 c 0
 316 846 319 844 321 842 c 0
 335 830 373 830 385 830 c 1
 365 826 344 799 338 780 c 0
 336 774 338 773 341 779 c 0
 348 796 364 814 382 822 c 0
 397 828 413 830 427 830 c 0
 473 832 513 776 502 729 c 1
 471 612 380 542 348 437 c 0
 347 433 354 430 356 435 c 0
 387 540 478 610 509 726 c 0
685 396 m 1
 690 399 687 401 682 397 c 0
 659 382 641 369 611 369 c 0
 578 369 548 384 525 397 c 0
 520 399 523 395 525 393 c 0
 542 380 573 360 605 359 c 1
 605 304 l 2
 605 295 616 294 616 302 c 2
 616 359 l 1
 646 360 668 380 685 396 c 1
525 200 m 1
 525 309 l 1
 466 344 448 411 490 445 c 1
 472 474 487 516 525 530 c 1
 525 640 l 1
 496 575 438 504 411 398 c 1
 440 364 430 317 391 305 c 1
 424 279 412 209 378 187 c 1
 378 145 389 96 427 81 c 1
 446 102 478 103 498 89 c 1
 532 103 525 200 525 200 c 1
652 58 m 0
 637 69 627 95 623 116 c 0
 617 149 615 202 615 231 c 0
 615 236 605 234 605 231 c 0
 605 198 605 127 600 108 c 0
 591 79 585 50 562 38 c 0
 556 34 557 34 563 37 c 0
 589 48 599 74 610 106 c 0
 611 109 611 114 612 122 c 1
 612 119 612 116 613 113 c 0
 618 93 632 66 650 56 c 0
 655 54 657 54 652 58 c 0
824 -81 m 0
 821 -59 804 -38 782 -36 c 0
 780 -36 770 -38 772 -42 c 0
 783 -59 785 -84 780 -101 c 0
 775 -119 759 -138 746 -144 c 0
 740 -146 741 -149 748 -146 c 0
 759 -142 780 -124 787 -104 c 1
 792 -93 794 -67 789 -54 c 1
 799 -54 813 -70 814 -82 c 0
 820 -124 781 -156 778 -186 c 0
 778 -192 781 -193 781 -187 c 0
 783 -157 830 -125 824 -81 c 0
360 252 m 0
 367 254 365 257 359 256 c 0
 337 250 316 251 294 254 c 0
 276 257 251 269 235 288 c 0
 231 292 229 290 233 285 c 0
 244 269 265 251 285 246 c 1
 285 240 285 232 284 226 c 0
 283 216 284 200 284 200 c 2
 284 194 289 194 289 200 c 2
 289 200 292 219 293 226 c 0
 294 232 295 237 296 243 c 1
 316 242 337 245 360 252 c 0
367 36 m 1
 373 33 373 36 367 38 c 0
 352 43 335 58 321 67 c 1
 307 79 298 91 285 114 c 0
 284 117 276 116 274 113 c 1
 271 103 268 97 262 89 c 0
 256 80 250 74 242 69 c 0
 237 65 237 64 244 66 c 1
 252 70 258 74 267 81 c 1
 273 87 277 92 281 100 c 1
 293 81 300 75 315 63 c 0
 326 54 351 41 367 36 c 1
164 -142 m 0
 155 -134 134 -118 128 -101 c 0
 122 -84 126 -66 137 -49 c 0
 139 -45 131 -39 128 -41 c 0
 105 -54 94 -71 91 -93 c 0
 85 -138 134 -167 137 -197 c 0
 137 -203 139 -202 139 -195 c 0
 137 -166 95 -136 101 -95 c 0
 102 -82 108 -70 120 -61 c 1
 115 -75 116 -92 121 -104 c 0
 128 -124 154 -136 162 -145 c 0
 167 -150 169 -147 164 -142 c 0
621 952 m 1
 622 987 l 2
 622 993 617 993 617 987 c 1
 611 952 l 1
 588 951 567 938 551 924 c 1
 546 921 548 919 553 923 c 0
 571 935 594 943 616 943 c 0
 636 943 658 935 676 922 c 0
 681 918 681 919 677 924 c 0
 663 941 639 950 621 952 c 1
690 986 m 1
 682 994 685 1007 693 1014 c 0
 702 1021 714 1020 722 1011 c 0
 729 1003 727 989 718 982 c 0
 710 975 697 977 690 986 c 1
718 1009 m 0
 712 1015 701 1016 695 1010 c 0
 688 1004 688 993 695 987 c 0
 701 981 711 980 717 986 c 0
 723 992 724 1003 718 1009 c 0
518 988 m 0
 512 997 513 1010 521 1016 c 0
 530 1023 542 1023 550 1014 c 0
 557 1005 555 991 546 985 c 0
 537 978 524 980 518 988 c 0
546 1011 m 0
 540 1018 529 1019 523 1013 c 0
 516 1007 516 996 523 989 c 0
 529 983 539 983 545 988 c 0
 551 993 552 1005 546 1011 c 0
688 -227 m 0
 682 -219 684 -205 692 -199 c 0
 701 -193 713 -193 721 -202 c 0
 728 -210 725 -225 717 -231 c 0
 708 -237 695 -236 688 -227 c 0
717 -204 m 0
 711 -198 700 -197 693 -203 c 0
 687 -209 687 -220 693 -226 c 0
 700 -232 710 -232 716 -227 c 0
 722 -222 723 -210 717 -204 c 0
197 -230 m 0
 191 -221 192 -208 201 -202 c 1
 209 -195 221 -195 229 -204 c 0
 236 -213 234 -227 225 -234 c 0
 217 -240 203 -239 197 -230 c 0
225 -206 m 0
 219 -200 208 -199 202 -205 c 0
 196 -211 196 -222 202 -229 c 0
 208 -235 218 -235 224 -230 c 0
 230 -225 231 -213 225 -206 c 0
229 763 m 0
 223 772 224 785 233 791 c 1
 241 798 253 798 261 789 c 0
 268 780 266 766 257 760 c 0
 248 754 235 755 229 763 c 0
257 787 m 0
 251 793 240 794 234 788 c 0
 228 782 228 772 234 766 c 0
 240 760 250 758 256 763 c 0
 262 768 263 780 257 787 c 0
EndSplineSet
Validated: 37
EndChar

StartChar: afii10024
Encoding: 1046 1046 50
Width: 1262
Flags: W
LayerCount: 3
Fore
SplineSet
1143 918 m 0
 1152 908 1152 891 1142 882 c 0
 1132 874 1115 874 1106 884 c 0
 1096 895 1096 911 1107 921 c 0
 1117 929 1135 928 1143 918 c 0
720 1026 m 0
 729 1016 729 999 719 991 c 0
 709 982 692 982 683 992 c 0
 673 1003 673 1019 685 1029 c 0
 695 1037 712 1036 720 1026 c 0
948 717 m 1
 956 707 956 690 946 681 c 0
 937 672 919 672 911 682 c 0
 901 693 901 709 912 719 c 0
 922 728 939 726 948 717 c 1
578 992 m 0
 569 982 552 982 542 991 c 0
 532 999 532 1016 541 1026 c 0
 549 1036 567 1037 576 1029 c 0
 587 1019 587 1003 578 992 c 0
1219 12 m 0
 1193 -6 1170 -6 1142 -5 c 0
 1095 -2 1066 6 1039 21 c 1
 1004 -1 957 -6 924 -6 c 0
 908 -6 901 -4 886 5 c 0
 876 10 875 16 876 26 c 1
 886 55 897 108 898 154 c 1
 854 178 840 240 859 286 c 1
 822 315 816 366 843 404 c 1
 826 431 768 447 729 450 c 1
 729 397 l 1
 758 375 767 345 744 306 c 1
 789 279 809 216 778 175 c 1
 788 125 809 77 847 31 c 0
 852 26 852 11 842 6 c 0
 821 -5 803 -6 774 -6 c 0
 730 -6 665 9 631 28 c 1
 596 9 531 -6 487 -6 c 0
 458 -6 440 -5 419 6 c 0
 409 11 409 26 414 31 c 0
 452 77 473 125 483 175 c 1
 452 216 472 279 517 306 c 1
 494 345 503 375 532 397 c 1
 532 450 l 1
 493 447 435 431 418 404 c 1
 445 366 439 315 402 286 c 1
 422 240 407 178 363 154 c 1
 364 108 375 55 385 26 c 1
 386 16 385 10 375 5 c 0
 360 -4 353 -6 337 -6 c 0
 304 -6 257 -1 222 21 c 1
 195 6 166 -2 119 -5 c 0
 91 -6 68 -6 42 12 c 0
 32 18 34 34 42 44 c 0
 90 104 116 166 130 242 c 1
 117 276 133 340 177 355 c 1
 178 398 194 424 233 431 c 1
 255 520 390 575 499 576 c 1
 501 580 503 581 506 586 c 1
 358 831 l 1
 332 824 302 842 301 868 c 1
 255 847 288 791 341 821 c 1
 343 824 345 821 347 819 c 1
 363 772 361 726 312 709 c 1
 332 650 301 582 224 568 c 0
 219 567 216 570 218 575 c 1
 236 671 152 701 140 776 c 0
 133 826 134 869 160 906 c 1
 114 930 98 994 120 1018 c 1
 123 1019 125 1019 128 1018 c 1
 147 1002 177 988 209 989 c 1
 247 992 252 1015 302 1019 c 0
 338 1021 371 1011 386 996 c 1
 431 1011 456 969 447 921 c 1
 538 744 l 1
 538 783 l 1
 498 798 494 846 506 875 c 1
 468 929 505 991 570 991 c 1
 580 1025 606 1035 631 1035 c 0
 655 1035 681 1025 691 991 c 1
 756 991 793 929 755 875 c 1
 767 846 763 798 723 783 c 1
 723 744 l 1
 814 921 l 1
 805 969 830 1011 875 996 c 1
 890 1011 923 1021 959 1019 c 0
 1009 1015 1014 992 1052 989 c 1
 1084 988 1113 1002 1133 1018 c 1
 1136 1019 1138 1019 1141 1018 c 1
 1163 994 1147 930 1101 906 c 1
 1127 869 1128 826 1121 776 c 0
 1109 701 1025 671 1043 575 c 1
 1045 570 1042 567 1037 568 c 0
 960 582 929 650 949 709 c 1
 900 726 898 772 915 819 c 0
 916 821 918 824 921 821 c 1
 973 791 1007 847 960 868 c 1
 959 842 929 824 903 831 c 1
 755 586 l 1
 758 581 760 580 762 576 c 1
 871 575 1007 520 1027 431 c 1
 1067 424 1083 398 1084 355 c 1
 1128 340 1144 276 1131 242 c 1
 1146 166 1171 104 1219 44 c 0
 1227 34 1229 18 1219 12 c 0
155 884 m 0
 146 874 129 874 119 882 c 0
 109 891 109 908 118 918 c 0
 127 928 144 929 154 921 c 0
 165 911 165 895 155 884 c 0
350 682 m 0
 342 672 325 672 315 681 c 0
 305 690 305 707 313 717 c 1
 322 726 339 728 349 719 c 0
 360 709 360 693 350 682 c 0
1139 886 m 0
 1147 894 1147 908 1139 916 c 0
 1132 923 1117 923 1110 916 c 0
 1102 908 1102 894 1110 886 c 0
 1117 879 1132 879 1139 886 c 0
717 994 m 1
 724 1002 724 1016 717 1024 c 1
 709 1031 695 1031 687 1024 c 1
 680 1016 680 1002 687 994 c 1
 695 987 709 987 717 994 c 1
944 685 m 0
 951 692 951 707 944 714 c 0
 937 721 922 721 915 714 c 0
 907 707 907 692 915 685 c 1
 922 677 937 677 944 685 c 0
574 994 m 0
 581 1002 581 1016 574 1024 c 0
 567 1031 552 1031 545 1024 c 0
 537 1016 537 1002 545 994 c 0
 552 987 567 987 574 994 c 0
1212 18 m 0
 1219 23 1217 32 1212 38 c 0
 1162 102 1136 166 1121 242 c 1
 1136 280 1120 337 1076 350 c 1
 1076 390 1057 419 1019 424 c 1
 1002 510 867 569 757 569 c 1
 755 575 750 582 745 589 c 1
 900 843 l 1
 924 835 951 849 951 874 c 0
 951 877 954 877 959 876 c 0
 1015 860 994 782 923 810 c 1
 908 771 911 730 957 717 c 1
 960 715 962 714 960 710 c 0
 939 657 967 597 1032 579 c 1
 1020 672 1099 702 1111 776 c 1
 1118 828 1117 869 1091 905 c 0
 1088 908 1089 911 1093 913 c 0
 1133 930 1153 985 1137 1008 c 1
 1113 989 1087 978 1052 980 c 0
 1014 982 1009 1007 959 1009 c 0
 927 1010 893 1004 878 986 c 1
 835 1002 814 960 823 919 c 1
 723 728 l 1
 719 723 713 724 713 731 c 2
 713 788 l 2
 713 791 714 791 718 793 c 1
 753 801 760 848 745 871 c 0
 744 873 742 876 744 877 c 0
 782 927 746 985 685 983 c 1
 676 1015 655 1025 631 1025 c 0
 611 1025 585 1015 576 983 c 1
 515 985 479 927 517 877 c 0
 519 876 517 873 516 871 c 0
 501 848 508 801 543 793 c 1
 547 791 548 791 548 788 c 2
 548 731 l 2
 548 724 542 723 538 728 c 1
 438 919 l 1
 447 960 427 1002 383 986 c 1
 367 1004 334 1010 302 1009 c 0
 252 1007 247 982 209 980 c 0
 175 978 147 989 124 1008 c 1
 108 985 128 930 168 913 c 0
 172 911 173 908 170 905 c 0
 144 869 143 828 150 776 c 1
 162 702 241 672 229 579 c 1
 294 597 322 657 301 710 c 0
 299 714 301 715 304 717 c 1
 350 730 353 771 338 810 c 1
 267 782 246 860 302 876 c 0
 307 877 310 877 310 874 c 0
 310 849 337 835 361 843 c 1
 516 589 l 1
 511 582 506 575 504 569 c 1
 395 569 259 510 242 424 c 1
 204 419 186 390 186 350 c 1
 141 337 125 280 140 242 c 1
 125 166 100 102 49 38 c 0
 44 32 42 23 49 18 c 0
 77 2 88 4 119 5 c 0
 166 7 186 15 224 32 c 1
 263 10 304 4 337 4 c 0
 350 4 358 6 370 15 c 0
 372 16 376 20 375 23 c 0
 365 53 355 114 353 160 c 1
 396 176 413 240 392 289 c 1
 431 316 438 365 408 404 c 1
 428 437 494 460 537 460 c 0
 541 460 542 457 542 455 c 2
 542 395 l 1
 514 372 504 342 528 304 c 1
 482 278 463 214 493 177 c 1
 483 128 462 74 420 25 c 0
 419 23 420 18 424 16 c 0
 442 5 462 4 487 4 c 0
 528 4 596 20 627 39 c 1
 627 41 628 42 632 42 c 0
 633 42 634 41 634 39 c 1
 665 20 733 4 774 4 c 0
 799 4 819 5 837 16 c 0
 841 18 842 23 841 25 c 0
 799 74 778 128 768 177 c 1
 798 214 779 278 733 304 c 1
 757 342 747 372 719 395 c 1
 719 455 l 2
 719 457 720 460 724 460 c 0
 767 460 833 437 853 404 c 1
 823 365 830 316 869 289 c 1
 848 240 865 176 908 160 c 1
 906 114 896 53 886 23 c 0
 885 20 889 16 891 15 c 0
 903 6 911 4 924 4 c 0
 957 4 998 10 1037 32 c 1
 1076 15 1095 7 1142 5 c 0
 1173 4 1184 2 1212 18 c 0
151 886 m 0
 158 894 158 908 151 916 c 0
 144 923 129 923 122 916 c 0
 114 908 114 894 122 886 c 0
 129 879 144 879 151 886 c 0
347 685 m 0
 354 692 354 707 347 714 c 0
 339 721 325 721 317 714 c 0
 310 707 310 692 317 685 c 0
 325 677 339 677 347 685 c 0
1132 991 m 1
 1136 960 1100 921 1068 916 c 1
 1107 860 1107 835 1099 776 c 0
 1088 703 1019 691 1020 594 c 1
 977 611 946 676 983 718 c 1
 943 726 915 749 933 796 c 1
 966 784 996 799 1002 827 c 0
 1008 855 996 877 959 889 c 1
 957 927 934 967 889 981 c 1
 907 999 934 1002 959 999 c 0
 1002 994 1018 971 1051 969 c 0
 1084 966 1115 977 1132 991 c 1
941 871 m 0
 935 853 918 848 893 853 c 1
 896 882 868 911 836 917 c 1
 826 945 837 983 867 977 c 0
 890 972 919 961 934 934 c 0
 946 912 949 892 941 871 c 0
747 903 m 0
 746 897 742 880 728 886 c 0
 693 900 662 906 631 906 c 0
 598 906 568 900 533 886 c 0
 519 880 515 897 514 903 c 0
 506 951 551 977 586 977 c 1
 592 1007 612 1014 631 1014 c 0
 647 1014 669 1007 675 977 c 1
 710 977 755 951 747 903 c 0
884 841 m 1
 736 597 l 1
 712 611 l 1
 712 688 l 1
 830 907 l 1
 864 901 882 873 884 841 c 1
742 836 m 1
 741 819 730 804 713 801 c 1
 685 815 653 816 631 816 c 0
 612 816 576 815 548 801 c 1
 531 804 520 819 519 836 c 1
 517 852 524 868 537 875 c 0
 567 890 596 895 631 895 c 0
 665 895 695 890 724 875 c 0
 737 868 744 852 742 836 c 1
699 616 m 1
 678 624 654 627 631 627 c 0
 613 627 583 624 562 616 c 1
 562 791 l 1
 578 799 608 804 631 804 c 0
 653 804 683 799 699 791 c 1
 699 616 l 1
1003 428 m 1
 983 404 943 365 864 409 c 1
 833 454 778 468 720 471 c 1
 720 492 l 1
 747 501 767 529 757 558 c 1
 847 564 993 500 1003 428 c 1
1052 337 m 0
 1034 311 1008 292 968 288 c 1
 929 283 900 291 879 302 c 0
 860 312 847 329 847 358 c 0
 847 379 864 397 880 390 c 1
 895 382 924 375 945 379 c 1
 968 382 983 391 998 406 c 0
 1009 417 1036 411 1047 399 c 1
 1067 380 1067 358 1052 337 c 0
425 917 m 1
 393 911 365 882 367 853 c 1
 343 848 326 853 320 871 c 0
 312 892 315 912 327 934 c 0
 342 961 371 972 395 977 c 0
 424 983 435 945 425 917 c 1
549 611 m 1
 525 597 l 1
 377 841 l 1
 378 873 397 901 431 907 c 1
 549 688 l 1
 549 611 l 1
1113 264 m 1
 1109 235 1096 213 1071 197 c 1
 1080 151 1064 116 1030 106 c 0
 998 97 976 116 959 152 c 1
 938 155 913 166 896 181 c 0
 874 199 868 236 875 268 c 0
 878 279 884 286 895 283 c 0
 921 275 943 272 973 276 c 1
 1013 284 1041 302 1064 329 c 0
 1071 337 1084 332 1090 326 c 0
 1107 311 1118 290 1113 264 c 1
747 538 m 0
 744 517 728 508 709 499 c 1
 688 516 659 525 631 525 c 0
 601 525 573 516 552 499 c 1
 533 508 517 517 514 538 c 0
 509 565 527 585 549 597 c 0
 572 610 602 615 631 615 c 0
 659 615 690 610 712 597 c 0
 734 585 752 565 747 538 c 0
1203 28 m 1
 1176 11 1096 11 1037 44 c 1
 993 15 913 4 897 25 c 1
 911 60 917 113 919 152 c 1
 933 147 940 144 953 142 c 1
 962 112 991 85 1034 95 c 0
 1074 104 1093 149 1083 190 c 1
 1096 198 1106 211 1113 229 c 1
 1120 175 1157 86 1203 28 c 1
704 399 m 1
 682 388 659 385 631 385 c 0
 602 385 579 388 557 399 c 1
 557 485 l 1
 576 504 603 514 631 514 c 0
 658 514 685 504 704 485 c 1
 704 399 l 1
372 981 m 1
 327 967 304 927 302 889 c 1
 266 877 253 855 259 827 c 0
 266 799 295 784 328 796 c 1
 347 749 318 726 278 718 c 1
 315 676 284 611 241 594 c 1
 242 691 173 703 162 776 c 0
 154 835 154 860 193 916 c 1
 161 921 125 960 129 991 c 1
 146 977 177 966 210 969 c 0
 243 971 259 994 302 999 c 0
 327 1002 354 999 372 981 c 1
730 332 m 0
 729 322 719 309 706 302 c 0
 683 291 658 285 632 285 c 0
 607 285 578 291 556 302 c 0
 542 309 532 322 531 332 c 0
 526 360 536 375 557 387 c 1
 580 379 607 374 631 374 c 0
 654 374 681 379 704 387 c 1
 725 375 735 360 730 332 c 0
541 471 m 1
 483 468 428 454 397 409 c 1
 318 365 278 404 258 428 c 1
 268 500 414 564 504 558 c 1
 494 529 514 501 541 492 c 1
 541 471 l 1
758 192 m 0
 750 177 731 167 710 164 c 1
 697 123 665 106 631 104 c 1
 596 106 562 123 548 164 c 1
 528 166 511 178 503 192 c 1
 481 225 499 258 514 274 c 0
 524 284 533 294 558 286 c 0
 583 278 607 273 632 273 c 0
 658 273 678 278 703 286 c 0
 728 294 737 284 747 274 c 0
 762 258 778 226 758 192 c 0
822 31 m 1
 826 28 821 20 811 18 c 0
 750 10 687 25 631 58 c 1
 574 25 511 10 450 18 c 0
 440 20 435 28 439 31 c 1
 477 79 487 103 504 170 c 1
 517 162 528 154 541 151 c 1
 556 117 590 93 631 93 c 0
 673 93 706 118 720 152 c 1
 733 155 746 162 757 170 c 1
 774 103 784 79 822 31 c 1
414 358 m 0
 414 329 401 312 382 302 c 0
 361 291 332 283 292 288 c 0
 253 292 227 311 209 337 c 0
 194 358 194 380 214 399 c 1
 225 411 252 417 263 406 c 0
 278 391 292 382 316 379 c 1
 337 375 366 382 381 390 c 1
 397 397 414 379 414 358 c 0
386 268 m 0
 393 236 387 199 365 181 c 0
 348 166 323 155 302 152 c 1
 285 116 263 97 231 106 c 0
 197 116 181 151 191 197 c 1
 165 213 152 235 147 264 c 0
 143 290 154 311 171 326 c 0
 177 332 191 337 197 329 c 0
 220 302 248 284 288 276 c 1
 318 272 341 275 366 283 c 0
 377 286 383 279 386 268 c 0
364 25 m 1
 348 4 268 15 224 44 c 1
 165 11 85 11 58 28 c 1
 105 86 141 175 147 229 c 1
 155 211 165 198 178 190 c 1
 168 149 187 104 227 95 c 0
 270 85 299 112 308 142 c 1
 321 144 328 147 342 152 c 1
 344 113 350 60 364 25 c 1
1089 950 m 0
 1094 954 1093 955 1087 952 c 0
 1069 945 1055 943 1039 941 c 1
 1014 941 1004 943 983 950 c 0
 977 952 975 940 981 938 c 0
 1021 921 1042 882 1046 841 c 1
 1046 815 1034 791 1021 780 c 0
 1012 772 982 761 968 766 c 0
 961 768 957 763 965 761 c 1
 983 754 1015 763 1027 774 c 0
 1032 778 1039 784 1043 791 c 1
 1032 755 1008 723 1004 680 c 0
 1003 674 1007 674 1008 680 c 0
 1013 731 1055 767 1060 815 c 1
 1066 859 1043 906 1015 933 c 1
 1023 932 1034 932 1042 933 c 0
 1064 937 1080 943 1089 950 c 0
708 924 m 0
 685 940 660 949 635 950 c 1
 632 987 l 2
 632 993 629 993 629 987 c 2
 626 950 l 1
 601 949 576 940 552 924 c 0
 547 921 545 914 551 918 c 0
 601 945 659 946 707 919 c 0
 712 917 712 922 708 924 c 0
851 854 m 2
 854 860 844 865 841 859 c 2
 731 659 l 2
 728 653 737 648 741 654 c 2
 851 854 l 2
635 650 m 2
 635 782 l 2
 635 788 626 788 626 782 c 2
 626 650 l 2
 626 644 635 644 635 650 c 2
929 433 m 0
 917 454 905 472 873 492 c 0
 844 509 803 517 774 520 c 0
 768 520 768 511 774 510 c 0
 800 508 842 500 868 483 c 0
 896 465 910 446 922 428 c 0
 926 423 932 428 929 433 c 0
530 659 m 2
 420 859 l 2
 417 865 407 860 411 854 c 2
 520 654 l 2
 524 648 533 653 530 659 c 2
1078 275 m 0
 1082 284 1078 286 1073 279 c 0
 1060 258 1029 234 998 225 c 0
 966 216 930 226 910 234 c 1
 902 236 898 234 906 229 c 0
 924 219 964 209 994 213 c 1
 1001 200 1002 190 1007 176 c 1
 1010 164 1012 157 1014 146 c 0
 1015 139 1021 139 1020 147 c 0
 1019 159 1018 167 1015 181 c 0
 1013 195 1012 202 1007 215 c 1
 1037 225 1067 252 1078 275 c 0
713 549 m 0
 673 579 591 580 551 551 c 0
 546 547 551 540 556 543 c 0
 594 570 671 569 708 542 c 0
 713 538 718 546 713 549 c 0
1166 53 m 0
 1164 63 1155 69 1146 66 c 0
 1137 64 1131 56 1132 48 c 1
 1121 49 1111 50 1096 54 c 0
 1077 59 1055 69 1042 81 c 1
 1039 81 1031 80 1029 81 c 1
 1018 71 1018 67 998 58 c 0
 986 52 978 50 962 49 c 1
 961 56 956 64 948 65 c 0
 938 66 929 60 928 50 c 0
 927 42 934 33 943 32 c 0
 951 31 960 36 962 43 c 1
 973 43 988 45 999 49 c 0
 1020 56 1023 63 1036 71 c 1
 1052 60 1072 52 1095 47 c 0
 1111 43 1122 42 1133 42 c 1
 1137 34 1144 30 1153 32 c 0
 1163 34 1169 43 1166 53 c 0
635 404 m 2
 635 492 l 2
 635 498 626 498 626 492 c 2
 626 404 l 2
 626 398 635 398 635 404 c 2
296 761 m 1
 304 763 300 768 292 766 c 1
 279 761 250 772 240 780 c 0
 227 791 215 815 215 841 c 1
 219 882 240 921 280 938 c 0
 286 940 284 952 278 950 c 0
 257 943 247 941 222 941 c 1
 206 943 192 945 175 952 c 0
 168 955 167 954 172 950 c 0
 181 943 197 937 219 933 c 0
 227 932 238 932 246 933 c 1
 218 906 195 859 202 815 c 1
 206 767 248 731 253 680 c 1
 255 674 258 674 257 680 c 0
 253 723 229 755 218 791 c 1
 222 784 229 778 233 774 c 0
 246 763 278 754 296 761 c 1
487 510 m 0
 493 511 493 520 487 520 c 0
 458 517 417 509 388 492 c 0
 356 472 344 454 332 433 c 0
 329 428 336 423 339 428 c 0
 352 446 365 465 393 483 c 0
 419 500 461 508 487 510 c 0
785 53 m 1
 784 63 774 69 765 66 c 1
 757 65 752 59 751 53 c 1
 736 54 723 55 706 59 c 0
 681 64 658 74 635 87 c 1
 634 89 632 89 631 89 c 0
 628 89 627 89 626 87 c 1
 603 74 580 64 556 59 c 0
 538 55 525 54 510 53 c 1
 509 59 504 65 497 66 c 1
 487 69 477 63 476 53 c 0
 475 44 479 36 488 33 c 1
 498 31 510 36 510 45 c 2
 510 47 l 1
 525 47 542 48 558 52 c 1
 581 56 608 66 632 79 c 1
 653 66 680 56 703 52 c 1
 719 48 736 47 751 47 c 1
 751 45 l 2
 751 36 763 31 773 33 c 1
 782 36 787 44 785 53 c 1
355 229 m 0
 363 234 359 236 352 234 c 0
 331 226 295 216 263 225 c 0
 232 234 202 258 188 279 c 0
 183 286 180 284 183 275 c 1
 194 252 224 225 255 215 c 1
 250 202 248 195 246 181 c 0
 243 167 242 159 241 147 c 0
 240 139 246 139 247 146 c 0
 250 157 251 164 255 176 c 0
 259 190 261 200 267 213 c 1
 297 209 337 219 355 229 c 0
333 50 m 0
 332 60 323 66 313 65 c 0
 305 64 300 56 299 49 c 1
 283 50 275 52 263 58 c 0
 243 67 243 71 232 81 c 1
 230 80 222 81 219 81 c 1
 206 69 184 59 165 54 c 0
 150 50 140 49 129 48 c 1
 130 56 124 64 116 66 c 0
 106 69 97 63 95 53 c 0
 92 43 98 34 108 32 c 0
 117 30 124 34 128 42 c 1
 139 42 150 43 166 47 c 0
 189 52 209 60 225 71 c 1
 238 63 241 56 262 49 c 0
 273 45 288 43 299 43 c 1
 301 36 310 31 318 32 c 0
 327 33 334 42 333 50 c 0
635 202 m 1
 675 203 713 215 734 237 c 1
 737 242 736 246 731 241 c 0
 688 200 574 200 528 241 c 1
 524 246 521 243 525 239 c 0
 546 215 585 203 626 202 c 1
 628 141 l 2
 628 135 633 135 633 141 c 2
 635 202 l 1
631 37 m 0
 643 37 653 27 653 15 c 0
 653 2 643 -6 631 -6 c 0
 618 -6 608 2 608 15 c 0
 608 27 618 37 631 37 c 0
631 32 m 0
 622 32 613 23 613 15 c 0
 613 6 622 -1 631 -1 c 0
 639 -1 648 6 648 15 c 0
 648 23 639 32 631 32 c 0
222 28 m 0
 235 28 245 18 245 6 c 0
 245 -5 233 -15 222 -15 c 0
 211 -15 200 -5 200 6 c 0
 200 18 210 28 222 28 c 0
222 23 m 0
 214 23 205 15 205 6 c 0
 205 -2 214 -10 222 -10 c 0
 231 -10 240 -2 240 6 c 0
 240 15 231 23 222 23 c 0
1039 27 m 0
 1051 27 1061 17 1061 5 c 0
 1061 -6 1050 -16 1039 -16 c 0
 1027 -16 1016 -6 1016 5 c 0
 1016 17 1026 27 1039 27 c 0
1039 22 m 0
 1030 22 1021 14 1021 5 c 0
 1021 -4 1030 -11 1039 -11 c 0
 1047 -11 1056 -4 1056 5 c 0
 1056 14 1047 22 1039 22 c 0
773 613 m 0
 785 613 795 604 795 591 c 0
 795 580 784 570 773 570 c 0
 762 570 751 580 751 591 c 0
 751 604 761 613 773 613 c 0
773 608 m 0
 765 608 756 600 756 591 c 0
 756 582 765 575 773 575 c 0
 782 575 790 582 790 591 c 0
 790 600 782 608 773 608 c 0
490 612 m 0
 503 612 512 602 512 590 c 0
 512 579 501 569 490 569 c 0
 479 569 468 579 468 590 c 0
 468 602 478 612 490 612 c 0
490 607 m 0
 482 607 473 599 473 590 c 0
 473 581 482 574 490 574 c 0
 499 574 508 581 508 590 c 0
 508 599 499 607 490 607 c 0
EndSplineSet
Validated: 165
EndChar

StartChar: afii10025
Encoding: 1047 1047 51
Width: 718
Flags: W
LayerCount: 3
Fore
SplineSet
373 1011 m 0
 367 1001 354 998 343 1004 c 1
 333 1011 331 1024 336 1034 c 0
 341 1044 354 1047 364 1042 c 0
 375 1037 380 1023 373 1011 c 0
567 486 m 0
 561 475 547 470 537 476 c 0
 527 482 523 496 528 507 c 0
 533 517 547 520 557 516 c 0
 568 511 573 496 567 486 c 0
269 747 m 0
 263 737 249 731 238 738 c 1
 228 743 226 758 231 768 c 0
 235 778 249 781 259 776 c 0
 270 771 275 758 269 747 c 0
99 823 m 0
 93 813 80 810 70 816 c 0
 60 822 57 836 62 846 c 0
 67 855 81 859 91 854 c 0
 102 849 106 834 99 823 c 0
692 21 m 0
 690 1 674 -8 650 -13 c 1
 615 -18 576 -16 526 -1 c 1
 486 -18 443 -15 428 -13 c 1
 417 -39 357 -39 339 -13 c 1
 322 -34 294 -44 269 -12 c 1
 213 -19 162 -8 122 -3 c 1
 102 -3 75 -6 65 -24 c 0
 64 -26 63 -26 60 -24 c 0
 14 -8 18 164 49 190 c 1
 0 301 61 367 59 470 c 0
 59 474 61 476 65 474 c 0
 127 436 196 339 191 262 c 1
 228 256 253 215 240 187 c 1
 238 186 235 184 233 186 c 1
 214 194 192 169 197 150 c 1
 211 108 247 134 266 132 c 1
 285 183 319 178 338 150 c 1
 352 181 411 195 428 160 c 1
 441 160 453 167 459 186 c 1
 449 197 438 222 444 247 c 0
 448 262 456 274 463 280 c 1
 453 286 442 298 437 312 c 0
 433 324 434 340 442 354 c 1
 439 359 438 366 436 369 c 0
 430 379 427 388 420 396 c 1
 406 376 372 365 346 392 c 1
 310 372 270 367 238 313 c 1
 234 310 225 314 223 318 c 0
 209 361 235 445 273 493 c 1
 242 544 218 612 249 664 c 0
 252 669 262 669 264 665 c 0
 286 622 322 607 349 577 c 1
 370 599 404 590 417 568 c 1
 436 586 451 621 458 648 c 1
 427 673 417 711 438 747 c 1
 424 769 432 803 456 817 c 1
 449 851 438 874 424 879 c 1
 406 844 367 844 354 874 c 1
 330 844 290 849 278 880 c 1
 257 883 239 875 239 858 c 0
 239 843 255 833 274 842 c 0
 276 843 279 842 280 839 c 0
 292 813 269 774 234 769 c 1
 238 696 200 601 141 565 c 0
 138 563 135 565 135 570 c 0
 138 667 52 732 98 837 c 1
 70 862 65 967 108 983 c 0
 110 984 112 984 112 982 c 0
 122 964 148 967 167 967 c 1
 206 972 222 1006 278 1000 c 1
 301 1035 336 1024 356 1003 c 1
 373 1029 410 1026 424 1001 c 1
 516 980 577 907 608 820 c 1
 640 813 657 773 640 748 c 1
 661 705 653 664 622 641 c 1
 608 584 573 532 527 496 c 1
 556 475 573 449 586 422 c 1
 608 419 649 391 653 353 c 1
 653 340 652 326 646 315 c 1
 662 303 684 276 684 234 c 1
 683 204 667 181 651 166 c 1
 663 102 697 65 692 21 c 0
273 485 m 0
 267 475 253 469 243 475 c 0
 233 481 230 496 235 506 c 0
 240 516 254 519 264 514 c 0
 275 509 280 496 273 485 c 0
544 -7 m 0
 551 -18 547 -34 535 -39 c 1
 525 -45 511 -41 506 -30 c 1
 500 -20 502 -6 513 1 c 0
 523 8 538 3 544 -7 c 0
227 286 m 0
 233 275 229 259 217 254 c 0
 207 249 193 253 188 263 c 0
 182 274 185 288 196 294 c 1
 206 301 220 297 227 286 c 0
49 204 m 0
 56 192 52 177 40 172 c 1
 30 166 16 171 11 181 c 0
 6 192 8 206 18 213 c 1
 28 218 43 215 49 204 c 0
370 1016 m 1
 375 1024 370 1035 360 1039 c 0
 352 1042 341 1037 338 1029 c 0
 336 1021 341 1011 347 1008 c 0
 357 1003 367 1008 370 1016 c 1
564 490 m 0
 567 496 562 508 553 512 c 0
 544 516 533 511 531 501 c 1
 528 493 533 485 540 480 c 0
 549 475 559 480 564 490 c 0
265 750 m 0
 269 758 264 769 255 773 c 0
 247 776 235 771 233 763 c 0
 231 753 235 745 242 742 c 0
 252 737 261 742 265 750 c 0
97 828 m 0
 101 836 96 847 86 851 c 0
 78 854 67 849 65 841 c 0
 62 832 67 823 73 820 c 0
 83 815 93 820 97 828 c 0
686 22 m 0
 690 65 655 102 645 167 c 0
 645 169 646 170 646 171 c 0
 660 183 677 206 677 234 c 0
 678 276 655 301 641 311 c 0
 639 312 639 313 640 315 c 0
 646 326 648 339 646 353 c 0
 643 389 603 414 585 416 c 0
 583 416 582 417 582 417 c 1
 568 447 547 474 516 495 c 1
 564 531 602 581 617 639 c 0
 617 641 618 643 620 645 c 0
 647 664 658 710 633 749 c 1
 652 775 627 816 603 812 c 1
 573 899 511 975 419 995 c 1
 406 1016 373 1019 359 993 c 0
 357 990 354 990 352 993 c 0
 337 1011 304 1026 282 993 c 1
 224 1000 206 962 167 959 c 0
 146 957 119 957 107 974 c 1
 70 954 78 860 106 842 c 0
 107 841 108 839 107 837 c 0
 60 732 145 671 143 577 c 1
 196 614 229 703 227 773 c 0
 227 775 228 776 231 776 c 0
 259 779 280 808 274 832 c 1
 250 823 231 839 231 858 c 0
 231 880 257 896 282 886 c 1
 292 858 333 854 351 886 c 0
 354 890 357 890 358 885 c 0
 367 853 403 854 417 885 c 0
 419 888 420 888 422 888 c 0
 443 885 457 853 465 813 c 1
 443 808 429 770 446 747 c 1
 420 711 438 670 464 650 c 1
 464 646 l 1
 457 616 438 578 415 559 c 1
 403 585 370 591 349 568 c 1
 322 601 282 619 259 663 c 0
 259 664 255 663 254 661 c 0
 223 610 249 543 280 495 c 0
 280 494 280 492 280 491 c 0
 243 444 215 362 230 320 c 1
 230 320 232 316 233 318 c 0
 267 374 309 375 349 400 c 1
 372 370 407 383 419 407 c 1
 429 396 436 383 441 373 c 0
 444 367 445 360 448 356 c 0
 448 355 448 354 448 353 c 0
 441 340 439 326 443 314 c 0
 448 299 460 287 469 282 c 0
 472 281 472 280 470 277 c 1
 464 272 454 260 450 246 c 1
 445 222 454 198 464 187 c 0
 465 187 466 186 465 185 c 0
 458 164 448 155 427 152 c 0
 424 152 423 152 422 155 c 0
 407 186 352 171 343 139 c 0
 342 134 338 135 336 138 c 0
 321 169 290 170 271 126 c 1
 247 115 197 102 188 150 c 0
 183 177 208 204 233 196 c 1
 240 220 217 251 188 254 c 0
 185 254 183 255 183 258 c 0
 186 331 123 423 66 462 c 1
 73 366 8 300 58 190 c 0
 59 187 58 186 56 186 c 1
 28 165 21 5 59 -15 c 1
 71 3 101 8 122 5 c 1
 162 3 216 -12 274 -6 c 1
 296 -35 322 -24 336 -4 c 0
 338 -1 341 -1 343 -4 c 0
 357 -30 411 -33 425 -6 c 1
 442 -8 486 -11 525 6 c 1
 575 -10 615 -12 648 -6 c 0
 669 -3 684 5 686 22 c 0
270 488 m 0
 273 496 269 507 259 511 c 0
 251 514 240 509 238 501 c 0
 235 492 240 483 246 480 c 0
 256 475 266 480 270 488 c 0
542 -13 m 1
 538 -3 527 2 517 -3 c 0
 511 -7 506 -16 508 -25 c 0
 511 -34 522 -39 532 -36 c 1
 540 -32 546 -20 542 -13 c 1
223 281 m 1
 220 291 209 296 199 291 c 1
 193 286 188 277 191 268 c 0
 193 259 205 254 214 258 c 0
 223 262 228 274 223 281 c 1
47 199 m 1
 43 209 33 213 23 209 c 1
 16 204 11 196 13 186 c 1
 16 177 28 172 37 176 c 0
 46 180 51 192 47 199 c 1
594 812 m 1
 575 801 569 799 540 799 c 0
 514 799 500 802 476 815 c 1
 467 858 449 894 424 898 c 1
 410 931 412 952 422 985 c 1
 500 969 563 900 594 812 c 1
414 896 m 1
 406 880 401 874 385 872 c 0
 368 869 351 921 351 940 c 0
 351 969 363 1001 388 1005 c 0
 399 1006 410 997 412 988 c 1
 401 959 401 921 414 896 c 1
631 773 m 0
 629 753 623 747 612 742 c 0
 591 732 566 727 542 727 c 0
 517 727 490 732 469 742 c 0
 459 747 450 754 448 774 c 1
 448 788 457 803 474 806 c 1
 495 791 514 788 542 788 c 0
 564 788 585 793 599 803 c 1
 616 808 632 786 631 773 c 0
351 978 m 1
 337 953 338 927 349 900 c 1
 342 885 331 872 315 872 c 0
 286 872 279 916 278 941 c 1
 276 964 291 1005 315 1004 c 0
 331 1003 344 992 351 978 c 1
638 706 m 0
 639 686 634 663 612 648 c 1
 605 612 566 590 532 590 c 0
 499 590 479 617 478 649 c 1
 454 665 445 684 443 710 c 0
 443 721 448 731 454 741 c 1
 476 726 508 718 542 718 c 0
 575 718 606 727 627 742 c 1
 633 732 637 717 638 706 c 0
595 603 m 1
 582 568 548 530 509 501 c 0
 506 499 504 491 509 487 c 0
 538 469 563 442 574 412 c 1
 558 372 500 354 455 360 c 1
 448 381 437 403 422 417 c 1
 407 436 406 542 421 551 c 0
 427 555 453 585 469 638 c 0
 470 638 470 638 471 638 c 0
 476 596 505 581 532 581 c 0
 553 581 575 589 592 604 c 1
 595 603 l 1
276 983 m 1
 263 962 264 927 275 899 c 1
 245 906 218 884 219 858 c 1
 221 834 242 818 265 820 c 1
 266 797 238 786 214 784 c 1
 224 753 205 645 151 596 c 1
 141 692 67 752 125 843 c 1
 99 853 78 924 104 962 c 1
 123 946 144 948 169 950 c 0
 202 953 253 995 276 983 c 1
637 348 m 1
 639 315 613 291 581 281 c 1
 535 265 479 275 454 309 c 1
 448 320 448 343 457 353 c 1
 494 345 565 366 581 407 c 1
 606 402 634 379 637 348 c 1
415 417 m 1
 408 403 402 393 386 392 c 0
 354 391 335 428 333 475 c 0
 331 516 345 576 381 576 c 0
 398 576 403 565 410 551 c 1
 396 522 401 442 415 417 c 1
346 561 m 1
 338 550 332 536 328 520 c 1
 320 538 301 564 290 578 c 0
 281 588 274 596 269 606 c 0
 266 612 264 610 266 605 c 0
 270 596 275 584 285 575 c 1
 295 562 317 517 325 497 c 1
 324 491 324 484 324 477 c 1
 318 455 290 428 279 416 c 0
 270 406 264 396 258 386 c 0
 254 381 257 379 261 384 c 1
 266 393 275 402 285 412 c 0
 295 423 316 438 326 453 c 1
 329 433 335 417 344 407 c 1
 304 383 260 381 235 335 c 1
 229 405 273 470 291 494 c 1
 276 518 232 593 257 650 c 1
 275 614 316 596 346 561 c 1
666 234 m 1
 664 208 653 188 634 176 c 1
 632 139 590 83 539 88 c 0
 497 92 472 140 475 190 c 1
 464 202 454 224 460 247 c 0
 464 260 470 265 480 275 c 1
 544 247 603 265 636 303 c 1
 656 282 667 263 666 234 c 1
677 23 m 0
 677 8 662 5 648 3 c 0
 608 -1 559 -2 523 24 c 1
 501 -4 422 2 422 2 c 1
 412 32 412 111 428 142 c 1
 443 143 459 152 464 167 c 1
 468 166 l 1
 467 122 503 81 537 78 c 0
 584 74 624 108 637 155 c 1
 640 155 l 1
 648 109 679 70 677 23 c 0
418 143 m 1
 403 121 398 27 413 -2 c 1
 411 -11 400 -17 389 -17 c 0
 342 -18 336 37 334 65 c 1
 333 100 349 165 391 160 c 0
 406 159 411 160 418 143 c 1
268 4 m 1
 244 -8 159 11 123 15 c 0
 97 18 76 14 56 -3 c 1
 28 38 49 173 77 184 c 1
 16 280 75 341 76 442 c 1
 140 395 181 277 170 246 c 1
 196 244 225 232 223 209 c 1
 199 210 169 183 176 150 c 0
 191 88 238 105 264 113 c 1
 253 85 254 25 268 4 c 1
334 11 m 1
 328 -3 322 -13 307 -14 c 0
 282 -15 269 23 268 62 c 0
 267 88 279 149 307 149 c 0
 323 149 328 139 334 124 c 1
 323 97 321 35 334 11 c 1
536 827 m 0
 532 846 520 874 502 895 c 1
 485 917 463 936 448 941 c 0
 442 943 438 933 445 931 c 0
 458 927 479 910 495 890 c 0
 511 869 522 843 526 825 c 0
 528 818 538 821 536 827 c 0
607 697 m 0
 612 702 608 705 603 701 c 0
 587 688 563 684 542 683 c 1
 519 683 496 688 480 701 c 0
 475 705 471 702 476 697 c 0
 492 680 513 671 537 673 c 1
 537 645 526 625 526 625 c 2
 524 617 535 613 538 622 c 1
 538 622 549 646 548 673 c 1
 570 671 591 680 607 697 c 0
237 921 m 0
 244 923 242 938 233 936 c 0
 210 931 186 905 162 904 c 1
 148 902 129 909 124 920 c 0
 120 928 114 925 118 917 c 0
 125 901 143 894 162 893 c 0
 171 893 182 894 190 896 c 1
 160 864 149 818 154 769 c 0
 158 726 161 724 159 685 c 0
 159 677 162 679 164 687 c 0
 169 724 169 726 165 769 c 0
 161 806 167 841 183 868 c 1
 182 862 182 855 182 849 c 0
 183 829 209 806 227 808 c 1
 235 810 238 811 229 812 c 0
 209 816 193 834 193 849 c 0
 192 888 215 916 237 921 c 0
510 402 m 0
 497 430 469 466 441 486 c 1
 468 507 485 528 500 552 c 0
 503 558 494 563 490 557 c 0
 476 532 459 512 429 490 c 1
 430 481 l 1
 459 464 488 426 501 399 c 0
 504 393 512 397 510 402 c 0
622 228 m 0
 627 233 623 237 618 234 c 0
 601 221 583 215 559 215 c 0
 537 215 521 221 503 232 c 0
 497 235 495 231 500 227 c 0
 514 214 532 202 555 202 c 1
 554 187 553 177 550 161 c 0
 547 145 547 140 542 123 c 0
 540 118 549 115 552 122 c 1
 556 138 557 143 560 160 c 1
 564 176 564 186 565 202 c 1
 589 203 606 214 622 228 c 0
231 59 m 0
 189 63 188 76 167 87 c 1
 155 107 150 129 148 152 c 1
 142 190 165 213 186 216 c 0
 196 218 193 218 183 220 c 0
 160 223 130 195 133 158 c 1
 117 186 115 223 118 262 c 1
 123 307 119 320 106 348 c 0
 102 356 98 358 101 349 c 0
 112 308 111 307 107 262 c 0
 102 210 111 124 142 91 c 1
 133 93 123 95 113 95 c 0
 92 93 75 86 66 69 c 1
 63 61 69 57 73 66 c 0
 78 78 98 83 113 83 c 0
 162 82 171 48 228 46 c 0
 236 46 237 58 231 59 c 0
EndSplineSet
Validated: 37
EndChar

StartChar: afii10026
Encoding: 1048 1048 52
Width: 773
Flags: HW
HStem: -14 5<197.466 213.299 559.47 575.031> -5 7<51.9586 141.171 266.592 358.881 414.414 504.48 629.395 721.253> 402.913 84.0872<162.459 199 210 247.163 524.819 561 572 610.088> 496 42.032<136.477 267.576 499.041 629.471> 550.426 74.4269<134.642 281.124 470.308 643.11> 569 71.6159<109.852 208.461> 983.891 3.6391<56.3423 104.931 304.272 353.547 418.91 467.945 667.185 715.772> 992 6<194.105 211.831 556.624 573.821>
VStem: 33.2588 8.25626<8.22491 23.5351 968.147 977.605> 71.7413 7.03394<498.685 537.778> 120 6<301.688 447.908 653.526 726.123> 138.057 60.9429<181.031 348 674 834.924> 181 5<970.771 982.994> 186 5<-3.06827 7.44162> 208 63<186.642 348 674 840.444> 218 5<-4.29674 7.14439 969.144 985.373> 283 8<291.532 362 653.063 715.202> 315.645 7.73837<588.159 624.134> 330.41 6.58859<503.104 537.465> 368.685 7.99643<8.22252 23.2138 968.234 977.487> 395.739 7.9921<8.71727 23.5523 967.538 977.343> 482 7<296.992 448.529 655 731.506> 501 60<185.218 348 674 834.924> 543.888 5.11182<970.353 983.594> 549 5<-3.6559 7.67091> 571 63<186.642 348 674 840.444> 581.078 4.92151<-2.60938 6.9798 969.345 983.689> 647 6<296.992 447.86 653.447 726.123> 678.344 7.43127<588.778 624.015> 693.467 7.34589<496.976 538.429> 730.716 8.45074<8.04152 23.416 968.637 977.571>
DStem2: 336 509 320 483 0.709202 0.705005<0 206.474>
LayerCount: 3
Fore
SplineSet
291 655 m 1xf3e9fc1e
 309 645 323 629 323 607 c 0
 323 592 318 581 309 571 c 1
 326 561 337 543 337 521 c 0
 337 517 337 513 336 509 c 1
 482 655 l 1
 482 783 462 871 400 967 c 0
 399 969 398 972 398 973 c 0
 398 983 416 988 440 988 c 0
 472 988 515 981 545 970 c 1
 544 973 544 975 544 977 c 0xf3e9fd1e
 544 988 553 998 565 998 c 0
 576 998 586 988 586 977 c 0
 586 974 585 972 584 969 c 1
 615 980 660 988 694 988 c 0
 719 988 736 983 736 974 c 0
 736 972 736 970 734 967 c 0
 674 871 653 783 653 655 c 1
 672 644 686 629 686 604 c 0
 686 591 680 580 672 571 c 1
 690 560 701 541 701 515 c 0
 701 491 689 465 653 447 c 1
 653 343 l 2
 653 242 704 75 733 28 c 0
 736 24 739 19 739 14 c 0
 739 4 729 -5 689 -5 c 0
 651 -5 613 -1 586 7 c 1
 586 6 586 5 586 4 c 0
 586 -5 577 -14 569 -14 c 0
 568 -14 l 0
 558 -14 549 -5 549 5 c 0
 549 6 549 7 549 8 c 1
 523 -1 486 -5 447 -5 c 0
 405 -5 396 5 396 15 c 0
 396 20 398 24 400 28 c 0
 430 75 482 242 482 343 c 2
 482 447 l 1
 452 463 437 489 436 508 c 1
 291 362 l 1
 291 343 l 2
 291 242 341 75 371 28 c 0
 374 24 377 19 377 14 c 0
 377 4 366 -5 326 -5 c 0
 287 -5 249 -1 223 7 c 1
 223 6 223 5 223 4 c 0
 223 -6 216 -14 206 -14 c 0
 196 -14 186 -6 186 4 c 0xf3e5fcbe
 186 5 186 6 186 7 c 1
 160 -1 122 -5 84 -5 c 0
 43 -5 33 5 33 15 c 0
 33 20 36 24 38 28 c 0
 67 75 120 242 120 343 c 2
 120 447 l 1
 82 466 72 494 72 519 c 0
 72 543 83 561 100 571 c 1
 91 580 87 592 87 606 c 0
 87 629 102 645 120 655 c 1
 120 783 99 871 38 967 c 0
 37 969 36 972 36 973 c 0
 36 983 54 988 78 988 c 0
 109 988 152 981 181 971 c 1
 181 972 181 973 181 975 c 0
 181 987 190 998 202 998 c 0
 215 998 223 989 223 977 c 0
 223 974 223 972 222 969 c 1
 252 980 298 988 332 988 c 0
 356 988 374 983 374 974 c 0
 374 972 374 969 372 967 c 0
 312 871 291 783 291 655 c 1xf3e9fc1e
667 607 m 0
 667 565 616 550 574 550 c 0
 543 550 512 557 492 569 c 0xf7f2fc1e
 491 570 490 570 488 570 c 0
 482 570 472 564 462 554 c 2
 271 364 l 1
 271 343 l 2
 271 231 319 69 350 18 c 1
 340 16 328 16 317 16 c 0
 275 16 229 25 206 45 c 1
 181 26 133 15 91 15 c 0
 79 15 68 15 58 17 c 1
 88 65 138 224 138 336 c 0
 138 339 138 341 138 343 c 2
 138 444 l 1
 151 411 171 392 205 392 c 0
 229 392 248 402 261 422 c 1
 285 436 l 1
 480 632 l 2
 489 640 495 644 505 640 c 0
 530 630 552 625 572 625 c 0xfbf2fc1e
 592 625 610 629 632 639 c 0
 633 640 635 640 636 640 c 0
 648 640 667 625 667 607 c 0
316 606 m 0
 316 627 302 644 285 651 c 1
 285 783 304 868 365 966 c 0
 367 968 367 970 367 972 c 0
 367 980 353 984 332 984 c 0
 298 984 247 974 218 961 c 1
 216 959 205 952 201 955 c 1
 194 956 188 959 185 963 c 1
 155 975 109 984 77 984 c 0
 57 984 43 980 43 972 c 0
 43 970 44 968 45 966 c 0
 106 868 126 783 126 651 c 1
 111 645 96 629 94 613 c 1
 93 596 99 582 107 573 c 0
 110 570 109 568 106 567 c 0
 93 560 79 541 79 520 c 0
 79 497 91 470 126 452 c 1
 127 343 l 2
 127 240 74 72 45 23 c 0
 43 21 42 18 42 15 c 0
 42 8 50 2 84 2 c 0
 126 2 168 7 192 17 c 0
 194 19 206 25 207 23 c 1
 232 7 280 2 326 2 c 0
 360 2 369 8 369 15 c 0
 369 17 367 20 365 23 c 0
 335 72 283 240 283 343 c 2
 283 365 l 1
 442 524 l 1
 442 522 442 519 442 517 c 0
 442 494 455 469 489 452 c 1
 490 343 l 2
 491 240 437 72 407 23 c 0
 405 21 404 18 404 15 c 0
 404 8 412 2 447 2 c 0
 488 2 529 7 553 16 c 1
 555 18 569 25 570 23 c 1
 595 7 642 2 689 2 c 0
 722 2 731 8 731 14 c 0
 731 17 729 20 727 23 c 0
 697 72 646 240 646 343 c 2
 647 452 l 1
 681 469 693 495 693 518 c 0
 693 540 681 559 666 567 c 0
 663 568 662 570 664 573 c 0
 672 581 678 593 678 607 c 0
 678 628 664 644 647 651 c 1
 647 783 667 868 727 966 c 0
 729 968 729 970 729 972 c 0
 729 980 715 984 695 984 c 0
 659 984 606 973 578 960 c 0
 576 958 567 952 564 955 c 1
 558 955 553 958 549 963 c 1
 520 975 472 984 440 984 c 0
 419 984 405 980 405 972 c 0
 405 970 406 968 407 966 c 0
 469 868 489 783 489 651 c 1
 320 483 l 1
 328 495 330 508 330 518 c 0
 330 540 319 558 303 567 c 0
 301 568 299 570 302 573 c 0
 309 581 316 592 316 606 c 0
485 45 m 0
 496 52 486 68 475 60 c 0
 471 58 470 52 473 48 c 0
 475 44 480 43 485 45 c 0
662 56 m 0
 659 61 652 61 648 59 c 1
 640 51 648 40 658 44 c 0
 663 47 664 52 662 56 c 0
621 72 m 1
 613 85 608 95 600 104 c 1
 589 124 571 161 571 198 c 2
 571 348 l 2
 571 355 561 355 561 348 c 2
 561 199 l 2xf3e0fe5e
 561 162 541 124 532 106 c 0
 524 92 519 82 511 71 c 1
 523 85 529 95 536 104 c 0
 543 114 559 133 566 157 c 1
 573 133 587 116 594 104 c 1
 602 95 610 82 621 72 c 1
646 516 m 0
 651 520 646 527 641 524 c 0
 619 509 597 496 567 496 c 0
 535 496 512 509 490 522 c 0
 484 526 477 515 484 512 c 1
 505 498 530 488 561 487 c 1
 562 429 l 2
 562 422 572 422 572 429 c 2
 572 487 l 1
 602 488 625 499 646 516 c 0
627 925 m 1
 614 917 602 903 594 894 c 1
 587 882 573 865 566 841 c 1
 559 865 543 884 536 894 c 0
 529 905 522 916 506 927 c 1
 518 916 523 906 532 894 c 1
 543 875 561 836 561 799 c 2
 561 674 l 2
 561 666 571 666 571 674 c 2
 571 800 l 2
 571 837 588 875 600 894 c 0
 608 905 615 916 627 925 c 1
466 932 m 0
 477 924 488 941 476 946 c 1
 465 953 458 937 466 932 c 0
657 933 m 1
 668 925 678 941 667 948 c 1
 656 952 647 938 657 933 c 1
712 18 m 1
 702 16 691 16 679 16 c 0
 638 16 592 25 569 45 c 1
 543 26 496 15 453 15 c 0
 442 15 431 15 421 17 c 1
 452 66 502 230 501 343 c 1
 501 444 l 1
 513 411 534 392 567 392 c 0
 599 392 619 408 634 442 c 1
 634 343 l 1
 636 231 682 69 712 18 c 1
683 519 m 0
 682 484 648 463 624 449 c 1
 615 425 596 403 567 403 c 0
 539 403 518 425 512 450 c 1
 485 463 455 484 454 516 c 0
 454 531 468 545 476 552 c 0
 481 556 487 558 495 556 c 1
 522 544 546 537 572 537 c 0
 597 537 622 543 650 556 c 0
 655 558 662 557 666 553 c 0
 677 543 683 533 683 519 c 0
714 971 m 1
 666 890 635 822 635 653 c 1
 611 643 596 638 570 638 c 0
 543 638 525 644 501 655 c 1
 501 826 458 910 420 972 c 1
 423 972 426 972 428 972 c 0
 483 972 545 954 566 935 c 1
 587 953 650 971 709 971 c 0
 711 971 712 971 714 971 c 1
578 967 m 1
 580 970 581 973 581 976 c 0
 581 984 573 992 565 992 c 0
 556 992 549 983 549 975 c 0xf3e0fd3e
 549 973 550 970 551 968 c 1
 557 966 562 964 566 961 c 1
 569 963 573 965 578 967 c 1
122 45 m 1
 133 52 123 69 112 60 c 0
 104 54 111 41 122 45 c 1
299 56 m 1
 295 67 277 56 283 47 c 0
 290 38 306 46 299 56 c 1
259 72 m 1
 250 85 245 95 238 104 c 1
 227 124 208 161 208 198 c 2
 208 348 l 2
 208 355 199 355 199 348 c 2
 199 199 l 2xf3f2fc1e
 199 162 179 124 169 106 c 0
 162 92 157 82 148 71 c 1
 160 85 167 95 174 104 c 1
 180 114 196 133 204 157 c 1
 211 133 224 116 232 104 c 0
 239 95 248 82 259 72 c 1
283 516 m 0
 288 520 283 527 279 524 c 0
 256 509 234 496 205 496 c 0
 173 496 149 509 127 522 c 0
 121 526 115 515 121 512 c 0
 142 498 168 488 199 487 c 1
 200 429 l 2
 200 422 210 422 210 429 c 2
 210 487 l 1
 239 488 262 499 283 516 c 0
265 925 m 1
 251 917 239 903 232 894 c 0
 224 882 211 865 204 841 c 1
 196 865 180 884 174 894 c 0
 167 905 159 916 143 927 c 1
 156 916 160 906 169 894 c 1
 180 875 199 836 199 799 c 2
 199 674 l 2
 199 666 208 666 208 674 c 2
 208 800 l 2
 208 837 226 875 238 894 c 0
 245 905 253 916 265 925 c 1
104 932 m 1
 113 923 126 941 114 946 c 1
 103 953 94 937 104 932 c 1
294 933 m 0
 305 925 315 941 304 948 c 1
 294 952 286 939 294 933 c 0
320 519 m 0
 319 484 294 457 270 442 c 1
 251 434 235 403 208 403 c 0
 177 403 156 426 149 450 c 1
 122 463 93 484 92 516 c 0
 92 535 100 558 119 558 c 0
 121 558 123 558 125 557 c 0
 152 545 180 538 209 538 c 0
 234 538 260 543 287 556 c 0
 292 558 299 557 303 553 c 0
 314 543 320 533 320 519 c 0
304 607 m 0
 304 566 257 550 210 550 c 0xfbe0fc1e
 179 550 147 558 130 569 c 0
 119 576 106 589 106 607 c 0
 106 626 127 641 138 641 c 0xf7e0fc1e
 140 641 141 640 142 640 c 0
 167 630 189 625 209 625 c 0xfbe0fc1e
 229 625 248 629 270 639 c 0
 271 640 273 640 274 640 c 0
 286 640 304 625 304 607 c 0
351 971 m 1
 303 890 272 822 272 653 c 1
 249 643 233 638 207 638 c 0
 180 638 163 644 138 655 c 1
 138 826 95 910 57 972 c 1
 60 972 63 972 66 972 c 0
 121 972 182 954 204 935 c 1
 225 953 288 971 346 971 c 0
 348 971 349 971 351 971 c 1
218 977 m 0xf3e9fc1e
 218 986 211 992 202 992 c 0
 194 992 186 983 186 975 c 0
 186 973 187 970 188 968 c 1
 194 966 199 964 204 961 c 1
 207 963 211 964 214 966 c 1
 217 969 218 973 218 977 c 0xf3e9fc1e
556 10 m 1
 555 8 554 6 554 4 c 0xf3e0fc9e
 554 -3 560 -9 567 -9 c 0
 568 -9 568 -9 569 -9 c 0
 575 -9 581 -2 581 4 c 0
 581 6 581 7 580 9 c 1
 575 11 570 13 566 15 c 1
 563 13 559 12 556 10 c 1
192 10 m 1
 191 8 191 6 191 4 c 0
 191 -4 199 -9 206 -9 c 0
 213 -9 218 -4 218 4 c 0xf3e5fc1e
 218 6 218 8 217 9 c 1
 212 11 208 13 204 15 c 1
 201 13 197 11 192 10 c 1
EndSplineSet
EndChar

StartChar: afii10028
Encoding: 1050 1050 54
Width: 871
Flags: HW
HStem: -22.6299 4.62994<635.464 653.223> -13.9083 4.65831<234.843 253.678> -6 10<73.3455 161.349 325.798 413.634 486.957 568.32 718.059 794.79> 13.2294 18.0359<110.942 146.308 347.924 377.233 516.254 546.809 743.044 770.383> 81 7.89209<636.144 646.511> 100.045 111.702<235 279.125 570.955 634.611> 216.946 58.7019<162.587 308.54 511.329 631.779> 288.611 83.4624<156.34 304.392 456.811 583.26> 302 91.4238<241.209 316.777 440.148 527.955> 384.573 128.183<154.949 290.48> 471 21<314 332.663> 524 40<153.146 295.828 361.088 435.018> 569 7<353.355 356.995 360.526 383.596> 576 38.1445<158.928 292.475> 613.971 5.20734<372.239 385.072> 628.054 168.592<196.22 292.333> 672.038 4.71167<535.371 554.809> 761.748 27.9515<580.634 606.363> 801.048 9.19281<544.664 583.557> 807.858 85.9219<192.995 314.45> 826.48 11.8803<517.702 551.11> 873.33 4.50568<732.027 748.857> 888.823 86.274<135.282 157.579 295.919 326.232> 906.07 33.9297<190.85 292.403> 914 57.6953<454.792 492.333> 939 26.764<629.975 704.017> 975 22.1412<533.901 537.984> 976.937 10.0088<646.387 704.717> 983.678 8.96924<285.137 306.615 466.485 510.464> 1007 9<540.775 604.5> 1029.25 5.15137<154.785 169.833 285.114 305.495>
VStem: 36.3207 12.3816<15.3232 33.0689> 67.1373 49.3931<21.5523 50.2994> 76.9578 10.1368<233.198 289.599> 88.6862 10.0075<525.78 568.948> 95.4173 9.25543<331.882 378.188 809.814 857.18 901.146 927.423> 118.447 223.488<524.68 587.582 808.61 872.488 906.173 921.448> 129 7<403.143 488.857> 137.889 4.8152<998.274 1018.17> 151 8<618.23 751.041> 173 45<648 768> 229 64<404 493 648 768> 264.378 4.15921<1.85293 17.8605> 307 9<744 783.893> 313 10<393.174 450 998.351 1019.39> 340.29 10.5047<323.186 367.986> 355.276 9.4892<799.084 860.516 893.763 939.972> 376.002 10.4803<192.526 249.341> 396.008 3.84668<585.919 602.184> 409.403 11.4309<323.48 378.434> 428.612 8.86438<917.725 952.124> 436.611 10.05<211.284 273.919> 510 51.4649<851.713 894.666> 519.847 4.90314<689.092 707.127> 521.058 9.8667<743.791 797.767> 559.079 10.0476<643.656 676.839> 564.153 11.8469<685.923 710.276 849.751 865> 582.525 53.4746<640.162 672.229> 597.852 9.13452<823.472 851.071> 618.638 5.21307<-6.86658 10.4192> 619.406 42.5943<796.863 874.493> 626 54.9365<145.677 197.574> 646.763 9.71869<576 628.53> 665.174 4.44806<-6.0442 11.0765> 676.268 42.9424<757.927 891.658> 683 8<355.135 378.734> 690 31<169.079 196.209> 733.487 9.82568<244.711 302.842 786.232 848.772> 761 4.62994<889.339 907.909 971.652 995.051> 823.938 9.08496<20.3108 38.3692>
DStem2: 305 688 325 659 0.544852 0.838532<0 225.572> 316 744 316 728 0.545456 0.83814<0 213.646> 335 654 330 597 0.576417 0.817156<-2.00977 236.513> 339 589 349 586 0.574769 0.818316<1.28636 5.84565 8.41122 40.9349 43.6789 301.177>
LayerCount: 3
Fore
SplineSet
644 -18 m 0xfe1000070003c0111c
 656 -18 665 -8 665 3 c 0
 665 6 664 10 662 14 c 1
 656 16 650 19 645 22 c 1
 639 19 633 16 627 13 c 1
 625 10 624 6 624 3 c 0
 624 -8 633 -18 644 -18 c 0xfe1000070003c0111c
372 619 m 2
 373 619 374 619 375 619 c 0
 389 619 400 608 400 593 c 0
 400 585 397 578 392 574 c 1
 495 563 616 512 635 433 c 1
 674 425 690 399 691 356 c 1
 727 348 743 308 743 274 c 0
 743 262 742 252 738 243 c 1
 753 167 779 106 827 45 c 0
 831 40 833 33 833 27 c 0
 833 22 831 17 827 14 c 0
 806 -1 786 -4 764 -4 c 0
 726 -4 692 2 668 11 c 1
 669 8 670 5 670 2 c 0
 670 -11 659 -23 644 -23 c 0
 630 -23 619 -10 619 4 c 0
 619 6 619 8 620 11 c 1
 579 -5 538 -6 511 -6 c 0
 495 -6 487 -4 473 5 c 1
 463 10 462 16 463 26 c 1
 473 55 485 108 486 154 c 1
 455 171 437 205 437 241 c 0
 437 256 440 271 446 286 c 1
 423 303 409 326 409 350 c 0
 409 367 416 386 430 404 c 1
 412 431 362 447 323 450 c 1
 323 397 l 1
 341 384 351 367 351 348 c 0
 351 335 346 321 337 306 c 1
 368 288 386 254 386 221 c 0
 386 205 382 189 372 175 c 1
 382 125 402 77 441 31 c 0
 446 26 446 11 436 6 c 0
 415 -5 396 -6 368 -6 c 0
 333 -6 298 4 268 18 c 1
 268 16 269 13 269 11 c 0
 269 -2 257 -14 244 -14 c 0
 229 -14 216 2 219 17 c 1
 190 4 155 -6 124 -6 c 0
 115 -6 108 -6 102 -6 c 0
 87 -6 36 -0 36 25 c 0
 36 28 37 31 40 33 c 0
 79 65 99 113 109 193 c 1
 88 209 77 236 77 262 c 0
 77 287 86 309 105 321 c 1
 98 329 94 341 94 353 c 0
 94 375 107 399 129 404 c 1
 129 487 l 1
 107 500 89 518 89 549 c 0xfe12ac17642fd2b15c
 89 583 122 611 151 619 c 1
 151 750 l 1
 118 760 95 800 95 834 c 0
 95 850 100 865 112 876 c 1
 101 887 96 901 96 915 c 0
 96 944 115 974 148 988 c 1
 142 992 138 1000 138 1009 c 0
 138 1022 149 1033 162 1033 c 0
 173 1033 183 1025 186 1015 c 1
 197 1027 214 1035 230 1035 c 0
 245 1035 260 1029 271 1017 c 1
 274 1027 285 1034 296 1034 c 0
 308 1034 321 1023 321 1009 c 0
 321 1000 316 992 309 988 c 1
 344 979 366 951 366 918 c 0
 366 904 362 889 353 875 c 1
 361 864 365 852 365 840 c 0
 365 813 347 788 316 783 c 1
 316 744 l 1
 430 918 l 1
 429 923 429 928 429 933 c 0
 429 966 451 993 482 993 c 0xfe12ac0f1313e0001c
 488 993 495 991 502 989 c 1
 517 1005 540 1016 575 1016 c 0
 627 1016 630 987 671 987 c 0
 702 987 731 1000 749 1015 c 1
 752 1016 754 1016 757 1015 c 1
 764 1008 767 998 767 986 c 0
 767 966 758 942 742 924 c 1
 756 922 766 912 766 898 c 0
 766 884 754 873 740 873 c 0
 737 873 735 874 732 875 c 1
 738 858 741 840 741 820 c 0
 741 805 739 790 737 773 c 0
 726 705 656 675 656 599 c 0
 656 591 657 582 659 573 c 1
 661 568 658 564 653 565 c 0
 591 577 559 623 559 671 c 0
 559 673 559 675 559 677 c 1
 554 673 549 672 545 672 c 0
 530 672 520 687 520 700 c 0xfe1084171313e5021c
 520 710 525 720 539 722 c 1
 526 734 521 750 521 769 c 0
 521 784 524 800 530 816 c 0
 532 819 534 821 536 819 c 0
 547 813 557 810 566 810 c 0
 585 810 598 823 598 837 c 0
 598 847 591 858 576 865 c 1
 575 843 553 826 531 826 c 0xfe10ac170003c2a01c
 527 826 523 827 519 828 c 1
 372 619 l 2
244 -9 m 0
 256 -9 264 -0 264 11 c 0
 264 14 264 17 262 20 c 1
 256 23 250 27 244 30 c 1
 238 27 232 23 225 20 c 1
 224 17 224 14 224 11 c 0
 224 -0 232 -9 244 -9 c 0
384 575 m 1
 391 577 396 586 396 595 c 0
 396 605 386 614 375 614 c 0
 373 614 370 614 368 613 c 1
 355 595 l 1
 355 587 359 579 365 576 c 1
 371 576 377 575 384 575 c 1
729 881 m 1
 733 879 737 878 740 878 c 0
 751 878 761 887 761 898 c 0
 761 910 752 919 740 919 c 0
 740 919 739 919 738 919 c 0
 733 914 728 910 722 906 c 1
 721 903 721 900 721 897 c 1
 724 892 727 887 729 881 c 1
316 1010 m 0
 316 1021 307 1029 296 1029 c 0
 284 1029 277 1022 276 1011 c 1
 280 1005 283 999 285 991 c 1
 289 989 298 990 302 990 c 1
 310 992 316 1001 316 1010 c 0
380 48 m 0
 380 59 370 66 361 66 c 0
 353 66 347 62 345 53 c 1
 305 56 273 70 244 87 c 1
 243 89 237 89 235 87 c 0
 218 75 208 70 189 63 c 0
 173 58 162 53 147 50 c 1
 144 58 138 63 131 61 c 1
 121 60 117 53 117 46 c 0xfe1000078003c0001c
 117 38 122 31 132 31 c 0
 140 31 148 36 148 45 c 1
 181 51 217 62 240 79 c 1
 261 66 277 61 301 54 c 0
 316 49 330 47 345 47 c 1
 345 45 l 1
 347 37 354 33 362 33 c 0
 371 33 380 39 380 48 c 0
312 236 m 0
 316 240 315 242 309 239 c 0
 293 229 263 217 233 217 c 0
 199 217 161 236 147 251 c 0
 141 257 138 256 143 248 c 1
 157 231 189 213 224 209 c 1
 224 188 230 161 234 146 c 0
 237 138 239 140 238 149 c 0
 236 161 235 178 235 194 c 0
 235 199 235 204 235 209 c 1
 266 209 296 224 312 236 c 0
229 404 m 2xfe10000700c3c0001c
 229 493 l 2
 229 501 218 501 218 493 c 2
 218 404 l 2
 218 396 229 396 229 404 c 2xfe10000700c3c0001c
644 71 m 1
 666 55 704 43 741 43 c 1
 744 36 750 33 756 33 c 0
 765 33 774 40 774 50 c 0
 774 62 766 67 758 67 c 0
 748 67 738 61 739 49 c 1
 706 52 669 62 650 81 c 1
 646 81 639 80 636 81 c 1xfe1000070003c0401c
 619 65 582 51 549 49 c 1
 548 59 540 64 532 64 c 0
 524 64 516 60 514 50 c 0
 513 39 522 32 532 32 c 0
 539 32 546 36 549 43 c 1
 551 43 553 43 555 43 c 0
 588 43 624 59 644 71 c 1
297 554 m 0
 277 569 254 576 226 576 c 0
 197 576 170 565 151 553 c 0xfe1400070103c0001c
 144 549 146 546 153 549 c 0
 174 559 200 564 226 564 c 0
 251 564 275 559 296 549 c 0
 303 546 302 551 297 554 c 0
679 270 m 0
 683 279 679 281 674 274 c 0
 657 247 618 221 570 221 c 0
 550 221 531 225 517 230 c 0
 510 232 506 230 513 225 c 1
 528 217 555 212 580 212 c 0
 587 212 594 212 600 213 c 1
 603 198 603 189 608 175 c 1
 611 162 614 159 620 146 c 0
 624 139 629 139 626 147 c 0xfe1000070003c0041c
 622 160 620 166 616 179 c 1
 613 194 613 202 610 215 c 1
 641 225 668 247 679 270 c 0
532 433 m 0
 519 454 500 474 466 492 c 1xfe3000070003c0001c
 437 506 396 517 368 520 c 0
 362 520 362 511 368 510 c 0
 394 508 435 496 462 482 c 0
 492 467 512 446 524 428 c 0
 528 423 534 428 532 433 c 0
229 648 m 2xfe10000700c3c0001c
 229 768 l 2
 229 776 218 776 218 768 c 2
 218 648 l 2
 218 640 229 640 229 648 c 2xfe10000700c3c0001c
466 852 m 2
 470 858 460 863 457 857 c 2
 325 659 l 2
 321 653 331 648 335 654 c 2
 466 852 l 2
290 933 m 0
 275 944 254 951 232 951 c 1
 232 952 l 1
 230 986 l 2
 230 993 227 994 226 987 c 2
 221 951 l 1
 197 949 175 939 162 927 c 0
 157 923 157 921 163 924 c 1
 181 937 205 940 228 940 c 0xfe1001070003c0001c
 249 940 274 935 288 928 c 0
 296 924 297 928 290 933 c 0
631 930 m 1
 635 929 639 929 643 929 c 0
 670 929 695 939 705 948 c 1
 710 951 709 952 702 950 c 0
 685 943 671 940 655 939 c 1
 630 939 620 940 599 948 c 0
 593 950 591 938 597 935 c 0
 637 918 658 880 662 838 c 1
 662 812 650 789 637 778 c 0
 629 771 607 762 593 762 c 0
 590 762 587 762 585 763 c 0
 577 766 573 761 581 758 c 0
 586 756 592 755 598 755 c 0
 623 755 650 773 659 789 c 1
 648 752 624 720 620 677 c 0
 619 671 622 671 624 677 c 1
 630 736 676 768 676 829 c 0xfe1040470003c0089c
 676 868 656 906 631 930 c 1
416 31 m 1
 420 28 415 20 405 18 c 0
 394 17 384 16 374 16 c 0
 328 16 289 31 243 58 c 1
 210 38 166 13 116 13 c 0
 106 13 67 17 67 26 c 0xfe1000078003c0001c
 67 28 68 29 70 31 c 0
 115 79 124 138 126 187 c 1
 135 175 143 170 154 162 c 1
 174 118 195 91 238 91 c 0
 279 91 304 120 318 159 c 1
 331 160 337 164 351 170 c 1
 368 103 378 79 416 31 c 1
361 225 m 0
 361 189 339 172 304 165 c 1
 293 125 266 103 238 103 c 0
 210 103 180 125 164 172 c 1
 141 187 103 224 103 263 c 0
 103 279 113 305 131 305 c 0
 134 305 137 304 141 302 c 0xfe9000070003c0001c
 177 284 208 276 238 276 c 0
 258 276 278 279 297 286 c 0
 303 288 308 289 313 289 c 0
 326 289 334 281 341 274 c 0
 351 263 361 246 361 225 c 0
325 345 m 0
 325 325 318 312 299 302 c 0xfe9000070103c0001c
 281 293 262 289 240 289 c 0
 211 289 179 297 146 316 c 0
 132 325 119 332 119 355 c 0
 119 370 128 383 151 391 c 1
 178 377 202 372 225 372 c 0xff1000070103c0001c
 251 372 275 379 298 387 c 1
 315 377 325 365 325 345 c 0
298 399 m 1
 279 390 253 385 228 385 c 0
 200 385 172 391 151 404 c 1
 151 488 l 1
 170 504 196 513 222 513 c 0xfe5000070103c0001c
 249 513 277 504 298 485 c 1
 298 399 l 1
623 89 m 0
 669 89 693 128 693 169 c 0
 693 177 692 184 690 192 c 1
 704 199 714 213 721 230 c 1xfe1000070003c0003c
 727 176 764 87 811 30 c 1
 799 22 777 18 752 18 c 0
 717 18 676 26 645 44 c 1
 616 26 563 14 526 14 c 0
 505 14 490 18 484 25 c 1
 497 60 503 113 506 152 c 1
 519 147 527 144 539 142 c 1
 556 113 587 89 623 89 c 0
229 614 m 0xfe1400070003c0001c
 277 614 342 594 342 547 c 0
 342 519 323 509 303 499 c 1
 282 516 252 524 223 524 c 0
 194 524 166 516 149 501 c 1
 129 509 112 530 112 549 c 0
 112 596 176 614 229 614 c 0xfe1400070003c0001c
722 277 m 0
 722 241 705 215 678 198 c 1
 680 189 681 180 681 172 c 0xfe1000070003c0041c
 681 134 661 100 623 100 c 0
 594 100 564 121 545 152 c 1
 524 155 500 166 482 181 c 0
 466 194 459 215 459 238 c 0
 459 259 463 284 484 284 c 0
 485 284 485 284 486 284 c 0
 512 281 532 275 554 275 c 0
 564 275 574 276 586 279 c 0
 624 289 648 304 672 331 c 0
 678 338 691 333 697 327 c 0
 712 314 722 298 722 277 c 0
617 414 m 0
 647 414 670 394 670 368 c 0
 670 358 666 348 659 338 c 0
 637 306 601 286 546 286 c 0
 511 286 488 296 465 302 c 1
 444 309 433 329 433 358 c 0
 433 376 449 393 463 393 c 0xfe9000070003c0001c
 465 393 468 393 470 392 c 0
 487 383 508 378 529 378 c 0
 563 378 582 390 599 408 c 0
 603 412 610 414 617 414 c 0
610 428 m 1
 575 408 558 388 525 388 c 0
 507 388 484 394 451 409 c 1
 420 454 372 468 314 471 c 1
 314 492 l 1xfe3000070003c0001c
 336 499 354 520 354 543 c 0
 354 548 353 553 351 558 c 1
 355 558 359 558 363 558 c 0
 455 558 600 497 610 428 c 1
293 616 m 1xfe11000700c3c0001c
 275 624 254 628 232 628 c 0
 213 628 193 625 173 619 c 1
 173 756 l 1
 196 779 229 797 262 797 c 0
 272 797 283 795 293 791 c 1
 293 616 l 1xfe11000700c3c0001c
117 835 m 0
 117 881 184 894 230 894 c 0
 263 894 296 887 324 873 c 1
 336 866 342 854 342 840 c 0
 342 818 326 804 307 801 c 1
 290 806 275 808 261 808 c 0xfe1010070013c0001c
 228 808 201 795 168 768 c 1
 138 774 117 805 117 835 c 0
500 838 m 1
 330 597 l 1
 305 611 l 1
 305 688 l 1
 446 905 l 1
 480 899 499 870 500 838 c 1
140 889 m 0xfe1002070803c0001c
 125 889 118 904 118 918 c 0
 118 952 159 975 186 975 c 0xfe1002070803c0001c
 187 975 188 975 189 975 c 0
 193 999 212 1014 231 1014 c 0
 247 1014 263 1003 269 977 c 1
 301 977 342 955 342 914 c 0
 342 903 340 885 327 885 c 0
 325 885 323 885 321 886 c 0
 289 899 260 906 231 906 c 0xfe1001270803c0001c
 204 906 177 901 146 890 c 0
 144 889 142 889 140 889 c 0xfe1002070803c0001c
561 893 m 0xfe1000870003c8001c
 561 868 551 849 526 849 c 0
 521 849 516 850 510 851 c 1
 512 880 484 908 452 914 c 1
 450 919 450 924 450 929 c 0
 450 951 466 972 487 972 c 0
 524 972 561 934 561 893 c 0xfe1000870003c8001c
568 997 m 0xfe1040670003c0081c
 619 997 633 966 675 966 c 0
 705 966 732 976 748 988 c 1
 752 957 716 918 684 913 c 1
 711 875 719 851 719 820 c 0
 719 807 717 791 715 773 c 0
 704 701 635 688 636 591 c 1
 606 603 583 638 583 672 c 0xfe1040670003c0409c
 583 687 587 702 599 715 c 1
 568 722 543 737 543 766 c 0
 543 774 545 784 549 794 c 1
 557 791 565 790 572 790 c 0
 598 790 619 808 619 838 c 0
 619 860 605 877 575 886 c 1
 573 924 561 961 516 975 c 1
 529 992 546 997 568 997 c 0xfe1040670003c0081c
99 548 m 0xfe10000f2103c0001c
 99 521 117 504 136 494 c 1
 136 401 l 2
 136 397 133 396 131 396 c 0
 113 393 103 374 103 355 c 0
 103 343 108 330 117 322 c 1
 120 318 120 316 115 313 c 1
 96 306 87 286 87 263 c 0
 87 239 97 212 117 197 c 1
 107 111 90 63 51 30 c 0
 49 29 49 27 49 25 c 0
 49 20 52 16 55 15 c 0
 84 4 95 4 124 4 c 0
 163 4 212 23 242 41 c 1
 243 43 246 43 248 41 c 0
 279 21 326 4 368 4 c 0
 381 4 436 7 436 22 c 0
 436 23 436 24 435 25 c 0
 393 74 372 128 362 177 c 1
 372 189 376 204 376 220 c 0
 376 252 358 287 326 304 c 1
 336 319 340 333 340 345 c 0
 340 365 330 381 313 395 c 1
 313 455 l 2
 313 457 314 460 318 460 c 0
 361 460 420 437 439 404 c 1
 427 388 421 370 421 352 c 0
 421 328 432 305 455 289 c 1
 449 275 447 260 447 245 c 0
 447 208 464 171 495 160 c 1
 492 114 482 53 473 23 c 1
 471 20 475 16 477 15 c 0
 490 6 497 4 511 4 c 0
 544 4 611 11 645 32 c 1
 686 14 713 6 769 6 c 0
 786 6 798 8 819 20 c 0
 823 22 824 25 824 28 c 0
 824 32 822 36 819 39 c 0
 769 103 743 167 728 243 c 1
 732 252 733 263 733 273 c 0
 733 306 716 341 683 351 c 1
 683 391 664 420 626 425 c 1
 609 511 460 569 351 569 c 1
 349 575 344 582 339 589 c 1
 516 841 l 1
 521 839 526 838 531 838 c 0
 550 838 567 852 567 871 c 0
 567 875 570 875 575 874 c 0
 597 868 607 852 607 837 c 0
 607 818 593 801 567 801 c 0
 559 801 550 803 539 807 c 1
 534 794 531 781 531 768 c 0
 531 744 543 723 573 714 c 0
 576 713 578 712 576 708 c 0xfe18280f650fd2a45c
 571 696 569 684 569 672 c 0
 569 631 597 591 648 576 c 1
 647 583 647 589 647 595 c 0
 647 674 716 704 727 773 c 0
 729 790 731 806 731 821 c 0
 731 852 725 878 707 902 c 0
 704 906 705 908 709 911 c 1
 740 924 759 959 759 985 c 0
 759 993 757 1000 753 1005 c 1
 731 988 704 977 672 977 c 0xfe1428170003c1021c
 630 977 627 1007 575 1007 c 0
 541 1007 517 997 505 980 c 1
 498 983 492 984 486 984 c 0
 457 984 437 959 437 931 c 0
 437 926 438 922 439 917 c 1
 316 728 l 2
 313 723 307 724 307 731 c 2
 307 788 l 2
 307 791 308 793 312 793 c 0
 339 796 355 818 355 840 c 0
 355 851 352 862 344 871 c 0
 342 873 341 876 342 877 c 0
 351 891 355 905 355 918 c 0
 355 953 325 983 282 983 c 0
 281 983 280 983 279 983 c 1
 272 1007 253 1025 231 1025 c 0
 208 1025 187 1009 184 985 c 1
 136 981 108 946 108 914 c 0
 108 901 112 889 122 880 c 0
 125 877 125 875 122 873 c 0
 110 864 105 850 105 835 c 0xfe10000f1013e1021c
 105 803 128 764 159 757 c 1
 159 615 l 1
 132 606 99 582 99 548 c 0xfe10000f2103c0001c
357 576 m 1xfe1400070003c0001c
 354 580 352 584 350 588 c 1
 349 586 l 1
 352 581 353 580 356 576 c 0xfe1800070003c0001c
 357 576 l 1xfe1400070003c0001c
525 697 m 0xfe1080070003c4801c
 525 685 533 677 545 677 c 0
 550 677 556 678 560 682 c 1
 560 689 562 697 564 704 c 1
 562 710 549 714 545 717 c 1
 533 717 525 709 525 697 c 0xfe1080070003c4801c
163 1028 m 0
 151 1028 143 1020 143 1009 c 0xfe1000070203c0001c
 143 1000 147 992 154 990 c 1
 161 992 168 993 176 994 c 1
 177 1000 180 1006 183 1011 c 1
 182 1022 174 1028 163 1028 c 0
EndSplineSet
EndChar

StartChar: afii10029
Encoding: 1051 1051 55
Width: 736
Flags: W
LayerCount: 3
Fore
SplineSet
649 1002 m 0
 654 991 649 977 638 971 c 1
 627 967 612 975 608 986 c 0
 603 997 608 1010 621 1015 c 0
 632 1020 644 1014 649 1002 c 0
468 986 m 1
 465 975 450 967 439 971 c 1
 428 977 423 991 425 1002 c 1
 430 1014 445 1020 457 1015 c 0
 468 1010 473 997 468 986 c 1
644 1002 m 0
 639 1011 632 1015 622 1010 c 0
 612 1005 608 996 612 986 c 1
 617 977 627 972 637 977 c 0
 647 982 649 994 644 1002 c 0
465 986 m 1
 468 996 465 1005 455 1010 c 0
 445 1015 438 1011 430 1002 c 1
 428 994 430 981 440 976 c 0
 450 971 460 977 465 986 c 1
603 500 m 1
 579 487 564 484 538 484 c 0
 509 484 498 487 473 500 c 1
 473 779 l 1
 494 796 513 803 538 803 c 0
 564 803 583 796 603 779 c 1
 603 500 l 1
638 392 m 0
 637 366 627 345 602 328 c 1
 596 292 573 269 538 269 c 0
 504 269 481 292 475 328 c 1
 450 345 440 366 439 392 c 0
 439 404 440 413 447 423 c 1
 470 411 504 401 538 401 c 0
 573 401 610 412 631 423 c 1
 637 413 638 404 638 392 c 0
672 14 m 1
 628 -1 573 14 538 36 c 1
 504 14 449 -1 405 14 c 1
 470 104 471 203 471 301 c 1
 473 301 473 301 475 301 c 1
 486 272 508 259 538 259 c 0
 567 259 591 272 602 301 c 0
 603 301 603 301 606 301 c 1
 606 203 607 104 672 14 c 1
617 913 m 1
 607 925 564 938 543 938 c 1
 542 977 l 2
 542 985 535 985 535 977 c 2
 533 938 l 1
 513 938 470 925 458 913 c 0
 454 908 455 903 462 907 c 0
 476 917 514 927 538 927 c 0
 558 927 601 917 616 907 c 0
 622 903 623 908 617 913 c 1
545 525 m 2
 545 762 l 2
 545 769 532 769 532 762 c 2
 532 525 l 2
 532 515 545 515 545 525 c 2
606 381 m 0
 611 386 607 387 601 385 c 1
 584 370 562 365 538 365 c 1
 517 366 491 370 475 385 c 1
 470 387 467 386 471 381 c 0
 488 362 509 353 533 355 c 1
 533 302 l 2
 533 292 543 292 543 302 c 2
 543 355 l 1
 568 353 589 362 606 381 c 0
601 58 m 1
 568 95 552 168 545 234 c 1
 543 241 532 241 532 234 c 0
 525 167 509 95 475 58 c 0
 470 53 473 48 478 53 c 0
 508 85 529 139 538 193 c 1
 548 139 569 85 599 53 c 0
 603 48 607 53 601 58 c 1
632 41 m 1
 628 45 622 48 617 44 c 0
 612 41 612 34 616 30 c 1
 618 25 626 25 628 26 c 0
 633 30 634 36 632 41 c 1
462 30 m 0
 465 34 465 41 460 44 c 0
 455 48 449 45 445 41 c 1
 443 36 443 30 449 26 c 0
 452 25 458 25 462 30 c 0
538 20 m 0
 547 20 554 14 554 4 c 0
 554 -5 547 -11 538 -11 c 0
 530 -11 522 -5 522 4 c 0
 522 14 530 20 538 20 c 0
538 -6 m 0
 545 -6 550 -1 550 5 c 0
 550 11 545 16 538 16 c 0
 532 16 527 11 527 5 c 0
 527 -1 532 -6 538 -6 c 0
623 871 m 1
 601 880 567 886 538 886 c 0
 510 886 475 880 454 871 c 1
 424 895 411 951 475 970 c 1
 481 997 514 1015 538 1015 c 0
 557 1015 596 997 601 970 c 1
 666 951 653 895 623 871 c 1
634 831 m 0
 634 812 622 801 603 793 c 1
 591 801 563 812 538 812 c 1
 508 814 486 801 473 793 c 1
 455 801 443 812 443 831 c 0
 443 868 500 873 538 875 c 1
 577 873 634 868 634 831 c 0
444 863 m 1
 439 858 433 852 430 841 c 1
 424 855 408 862 388 863 c 0
 360 865 332 847 327 819 c 0
 321 791 332 768 349 754 c 1
 299 734 245 784 266 831 c 1
 202 851 210 928 255 945 c 1
 262 928 286 916 316 917 c 1
 360 917 391 950 420 928 c 1
 413 906 425 881 444 863 c 1
401 885 m 1
 405 882 409 877 411 881 c 0
 414 886 409 890 405 892 c 0
 393 901 370 901 359 896 c 1
 344 892 336 882 316 880 c 0
 294 877 271 880 256 901 c 0
 251 907 250 906 252 897 c 1
 262 876 289 868 315 870 c 0
 316 870 l 1
 316 870 316 868 315 868 c 0
 290 851 284 803 304 784 c 0
 310 778 307 782 304 789 c 1
 294 803 301 843 320 860 c 1
 334 875 346 880 360 885 c 0
 374 891 385 890 401 885 c 1
462 670 m 1
 408 642 275 543 275 484 c 1
 256 471 219 478 209 493 c 1
 210 595 419 659 462 752 c 1
 462 670 l 1
279 474 m 1
 300 455 304 412 273 393 c 0
 246 376 187 388 170 411 c 1
 146 439 165 479 202 484 c 1
 225 463 260 466 279 474 c 1
275 384 m 1
 318 360 309 276 253 257 c 1
 236 202 141 206 138 281 c 1
 96 312 112 403 157 408 c 1
 185 375 245 365 275 384 c 1
338 15 m 1
 285 2 238 10 196 38 c 1
 160 14 107 4 57 14 c 1
 112 71 111 200 128 276 c 1
 140 195 235 187 261 251 c 1
 263 162 295 63 338 15 c 1
444 685 m 0
 447 688 443 693 439 690 c 0
 371 616 263 585 240 504 c 0
 238 499 245 495 246 500 c 0
 269 582 379 615 444 685 c 0
261 340 m 0
 264 342 263 345 258 344 c 0
 241 339 230 337 210 339 c 0
 189 342 175 349 157 364 c 1
 152 366 150 365 152 361 c 1
 167 347 182 337 202 332 c 1
 196 257 l 2
 196 252 199 252 200 257 c 2
 214 331 l 1
 231 327 245 332 261 340 c 0
279 42 m 1
 268 48 263 52 253 61 c 0
 234 79 205 139 200 177 c 0
 200 182 186 182 186 177 c 0
 185 141 165 85 143 64 c 0
 132 53 128 49 116 43 c 0
 112 42 112 39 116 42 c 0
 128 48 135 49 146 61 c 0
 165 82 187 119 194 157 c 1
 205 118 235 74 251 59 c 0
 261 49 266 47 278 42 c 1
 280 39 282 39 279 42 c 1
111 39 m 0
 107 44 100 47 95 43 c 0
 90 39 90 32 92 27 c 1
 96 22 102 20 107 23 c 0
 112 27 114 34 111 39 c 0
282 38 m 0
 279 33 280 25 285 22 c 0
 290 18 299 20 301 25 c 1
 305 30 304 38 299 42 c 1
 294 44 285 43 282 38 c 0
196 18 m 0
 204 18 211 12 211 2 c 0
 211 -6 204 -12 196 -12 c 0
 187 -12 180 -6 180 2 c 0
 180 12 187 18 196 18 c 0
196 -7 m 0
 202 -7 207 -2 207 4 c 0
 207 10 202 15 196 15 c 0
 189 15 185 10 185 4 c 0
 185 -2 189 -7 196 -7 c 0
227 831 m 0
 236 831 245 824 245 814 c 0
 245 806 236 799 227 799 c 0
 220 799 211 806 211 814 c 0
 211 824 220 831 227 831 c 0
227 804 m 0
 235 804 240 809 240 816 c 0
 240 822 235 827 227 827 c 0
 221 827 216 822 216 816 c 0
 216 809 221 804 227 804 c 0
616 501 m 1
 616 788 l 1
 647 806 656 841 633 863 c 1
 633 868 l 1
 677 911 659 965 611 976 c 1
 602 1007 563 1026 538 1026 c 0
 514 1026 475 1007 467 976 c 1
 444 971 428 956 420 938 c 1
 390 956 360 925 316 925 c 0
 294 925 267 935 261 957 c 1
 215 948 176 877 247 821 c 1
 236 762 307 723 370 750 c 1
 347 765 331 789 339 816 c 1
 344 841 365 855 390 853 c 1
 405 853 418 847 429 833 c 1
 430 817 444 798 462 788 c 1
 449 674 210 613 199 493 c 1
 165 490 140 449 155 417 c 1
 110 409 86 325 122 288 c 1
 97 181 101 84 43 14 c 0
 42 12 42 10 43 9 c 0
 97 -11 152 2 196 22 c 1
 241 -2 309 -10 348 7 c 1
 350 9 349 10 348 14 c 1
 304 79 274 157 271 257 c 1
 315 276 330 354 286 386 c 0
 284 388 284 391 286 393 c 0
 309 411 310 454 284 481 c 1
 290 549 450 660 462 659 c 1
 462 501 l 1
 438 492 418 457 438 431 c 1
 414 390 434 343 463 326 c 1
 463 199 455 82 386 11 c 1
 420 -10 484 -4 538 21 c 1
 592 -4 656 -10 691 11 c 1
 622 82 613 199 613 326 c 1
 643 343 663 390 640 431 c 1
 660 457 644 492 616 501 c 1
538 472 m 0
 515 472 489 476 468 490 c 1
 452 489 439 474 440 460 c 1
 443 440 449 433 458 428 c 0
 481 418 514 411 538 411 c 0
 563 411 588 415 617 426 c 0
 631 431 639 439 639 460 c 0
 639 476 626 487 613 488 c 1
 590 476 559 472 538 472 c 0
386 21 m 0
 452 93 457 204 457 322 c 1
 425 345 409 387 430 431 c 1
 411 460 430 494 455 505 c 1
 455 650 l 1
 423 628 300 547 290 481 c 1
 318 451 315 412 294 390 c 1
 336 351 321 273 278 252 c 1
 280 160 310 82 354 16 c 0
 358 11 359 6 349 2 c 0
 311 -12 243 -11 196 15 c 1
 152 -6 97 -16 42 4 c 1
 33 5 33 14 38 18 c 1
 96 85 92 181 116 286 c 1
 80 327 100 408 148 420 c 1
 133 454 156 494 194 498 c 1
 210 622 440 676 455 784 c 1
 435 796 424 812 423 831 c 1
 418 838 405 847 388 847 c 0
 366 848 350 837 344 814 c 1
 339 788 355 765 376 754 c 0
 380 752 380 749 376 749 c 1
 311 713 230 755 242 817 c 1
 163 880 211 960 264 962 c 1
 269 941 295 928 316 930 c 0
 360 933 386 957 418 946 c 1
 428 961 443 972 462 980 c 1
 470 1014 510 1031 538 1031 c 0
 567 1031 607 1014 616 980 c 1
 664 966 682 912 642 866 c 1
 664 838 654 804 622 784 c 1
 622 505 l 1
 639 503 671 466 649 430 c 1
 669 386 649 345 621 322 c 1
 621 199 627 82 698 14 c 1
 701 14 701 10 697 9 c 1
 661 -15 597 -14 538 16 c 1
 483 -12 414 -12 383 5 c 1
 379 9 376 11 386 21 c 0
EndSplineSet
Validated: 37
EndChar

StartChar: afii10030
Encoding: 1052 1052 56
Width: 1088
Flags: W
LayerCount: 3
Fore
SplineSet
649 1002 m 0
 654 991 649 977 638 971 c 1
 627 967 612 975 609 986 c 1
 604 997 609 1010 621 1015 c 0
 632 1020 644 1014 649 1002 c 0
469 986 m 0
 465 975 450 967 439 971 c 1
 428 977 423 991 425 1002 c 1
 430 1014 445 1020 457 1015 c 0
 469 1010 473 997 469 986 c 0
644 1002 m 0
 639 1011 632 1015 622 1010 c 0
 612 1005 609 996 612 986 c 1
 617 977 627 972 637 977 c 0
 647 982 649 994 644 1002 c 0
465 986 m 1
 469 996 465 1005 455 1010 c 0
 445 1015 438 1011 430 1002 c 1
 428 994 430 981 440 976 c 0
 450 971 460 977 465 986 c 1
604 500 m 1
 579 487 564 484 539 484 c 0
 509 484 498 487 473 500 c 1
 473 779 l 1
 494 796 513 803 539 803 c 0
 564 803 583 796 604 779 c 1
 604 500 l 1
638 392 m 0
 637 366 627 345 603 328 c 1
 596 292 573 269 539 269 c 0
 504 269 481 292 475 328 c 1
 450 345 440 366 439 392 c 0
 439 404 440 413 448 423 c 1
 469 407 504 402 539 402 c 0
 573 402 609 407 631 423 c 1
 637 413 638 404 638 392 c 0
673 14 m 1
 628 -1 573 14 539 36 c 1
 504 14 449 -1 405 14 c 1
 470 104 471 203 471 301 c 1
 473 301 473 301 475 301 c 1
 486 272 508 259 539 259 c 0
 567 259 591 272 603 301 c 0
 604 301 604 301 606 301 c 1
 606 203 607 104 673 14 c 1
617 913 m 1
 607 925 564 938 543 938 c 1
 542 977 l 2
 542 985 535 985 535 977 c 2
 534 938 l 1
 513 938 470 925 459 913 c 0
 454 908 455 903 462 907 c 0
 476 917 514 927 539 927 c 0
 558 927 601 917 616 907 c 0
 622 903 623 908 617 913 c 1
545 525 m 2
 545 762 l 2
 545 769 532 769 532 762 c 2
 532 525 l 2
 532 515 545 515 545 525 c 2
606 381 m 0
 611 386 607 387 601 385 c 1
 584 370 562 365 539 365 c 1
 518 366 491 370 475 385 c 1
 470 387 467 386 471 381 c 0
 488 362 509 353 534 355 c 1
 534 302 l 2
 534 292 543 292 543 302 c 2
 543 355 l 1
 568 353 589 362 606 381 c 0
601 58 m 1
 568 95 552 168 545 234 c 1
 543 241 532 241 532 234 c 0
 525 167 509 95 475 58 c 0
 470 53 473 48 478 53 c 0
 508 85 529 139 539 193 c 1
 548 139 569 85 599 53 c 0
 604 48 607 53 601 58 c 1
632 41 m 1
 628 45 622 48 617 44 c 0
 612 41 612 34 616 30 c 1
 618 25 626 25 628 26 c 0
 633 30 634 36 632 41 c 1
462 30 m 0
 465 34 465 41 460 44 c 0
 455 48 449 45 445 41 c 1
 443 36 443 30 449 26 c 1
 453 25 459 25 462 30 c 0
539 20 m 0
 547 20 554 14 554 4 c 0
 554 -5 547 -11 539 -11 c 0
 530 -11 523 -5 523 4 c 0
 523 14 530 20 539 20 c 0
539 -6 m 0
 545 -6 550 -1 550 5 c 0
 550 11 545 16 539 16 c 0
 532 16 528 11 528 5 c 0
 528 -1 532 -6 539 -6 c 0
623 871 m 1
 601 880 567 886 539 886 c 0
 510 886 475 880 454 871 c 1
 424 895 411 951 475 970 c 1
 481 997 514 1015 539 1015 c 0
 557 1015 596 997 601 970 c 1
 666 951 653 895 623 871 c 1
634 831 m 0
 634 812 622 801 604 793 c 1
 591 801 563 812 539 812 c 1
 508 814 486 801 473 793 c 1
 455 801 443 812 443 831 c 0
 443 868 500 873 539 875 c 1
 577 873 634 868 634 831 c 0
444 863 m 1
 439 858 433 852 430 841 c 1
 424 855 408 862 389 863 c 0
 360 865 332 847 327 819 c 0
 321 791 332 768 349 754 c 1
 299 734 245 784 266 831 c 1
 202 851 210 928 255 945 c 1
 262 928 287 916 316 917 c 1
 360 917 391 950 420 928 c 1
 413 906 425 881 444 863 c 1
401 885 m 1
 405 882 409 877 411 881 c 0
 414 886 409 890 405 892 c 0
 394 901 370 901 359 896 c 1
 344 892 336 882 316 880 c 0
 294 877 271 880 256 901 c 0
 251 907 250 906 252 897 c 1
 262 876 289 868 315 870 c 0
 316 870 l 1
 316 870 316 868 315 868 c 0
 290 851 284 803 304 784 c 0
 310 778 308 782 304 789 c 0
 294 803 301 843 320 860 c 1
 334 875 346 880 360 885 c 0
 374 891 385 890 401 885 c 1
789 543 m 1
 789 613 l 1
 609 490 l 2
 588 476 567 472 539 472 c 0
 515 472 489 476 469 490 c 1
 453 489 439 474 440 460 c 1
 443 440 449 433 459 428 c 0
 481 418 514 411 539 411 c 0
 563 411 596 418 617 428 c 1
 789 543 l 1
976 1002 m 0
 981 991 976 977 965 971 c 1
 954 967 939 975 935 986 c 0
 931 997 935 1010 948 1015 c 0
 959 1020 971 1014 976 1002 c 0
795 986 m 1
 792 975 777 967 766 971 c 1
 755 977 750 991 752 1002 c 1
 757 1014 772 1020 784 1015 c 0
 795 1010 800 997 795 986 c 1
971 1002 m 0
 966 1011 959 1015 949 1010 c 0
 939 1005 935 996 939 986 c 1
 944 977 954 972 964 977 c 0
 974 982 976 994 971 1002 c 0
792 986 m 1
 795 996 792 1005 782 1010 c 0
 772 1015 765 1011 757 1002 c 1
 755 994 757 981 767 976 c 0
 777 971 787 977 792 986 c 1
950 871 m 1
 928 880 894 886 865 886 c 0
 837 886 802 880 781 871 c 1
 751 895 738 951 802 970 c 1
 808 997 841 1015 865 1015 c 0
 884 1015 923 997 928 970 c 1
 993 951 980 895 950 871 c 1
961 831 m 0
 961 812 949 801 931 793 c 1
 918 801 890 812 865 812 c 1
 835 814 813 801 800 793 c 1
 782 801 770 812 770 831 c 0
 770 868 827 873 865 875 c 1
 904 873 961 868 961 831 c 0
931 500 m 1
 906 487 891 484 865 484 c 0
 836 484 825 487 800 500 c 1
 800 779 l 1
 821 796 840 803 865 803 c 0
 891 803 910 796 931 779 c 1
 931 500 l 1
964 460 m 1
 961 440 955 433 944 428 c 0
 923 418 890 411 865 411 c 0
 841 411 808 418 786 428 c 0
 776 433 770 440 767 460 c 1
 766 474 779 489 795 490 c 1
 816 476 842 472 865 472 c 0
 894 472 915 476 935 490 c 1
 953 489 965 474 964 460 c 1
965 392 m 0
 964 366 954 345 929 328 c 1
 923 292 900 269 865 269 c 0
 831 269 808 292 802 328 c 1
 777 345 767 366 766 392 c 0
 766 404 767 413 775 423 c 1
 795 407 831 402 865 402 c 0
 900 402 935 407 958 423 c 1
 964 413 965 404 965 392 c 0
999 14 m 1
 955 -1 900 14 865 36 c 1
 831 14 776 -1 732 14 c 1
 797 104 798 203 798 301 c 1
 800 301 800 301 802 301 c 1
 813 272 835 259 865 259 c 0
 894 259 918 272 929 301 c 1
 931 301 931 301 933 301 c 1
 933 203 934 104 999 14 c 1
944 913 m 1
 934 925 891 938 870 938 c 1
 869 977 l 2
 869 985 862 985 862 977 c 2
 861 938 l 1
 840 938 797 925 786 913 c 0
 781 908 782 903 789 907 c 0
 803 917 841 927 865 927 c 0
 885 927 928 917 943 907 c 0
 949 903 950 908 944 913 c 1
872 525 m 2
 872 762 l 2
 872 769 859 769 859 762 c 2
 859 525 l 2
 859 515 872 515 872 525 c 2
933 381 m 0
 938 386 934 387 928 385 c 1
 911 370 889 365 865 365 c 1
 845 366 818 370 802 385 c 1
 797 387 794 386 798 381 c 0
 815 362 836 353 861 355 c 1
 861 302 l 2
 861 292 870 292 870 302 c 2
 870 355 l 1
 895 353 916 362 933 381 c 0
928 58 m 1
 895 95 879 168 872 234 c 1
 870 241 859 241 859 234 c 0
 852 167 836 95 802 58 c 0
 797 53 800 48 805 53 c 0
 835 85 856 139 865 193 c 1
 875 139 896 85 926 53 c 0
 931 48 934 53 928 58 c 1
959 41 m 1
 955 45 949 48 944 44 c 0
 939 41 939 34 943 30 c 1
 945 25 953 25 955 26 c 0
 960 30 961 36 959 41 c 1
789 30 m 0
 792 34 792 41 787 44 c 0
 782 48 776 45 772 41 c 1
 770 36 770 30 776 26 c 0
 779 25 786 25 789 30 c 0
865 20 m 0
 874 20 882 14 882 4 c 0
 882 -5 874 -11 865 -11 c 0
 857 -11 849 -5 849 4 c 0
 849 14 857 20 865 20 c 0
865 -6 m 0
 872 -6 877 -1 877 5 c 0
 877 11 872 16 865 16 c 0
 859 16 854 11 854 5 c 0
 854 -1 859 -6 865 -6 c 0
462 670 m 1
 408 642 301 545 301 485 c 1
 282 472 245 479 235 494 c 1
 236 596 419 659 462 752 c 1
 462 670 l 1
305 476 m 1
 326 456 330 413 299 395 c 1
 272 377 213 390 196 412 c 1
 172 440 191 481 228 485 c 1
 251 465 285 467 305 476 c 1
301 385 m 1
 344 361 334 278 279 258 c 1
 262 203 167 208 164 283 c 1
 122 313 138 404 183 409 c 1
 210 376 271 366 301 385 c 1
364 16 m 1
 311 4 264 11 222 39 c 1
 186 15 133 5 83 15 c 1
 138 72 137 202 154 278 c 1
 166 197 261 188 287 252 c 1
 289 164 321 64 364 16 c 1
444 685 m 0
 448 688 443 693 439 690 c 0
 371 616 289 586 266 505 c 0
 264 500 271 496 272 501 c 0
 295 584 379 615 444 685 c 0
287 342 m 0
 290 343 289 347 284 345 c 0
 267 340 256 338 236 340 c 0
 215 343 200 350 183 365 c 1
 178 367 176 366 178 362 c 1
 193 348 208 338 228 333 c 1
 222 258 l 2
 222 253 225 253 226 258 c 2
 240 332 l 1
 257 328 271 333 287 342 c 0
305 43 m 0
 294 49 289 53 279 63 c 0
 260 80 231 140 226 178 c 0
 226 183 212 183 212 178 c 0
 210 142 191 86 169 65 c 0
 158 54 154 50 142 44 c 0
 138 43 138 41 142 43 c 0
 154 49 161 50 172 63 c 0
 191 84 213 120 220 159 c 1
 231 119 261 75 277 60 c 0
 287 50 292 48 304 43 c 1
 306 41 308 41 305 43 c 0
137 41 m 1
 133 45 125 48 121 44 c 1
 116 41 116 33 118 28 c 1
 122 23 128 21 133 25 c 0
 138 28 140 36 137 41 c 1
308 39 m 0
 305 34 306 26 311 23 c 0
 316 20 325 21 327 26 c 1
 331 31 330 39 325 43 c 1
 320 45 311 44 308 39 c 0
222 20 m 0
 230 20 237 14 237 4 c 0
 237 -5 230 -11 222 -11 c 0
 213 -11 205 -5 205 4 c 0
 205 14 213 20 222 20 c 0
222 -6 m 0
 228 -6 233 -1 233 5 c 0
 233 11 228 16 222 16 c 0
 215 16 210 11 210 5 c 0
 210 -1 215 -6 222 -6 c 0
228 831 m 0
 236 831 245 824 245 814 c 0
 245 806 236 799 228 799 c 0
 220 799 212 806 212 814 c 0
 212 824 220 831 228 831 c 0
228 804 m 0
 235 804 240 809 240 816 c 0
 240 822 235 827 228 827 c 0
 222 827 217 822 217 816 c 0
 217 809 222 804 228 804 c 0
381 7 m 1
 380 6 378 5 375 4 c 0
 337 -14 269 -10 222 16 c 1
 178 -5 123 -15 68 5 c 1
 59 6 59 15 64 20 c 0
 122 86 118 182 142 288 c 1
 106 328 125 409 174 422 c 1
 159 455 182 495 220 499 c 1
 236 623 440 676 455 784 c 1
 435 796 424 812 423 831 c 1
 418 838 405 847 389 847 c 0
 367 848 350 837 344 814 c 1
 339 788 355 765 376 754 c 0
 380 752 380 749 376 749 c 1
 311 713 230 755 242 817 c 1
 164 880 212 960 264 962 c 1
 269 941 295 928 316 930 c 0
 360 933 386 957 418 946 c 1
 428 961 443 972 462 980 c 1
 470 1014 510 1031 539 1031 c 0
 567 1031 607 1014 616 980 c 1
 664 966 682 912 642 866 c 1
 664 838 654 804 622 784 c 1
 622 784 622 520 622 519 c 2
 782 626 l 1
 782 784 l 1
 750 804 740 838 762 866 c 1
 720 912 740 966 789 980 c 1
 797 1014 837 1031 865 1031 c 0
 894 1031 934 1014 943 980 c 1
 991 966 1009 912 969 866 c 1
 991 838 981 804 949 784 c 1
 949 505 l 1
 974 494 993 460 974 431 c 1
 995 387 976 345 948 322 c 1
 948 199 954 82 1025 14 c 1
 1028 14 1028 10 1024 9 c 1
 988 -15 924 -14 865 16 c 1
 807 -14 741 -15 707 9 c 1
 703 10 703 14 706 14 c 1
 777 82 784 199 784 322 c 1
 752 345 737 387 757 431 c 1
 738 460 757 494 782 505 c 1
 782 520 l 1
 648 430 l 1
 668 386 649 345 621 322 c 1
 621 199 627 82 698 14 c 1
 701 14 701 10 697 9 c 1
 662 -15 598 -14 539 16 c 1
 481 -14 416 -15 381 7 c 1
455 650 m 1
 423 628 326 548 316 482 c 1
 344 452 341 413 320 391 c 1
 362 353 347 274 304 253 c 1
 306 159 336 82 380 16 c 1
 380 16 380 16 380 15 c 1
 450 85 457 200 457 322 c 1
 425 345 409 387 430 431 c 1
 411 460 430 494 455 505 c 1
 455 650 l 1
462 659 m 1
 462 501 l 1
 438 492 418 457 438 431 c 1
 414 390 434 343 464 326 c 1
 464 199 455 82 386 11 c 1
 420 -10 484 -4 539 21 c 1
 593 -4 657 -10 691 11 c 1
 622 82 614 199 614 326 c 1
 643 343 662 390 639 431 c 1
 789 533 l 1
 789 501 l 1
 765 492 745 457 765 431 c 1
 741 390 761 343 790 326 c 1
 790 199 782 82 713 11 c 1
 748 -10 812 -4 865 21 c 1
 920 -4 983 -10 1018 11 c 1
 949 82 940 199 940 326 c 1
 970 343 988 390 966 431 c 1
 986 457 966 492 943 501 c 1
 943 788 l 1
 974 806 983 841 960 863 c 1
 960 868 l 1
 1004 911 986 965 938 976 c 1
 929 1007 890 1026 865 1026 c 0
 841 1026 802 1007 794 976 c 1
 745 965 727 911 770 868 c 0
 771 868 771 865 770 863 c 0
 748 841 757 806 789 788 c 1
 789 623 l 1
 616 506 l 1
 616 788 l 1
 647 806 657 841 633 863 c 1
 633 868 l 1
 677 911 659 965 611 976 c 1
 603 1007 563 1026 539 1026 c 0
 514 1026 475 1007 467 976 c 1
 444 971 428 956 420 938 c 1
 390 956 360 925 316 925 c 0
 294 925 267 935 261 957 c 1
 215 948 176 877 247 821 c 1
 236 762 308 723 370 750 c 1
 347 765 331 789 339 816 c 1
 344 841 365 855 390 853 c 1
 405 853 418 847 429 833 c 1
 430 817 444 798 462 788 c 1
 449 674 236 615 225 494 c 1
 191 492 166 450 181 418 c 1
 135 411 112 326 148 289 c 1
 123 182 127 85 69 15 c 0
 68 14 68 11 69 10 c 0
 123 -10 178 4 222 23 c 1
 267 -1 334 -9 374 9 c 0
 376 10 375 11 374 15 c 1
 330 80 300 159 297 258 c 1
 341 278 355 355 312 387 c 1
 310 390 310 392 312 395 c 1
 334 412 336 455 310 482 c 1
 316 551 450 660 462 659 c 1
EndSplineSet
Validated: 37
EndChar

StartChar: afii10031
Encoding: 1053 1053 57
Width: 773
Flags: W
LayerCount: 3
Fore
SplineSet
223 977 m 0
 223 965 216 955 204 955 c 0
 191 955 181 962 181 975 c 0
 181 987 190 998 202 998 c 0
 215 998 223 989 223 977 c 0
223 4 m 0
 223 -6 216 -14 206 -14 c 0
 196 -14 186 -6 186 4 c 0
 186 14 195 22 205 22 c 0
 215 22 223 14 223 4 c 0
218 977 m 0
 218 986 211 992 202 992 c 0
 194 992 186 983 186 975 c 0
 186 966 195 960 204 960 c 0
 212 960 218 969 218 977 c 0
218 4 m 0
 218 11 212 17 205 17 c 0
 197 17 191 11 191 4 c 0
 191 -4 199 -9 206 -9 c 0
 213 -9 218 -4 218 4 c 0
351 971 m 1
 303 890 272 822 272 653 c 1
 249 643 233 638 207 638 c 0
 180 638 163 644 138 655 c 1
 138 826 95 910 57 972 c 1
 115 974 181 955 204 935 c 1
 226 954 291 972 351 971 c 1
319 516 m 0
 319 482 286 463 261 449 c 1
 253 425 233 403 205 403 c 0
 176 403 156 425 149 450 c 1
 122 463 93 484 92 516 c 0
 92 531 98 546 106 553 c 0
 111 557 117 559 125 557 c 1
 176 535 216 531 275 552 c 0
 280 553 288 557 292 553 c 0
 301 546 319 532 319 516 c 0
350 18 m 1
 303 11 235 20 206 45 c 1
 174 21 107 9 58 17 c 1
 89 66 140 230 138 343 c 1
 138 444 l 1
 151 411 171 392 205 392 c 0
 237 392 256 408 271 442 c 1
 271 343 l 1
 274 231 319 69 350 18 c 1
308 935 m 0
 310 940 309 945 304 948 c 0
 299 950 294 949 292 945 c 0
 290 941 291 935 294 933 c 0
 298 930 305 930 308 935 c 0
117 934 m 0
 120 939 119 944 114 946 c 0
 109 949 104 948 101 944 c 0
 99 940 100 934 104 932 c 1
 107 929 115 929 117 934 c 0
265 925 m 1
 251 917 239 903 232 894 c 0
 224 882 211 865 204 841 c 1
 196 865 180 884 174 894 c 0
 167 905 159 916 143 927 c 1
 156 916 160 906 169 894 c 1
 180 875 199 836 199 799 c 2
 199 674 l 2
 199 666 208 666 208 674 c 2
 208 800 l 2
 208 837 226 875 238 894 c 0
 245 905 253 916 265 925 c 1
283 516 m 0
 288 520 283 527 279 524 c 0
 256 509 234 496 205 496 c 0
 173 496 149 509 127 522 c 0
 121 526 115 515 121 512 c 0
 142 498 168 488 199 487 c 1
 200 429 l 2
 200 422 210 422 210 429 c 2
 210 487 l 1
 239 488 262 499 283 516 c 0
259 72 m 1
 250 85 245 95 238 104 c 1
 227 124 208 161 208 198 c 2
 208 348 l 2
 208 355 199 355 199 348 c 2
 199 199 l 2
 199 162 179 124 169 106 c 0
 162 92 157 82 148 71 c 1
 160 85 167 95 174 104 c 1
 180 114 196 133 204 157 c 1
 211 133 224 116 232 104 c 0
 239 95 248 82 259 72 c 1
299 56 m 1
 297 61 290 61 286 59 c 0
 282 56 281 50 283 47 c 0
 286 43 291 42 296 44 c 0
 301 47 302 52 299 56 c 1
126 58 m 0
 124 63 116 63 112 60 c 0
 109 58 107 52 110 48 c 0
 112 44 117 43 122 45 c 0
 127 48 129 53 126 58 c 0
586 977 m 0
 586 966 577 956 566 955 c 0
 555 954 545 964 544 975 c 0
 543 987 552 998 565 998 c 0
 576 998 586 988 586 977 c 0
586 4 m 0
 586 -5 577 -14 569 -14 c 0
 559 -15 549 -6 549 4 c 0
 549 14 557 22 567 22 c 0
 577 22 586 14 586 4 c 0
581 977 m 0
 580 986 573 992 565 992 c 0
 556 992 549 983 549 975 c 0
 549 966 557 959 566 960 c 0
 575 961 582 969 581 977 c 0
581 4 m 0
 581 11 575 17 567 17 c 0
 560 17 554 11 554 4 c 0
 554 -4 561 -10 569 -9 c 0
 575 -9 581 -2 581 4 c 0
714 971 m 1
 666 890 635 822 635 653 c 1
 611 643 596 638 570 638 c 0
 543 638 525 644 501 655 c 1
 501 826 458 910 420 972 c 1
 477 974 544 955 566 935 c 1
 588 954 653 972 714 971 c 1
667 607 m 0
 667 589 659 579 646 569 c 0
 607 541 525 547 492 569 c 0
 481 576 469 589 469 607 c 0
 469 628 495 644 505 640 c 0
 554 621 587 619 632 639 c 0
 642 644 667 628 667 607 c 0
683 519 m 0
 682 484 648 463 624 449 c 1
 615 425 596 403 567 403 c 0
 539 403 518 425 512 450 c 1
 485 463 455 484 454 516 c 0
 454 531 460 546 469 553 c 0
 474 557 480 559 487 557 c 0
 539 535 591 529 650 556 c 0
 655 558 662 557 666 553 c 0
 677 543 683 533 683 519 c 0
712 18 m 1
 666 11 598 20 569 45 c 1
 536 21 470 9 421 17 c 1
 452 66 502 230 501 343 c 1
 501 444 l 1
 513 411 534 392 567 392 c 0
 599 392 619 408 634 442 c 1
 634 343 l 1
 636 231 682 69 712 18 c 1
671 935 m 0
 673 940 672 945 667 948 c 0
 662 950 657 949 655 945 c 0
 652 941 653 935 657 933 c 0
 661 930 668 930 671 935 c 0
480 934 m 0
 482 939 481 944 476 946 c 0
 471 949 466 948 464 944 c 0
 462 940 463 934 466 932 c 0
 470 929 477 929 480 934 c 0
627 925 m 1
 614 917 602 903 594 894 c 1
 587 882 573 865 566 841 c 1
 559 865 543 884 536 894 c 0
 529 905 522 916 506 927 c 1
 518 916 523 906 532 894 c 1
 543 875 561 836 561 799 c 2
 561 674 l 2
 561 666 571 666 571 674 c 2
 571 800 l 2
 571 837 588 875 600 894 c 0
 608 905 615 916 627 925 c 1
646 516 m 0
 651 520 646 527 641 524 c 0
 619 509 597 496 567 496 c 0
 535 496 512 509 490 522 c 0
 484 526 477 515 484 512 c 1
 505 498 530 488 561 487 c 1
 562 429 l 2
 562 422 572 422 572 429 c 2
 572 487 l 1
 602 488 625 499 646 516 c 0
621 72 m 1
 613 85 608 95 600 104 c 1
 589 124 571 161 571 198 c 2
 571 348 l 2
 571 355 561 355 561 348 c 2
 561 199 l 2
 561 162 541 124 532 106 c 0
 524 92 519 82 511 71 c 1
 523 85 529 95 536 104 c 0
 543 114 559 133 566 157 c 1
 573 133 587 116 594 104 c 1
 602 95 610 82 621 72 c 1
662 56 m 0
 659 61 652 61 648 59 c 1
 645 56 644 50 646 47 c 0
 648 43 653 42 658 44 c 0
 663 47 664 52 662 56 c 0
489 58 m 0
 486 63 479 63 475 60 c 0
 471 58 470 52 473 48 c 0
 475 44 480 43 485 45 c 0
 490 48 491 53 489 58 c 0
130 569 m 0
 119 576 106 589 106 607 c 0
 106 628 132 644 142 640 c 0
 191 621 224 619 270 639 c 0
 280 644 286 651 292 646 c 2
 490 449 l 1
 490 371 l 1
 290 571 l 1
 250 543 163 547 130 569 c 0
336 501 m 1
 331 482 324 465 291 447 c 1
 291 343 l 2
 291 242 341 75 371 28 c 0
 379 17 388 -5 326 -5 c 0
 277 -5 229 1 204 15 c 1
 179 1 132 -5 84 -5 c 0
 23 -5 31 17 38 28 c 0
 67 75 120 242 120 343 c 2
 120 447 l 1
 79 468 70 499 72 526 c 0
 74 545 85 562 100 571 c 1
 90 582 85 596 87 613 c 0
 89 631 104 646 120 655 c 1
 120 783 99 871 38 967 c 1
 17 1002 159 987 204 961 c 1
 249 987 394 1002 372 967 c 0
 316 879 292 784 290 671 c 1
 435 526 l 1
 437 545 448 562 463 571 c 1
 453 582 448 596 449 613 c 1
 452 631 466 646 482 655 c 1
 482 783 462 871 400 967 c 1
 379 1002 522 987 566 961 c 1
 611 987 757 1002 734 967 c 0
 674 871 653 783 653 655 c 1
 669 646 684 631 685 613 c 1
 688 596 682 582 672 571 c 1
 686 562 699 545 700 526 c 1
 704 499 694 468 653 447 c 1
 653 343 l 2
 653 242 704 75 733 28 c 1
 742 17 750 -5 689 -5 c 0
 640 -5 592 1 566 15 c 1
 541 1 495 -5 447 -5 c 0
 385 -5 394 17 400 28 c 0
 430 75 482 242 482 343 c 2
 482 355 l 1
 336 501 l 1
490 359 m 1
 490 343 l 2
 490 240 437 72 407 23 c 0
 401 15 398 2 447 2 c 0
 495 2 544 9 565 22 c 0
 566 23 569 25 570 23 c 1
 592 9 641 2 689 2 c 0
 738 2 733 15 727 23 c 0
 697 72 646 240 646 343 c 2
 646 452 l 1
 684 471 696 501 693 526 c 0
 691 543 679 560 666 567 c 0
 663 568 662 570 664 573 c 0
 673 582 680 596 678 613 c 0
 677 629 662 645 647 651 c 1
 647 783 667 868 727 966 c 1
 749 999 608 981 569 955 c 0
 567 954 565 954 564 955 c 0
 524 981 387 999 407 966 c 0
 469 868 489 783 489 651 c 1
 474 645 459 629 457 613 c 0
 455 596 462 582 470 573 c 0
 473 570 471 568 469 567 c 0
 455 560 436 536 443 508 c 1
 283 667 l 1
 283 783 304 868 365 966 c 1
 387 999 245 981 206 955 c 0
 205 954 202 954 201 955 c 0
 162 981 24 999 45 966 c 0
 106 868 126 783 126 651 c 1
 111 645 96 629 94 613 c 1
 93 596 99 582 107 573 c 0
 110 570 109 568 106 567 c 0
 93 560 82 543 79 526 c 1
 77 501 89 471 127 452 c 1
 127 343 l 2
 127 240 74 72 45 23 c 1
 39 15 35 2 84 2 c 0
 132 2 181 9 202 22 c 0
 204 23 206 25 207 23 c 1
 229 9 279 2 326 2 c 0
 376 2 371 15 365 23 c 0
 335 72 283 240 283 343 c 2
 283 452 l 1
 318 470 331 494 331 517 c 1
 490 359 l 1
EndSplineSet
Validated: 37
EndChar

StartChar: afii10033
Encoding: 1055 1055 58
Width: 773
Flags: W
LayerCount: 3
Fore
SplineSet
223 977 m 0
 223 965 216 955 204 955 c 0
 191 955 181 962 181 975 c 0
 181 987 190 998 202 998 c 0
 215 998 223 989 223 977 c 0
223 4 m 0
 223 -6 216 -14 206 -14 c 0
 196 -14 186 -6 186 4 c 0
 186 14 195 22 205 22 c 0
 215 22 223 14 223 4 c 0
218 977 m 0
 218 986 211 992 202 992 c 0
 194 992 186 983 186 975 c 0
 186 966 195 960 204 960 c 0
 212 960 218 969 218 977 c 0
218 4 m 0
 218 11 212 17 205 17 c 0
 197 17 191 11 191 4 c 0
 191 -4 199 -9 206 -9 c 0
 213 -9 218 -4 218 4 c 0
342 971 m 1
 360 957 347 916 332 899 c 1
 298 892 272 859 272 809 c 2
 272 653 l 1
 249 643 233 638 207 638 c 0
 180 638 163 644 138 655 c 1
 138 826 95 910 57 972 c 1
 115 974 181 955 204 935 c 1
 226 954 282 972 342 971 c 1
304 607 m 0
 304 589 297 579 283 569 c 0
 244 541 163 547 130 569 c 0
 119 576 106 589 106 607 c 0
 106 628 132 644 142 640 c 0
 191 621 224 619 270 639 c 0
 280 644 304 628 304 607 c 0
320 519 m 0
 319 484 286 463 261 449 c 1
 253 425 233 403 205 403 c 0
 176 403 156 425 149 450 c 1
 122 463 93 484 92 516 c 0
 92 531 98 546 106 553 c 0
 111 557 117 559 125 557 c 1
 176 535 228 529 287 556 c 0
 292 558 299 557 303 553 c 0
 314 543 320 533 320 519 c 0
350 18 m 1
 303 11 235 20 206 45 c 1
 174 21 107 9 58 17 c 1
 89 66 140 230 138 343 c 1
 138 444 l 1
 151 411 171 392 205 392 c 0
 237 392 256 408 271 442 c 1
 271 343 l 1
 274 231 319 69 350 18 c 1
117 934 m 0
 120 939 119 944 114 946 c 0
 109 949 104 948 101 944 c 0
 99 940 100 934 104 932 c 1
 107 929 115 929 117 934 c 0
318 934 m 1
 286 935 249 910 240 901 c 0
 230 891 211 865 204 841 c 1
 196 865 180 884 174 894 c 0
 167 905 159 916 143 927 c 1
 156 916 160 906 169 894 c 1
 180 875 199 836 199 799 c 2
 199 674 l 2
 199 666 208 666 208 674 c 2
 208 800 l 2
 208 837 228 875 243 892 c 1
 257 910 294 932 318 934 c 1
283 516 m 0
 288 520 283 527 279 524 c 0
 256 509 234 496 205 496 c 0
 173 496 149 509 127 522 c 0
 121 526 115 515 121 512 c 0
 142 498 168 488 199 487 c 1
 200 429 l 2
 200 422 210 422 210 429 c 2
 210 487 l 1
 239 488 262 499 283 516 c 0
259 72 m 1
 250 85 245 95 238 104 c 1
 227 124 208 161 208 198 c 2
 208 348 l 2
 208 355 199 355 199 348 c 2
 199 199 l 2
 199 162 179 124 169 106 c 0
 162 92 157 82 148 71 c 1
 160 85 167 95 174 104 c 1
 180 114 196 133 204 157 c 1
 211 133 224 116 232 104 c 0
 239 95 248 82 259 72 c 1
299 56 m 1
 297 61 290 61 286 59 c 0
 282 56 281 50 283 47 c 0
 286 43 291 42 296 44 c 0
 301 47 302 52 299 56 c 1
126 58 m 0
 124 63 116 63 112 60 c 0
 109 58 107 52 110 48 c 0
 112 44 117 43 122 45 c 0
 127 48 129 53 126 58 c 0
586 977 m 0
 586 966 577 956 566 955 c 0
 555 954 545 964 544 975 c 0
 543 987 552 998 565 998 c 0
 576 998 586 988 586 977 c 0
586 4 m 0
 586 -5 577 -14 569 -14 c 0
 559 -15 549 -6 549 4 c 0
 549 14 557 22 567 22 c 0
 577 22 586 14 586 4 c 0
581 977 m 0
 580 986 573 992 565 992 c 0
 556 992 549 983 549 975 c 0
 549 966 557 959 566 960 c 0
 575 961 582 969 581 977 c 0
581 4 m 0
 581 11 575 17 567 17 c 0
 560 17 554 11 554 4 c 0
 554 -4 561 -10 569 -9 c 0
 575 -9 581 -2 581 4 c 0
714 971 m 1
 666 890 635 822 635 653 c 1
 611 643 596 638 570 638 c 0
 543 638 525 644 501 655 c 1
 501 807 l 2
 501 860 474 894 435 896 c 1
 448 923 439 961 432 971 c 1
 490 972 544 955 566 935 c 1
 588 954 653 972 714 971 c 1
667 607 m 0
 667 589 659 579 646 569 c 0
 607 541 525 547 492 569 c 0
 481 576 469 589 469 607 c 0
 469 628 495 644 505 640 c 0
 554 621 587 619 632 639 c 0
 642 644 667 628 667 607 c 0
683 519 m 0
 682 484 648 463 624 449 c 1
 615 425 596 403 567 403 c 0
 539 403 518 425 512 450 c 1
 485 463 455 484 454 516 c 0
 454 531 460 546 469 553 c 0
 474 557 480 559 487 557 c 0
 539 535 591 529 650 556 c 0
 655 558 662 557 666 553 c 0
 677 543 683 533 683 519 c 0
712 18 m 1
 666 11 598 20 569 45 c 1
 536 21 470 9 421 17 c 1
 452 66 502 230 501 343 c 1
 501 444 l 1
 513 411 534 392 567 392 c 0
 599 392 619 408 634 442 c 1
 634 343 l 1
 636 231 682 69 712 18 c 1
671 935 m 0
 673 940 672 945 667 948 c 0
 662 950 657 949 655 945 c 0
 652 941 653 935 657 933 c 0
 661 930 668 930 671 935 c 0
627 925 m 1
 614 917 602 903 594 894 c 1
 587 882 573 865 566 841 c 1
 562 864 554 884 541 896 c 0
 530 907 496 930 465 930 c 1
 490 927 529 903 540 885 c 0
 551 866 561 836 561 799 c 2
 561 674 l 2
 561 666 571 666 571 674 c 2
 571 800 l 2
 571 837 588 875 600 894 c 0
 608 905 615 916 627 925 c 1
646 516 m 0
 651 520 646 527 641 524 c 0
 619 509 597 496 567 496 c 0
 535 496 512 509 490 522 c 0
 484 526 477 515 484 512 c 1
 505 498 530 488 561 487 c 1
 562 429 l 2
 562 422 572 422 572 429 c 2
 572 487 l 1
 602 488 625 499 646 516 c 0
621 72 m 1
 613 85 608 95 600 104 c 1
 589 124 571 161 571 198 c 2
 571 348 l 2
 571 355 561 355 561 348 c 2
 561 199 l 2
 561 162 541 124 532 106 c 0
 524 92 519 82 511 71 c 1
 523 85 529 95 536 104 c 0
 543 114 559 133 566 157 c 1
 573 133 587 116 594 104 c 1
 602 95 610 82 621 72 c 1
662 56 m 0
 659 61 652 61 648 59 c 1
 645 56 644 50 646 47 c 0
 648 43 653 42 658 44 c 0
 663 47 664 52 662 56 c 0
489 58 m 0
 486 63 479 63 475 60 c 0
 471 58 470 52 473 48 c 0
 475 44 480 43 485 45 c 0
 490 48 491 53 489 58 c 0
482 655 m 1
 482 806 l 2
 482 870 433 880 433 880 c 1
 433 880 417 855 388 855 c 0
 357 855 346 870 335 881 c 1
 335 881 291 870 291 809 c 2
 291 655 l 1
 307 646 321 631 323 613 c 0
 325 596 319 582 309 571 c 1
 324 562 336 545 337 526 c 1
 341 499 331 468 291 447 c 1
 291 343 l 2
 291 242 341 75 371 28 c 0
 379 17 388 -5 326 -5 c 0
 277 -5 229 1 204 15 c 1
 179 1 132 -5 84 -5 c 0
 23 -5 31 17 38 28 c 0
 67 75 120 242 120 343 c 2
 120 447 l 1
 79 468 70 499 72 526 c 0
 74 545 85 562 100 571 c 1
 90 582 85 596 87 613 c 0
 89 631 104 646 120 655 c 1
 120 783 99 871 38 967 c 1
 17 1002 159 987 204 961 c 1
 232 977 301 991 341 988 c 1
 351 1000 372 1007 387 1007 c 0
 402 1007 420 1002 431 988 c 1
 471 991 538 977 566 961 c 1
 611 987 757 1002 734 967 c 0
 674 871 653 783 653 655 c 1
 669 646 684 631 685 613 c 1
 688 596 682 582 672 571 c 1
 686 562 699 545 700 526 c 1
 704 499 694 468 653 447 c 1
 653 343 l 2
 653 242 704 75 733 28 c 1
 742 17 750 -5 689 -5 c 0
 640 -5 592 1 566 15 c 1
 541 1 495 -5 447 -5 c 0
 385 -5 394 17 400 28 c 0
 430 75 482 242 482 343 c 2
 482 447 l 1
 442 468 432 499 435 526 c 0
 437 545 448 562 463 571 c 1
 453 582 448 596 449 613 c 1
 452 631 466 646 482 655 c 1
489 806 m 2
 489 651 l 1
 474 645 459 629 457 613 c 0
 455 596 462 582 470 573 c 0
 473 570 471 568 469 567 c 0
 455 560 444 543 442 526 c 0
 439 501 452 471 490 452 c 1
 490 343 l 2
 490 240 437 72 407 23 c 0
 401 15 398 2 447 2 c 0
 495 2 544 9 565 22 c 0
 566 23 569 25 570 23 c 1
 592 9 641 2 689 2 c 0
 738 2 733 15 727 23 c 0
 697 72 646 240 646 343 c 2
 646 452 l 1
 684 471 696 501 693 526 c 0
 691 543 679 560 666 567 c 0
 663 568 662 570 664 573 c 0
 673 582 680 596 678 613 c 0
 677 629 662 645 647 651 c 1
 647 783 667 868 727 966 c 1
 749 999 608 981 569 955 c 0
 567 954 565 954 564 955 c 0
 536 974 460 987 425 983 c 1
 425 983 417 1002 387 1002 c 0
 360 1002 346 983 346 983 c 1
 310 988 234 974 206 955 c 0
 205 954 202 954 201 955 c 0
 162 981 24 999 45 966 c 0
 106 868 126 783 126 651 c 1
 111 645 96 629 94 613 c 1
 93 596 99 582 107 573 c 0
 110 570 109 568 106 567 c 0
 93 560 82 543 79 526 c 1
 77 501 89 471 127 452 c 1
 127 343 l 2
 127 240 74 72 45 23 c 1
 39 15 35 2 84 2 c 0
 132 2 181 9 202 22 c 0
 204 23 206 25 207 23 c 1
 229 9 279 2 326 2 c 0
 376 2 371 15 365 23 c 0
 335 72 283 240 283 343 c 2
 283 452 l 1
 321 471 334 501 330 526 c 1
 329 543 316 560 303 567 c 0
 301 568 299 570 302 573 c 0
 310 582 318 596 315 613 c 1
 314 629 299 645 285 651 c 1
 285 810 l 2
 285 884 340 889 340 889 c 1
 350 870 371 862 388 862 c 0
 406 862 420 870 430 886 c 1
 430 886 489 884 489 806 c 2
356 976 m 0
 374 989 391 994 411 981 c 0
 420 975 428 952 428 934 c 0
 428 913 424 896 411 882 c 0
 401 871 366 869 352 892 c 0
 350 896 349 903 351 908 c 0
 360 928 365 937 362 955 c 0
 361 964 351 972 356 976 c 0
EndSplineSet
Validated: 37
EndChar

